<?xml version="1.0" encoding="iso-8859-1"?>
<!-- Generator: Adobe Illustrator 19.0.0, SVG Export Plug-In . SVG Version: 6.00 Build 0)  -->
<svg version="1.1" id="Layer_1" xmlns="http://www.w3.org/2000/svg" xmlns:xlink="http://www.w3.org/1999/xlink" x="0px" y="0px"
	 viewBox="0 0 512 512" style="enable-background:new 0 0 512 512;" xml:space="preserve">
<path style="fill:#FE5022;" d="M433.314,385.237V276.37h53.624c9.659,0,17.517,7.858,17.517,17.517v73.833
	c0,9.659-7.859,17.518-17.517,17.518L433.314,385.237L433.314,385.237z"/>
<path style="fill:#ECE5DD;" d="M34.156,502.865c-15.062,0-27.317-12.255-27.317-27.318V136.154c0-1.4,0-11.782,0-11.782
	L125.134,5.955c0,0,10.497,0,11.904,0h263.94c15.063,0,27.317,12.255,27.317,27.317v442.274c0,15.064-12.255,27.318-27.317,27.318
	H34.156z"/>
<path style="fill:#D9CBBD;" d="M400.979,5.955h-31.092c15.063,0,27.317,12.255,27.317,27.317v442.274
	c0,15.064-12.255,27.318-27.317,27.318h31.092c15.063,0,27.317-12.255,27.317-27.318V33.272
	C428.296,18.21,416.042,5.955,400.979,5.955z"/>
<g>
	<path style="fill:#BABABA;" d="M169.768,134.088h129.347c4.465,0,8.084-3.618,8.084-8.084s-3.62-8.084-8.084-8.084H169.768
		c-4.465,0-8.084,3.618-8.084,8.084S165.304,134.088,169.768,134.088z"/>
	<path style="fill:#BABABA;" d="M353.01,134.088h21.558c4.465,0,8.084-3.618,8.084-8.084s-3.62-8.084-8.084-8.084H353.01
		c-4.465,0-8.084,3.618-8.084,8.084S348.546,134.088,353.01,134.088z"/>
	<path style="fill:#BABABA;" d="M242.526,212.235c0-4.466-3.62-8.084-8.084-8.084H61.979c-4.465,0-8.084,3.618-8.084,8.084
		s3.62,8.084,8.084,8.084h172.463C238.907,220.32,242.526,216.701,242.526,212.235z"/>
	<path style="fill:#BABABA;" d="M374.568,204.151h-97.01c-4.465,0-8.084,3.618-8.084,8.084s3.62,8.084,8.084,8.084h97.01
		c4.465,0,8.084-3.618,8.084-8.084S379.033,204.151,374.568,204.151z"/>
</g>
<path style="fill:#D9CBBD;" d="M7.545,125.313L125.841,6.896l1.351,102.964c0,9.199-7.484,16.684-16.684,16.684L7.545,125.313z"/>
<path style="fill:#FFB656;" d="M269.474,396.016V265.591h181.4c5.771,0,10.465,4.694,10.465,10.465V385.55
	c0,5.771-4.694,10.466-10.465,10.466L269.474,396.016L269.474,396.016z"/>
<path style="fill:#D9CBBD;" d="M364.292,331.343c-12.462,0-22.599-10.138-22.599-22.6v-43.151h87.309v43.151
	c0,12.463-10.138,22.6-22.599,22.6H364.292z"/>
<g>
	<path style="fill:#BABABA;" d="M169.768,134.088h129.347c4.465,0,8.084-3.618,8.084-8.084s-3.62-8.084-8.084-8.084H169.768
		c-4.465,0-8.084,3.618-8.084,8.084S165.304,134.088,169.768,134.088z"/>
	<path style="fill:#BABABA;" d="M353.01,134.088h21.558c4.465,0,8.084-3.618,8.084-8.084s-3.62-8.084-8.084-8.084H353.01
		c-4.465,0-8.084,3.618-8.084,8.084S348.546,134.088,353.01,134.088z"/>
	<path style="fill:#BABABA;" d="M242.526,212.235c0-4.466-3.62-8.084-8.084-8.084H61.979c-4.465,0-8.084,3.618-8.084,8.084
		s3.62,8.084,8.084,8.084h172.463C238.907,220.32,242.526,216.701,242.526,212.235z"/>
	<path style="fill:#BABABA;" d="M374.568,204.151h-97.01c-4.465,0-8.084,3.618-8.084,8.084s3.62,8.084,8.084,8.084h97.01
		c4.465,0,8.084-3.618,8.084-8.084S379.033,204.151,374.568,204.151z"/>
	<path style="fill:#BABABA;" d="M342.232,441.288H105.095c-4.465,0-8.084,3.618-8.084,8.084s3.62,8.084,8.084,8.084h237.137
		c4.465,0,8.084-3.618,8.084-8.084S346.696,441.288,342.232,441.288z"/>
</g>
<path style="fill:#FE5022;" d="M165.928,352.901c-3.588,0-5.923-3.777-4.318-6.987l15.77-31.539
	c1.748-3.496,5.263-5.669,9.173-5.669h43.039V352.9h-63.664V352.901z"/>
<polygon style="fill:#FFB656;" points="256.539,276.037 212.345,298.135 212.345,363.474 256.539,385.572 283.173,385.572 
	283.173,276 "/>
<g>
	<path style="fill:#FE5022;" d="M267.932,396.016c-6.876,0-12.471-5.594-12.471-12.471V278.062c0-6.876,5.594-12.47,12.471-12.47
		h19.251c6.876,0,12.471,5.594,12.471,12.47v105.483c0,6.877-5.594,12.471-12.471,12.471H267.932z"/>
	<path style="fill:#FE5022;" d="M108.069,374.32H32.247v-75.854h88.83c8.306,0,14.462,7.713,12.621,15.813l-10.996,48.36
		C121.15,369.472,115.076,374.32,108.069,374.32z"/>
</g>
<path d="M486.938,268.825h-19.581c-2.792-6.338-9.124-10.779-16.483-10.779h-14.326V34.862C436.547,15.639,420.908,0,401.685,0
	h-263.94c-9.312,0-18.067,3.626-24.651,10.211L10.211,113.092C3.626,119.677,0,128.431,0,137.744v339.392
	C0,496.36,15.639,512,34.862,512h366.822c19.224,0,34.863-15.64,34.863-34.863v-73.575h14.326c7.359,0,13.691-4.441,16.483-10.779
	h19.581c13.82,0,25.062-11.243,25.062-25.063v-73.833C512,280.068,500.756,268.825,486.938,268.825z M118.568,27.602v82.258
	c0,4.444-3.615,8.06-8.06,8.06l-82.258-0.001L118.568,27.602z M452.716,385.55c0,1.013-0.829,1.843-1.843,1.843h-84.538
	c-4.465,0-8.084,3.62-8.084,8.084c0,4.465,3.62,8.084,8.084,8.084h54.045v73.575c0,10.325-8.37,18.695-18.695,18.695H34.862
	c-10.324,0-18.694-8.37-18.694-18.694v-95.133h104.756c4.427,0,8.287-3.412,8.419-7.837c0.137-4.578-3.533-8.331-8.081-8.331H16.168
	v-59.284h142.483c4.427,0,8.287-3.412,8.419-7.837c0.137-4.578-3.533-8.331-8.081-8.331H16.168v-152.64
	c0-1.242,0.121-2.465,0.356-3.657l93.984,0.001c13.359,0,24.229-10.868,24.229-24.229v-93.43c0.987-0.158,1.989-0.261,3.008-0.261
	h263.94c10.324,0,18.694,8.37,18.694,18.694v223.183H299.116c-1.698,0-3.271,0.526-4.572,1.42c-2.281-0.906-4.76-1.42-7.36-1.42
	h-19.251c-8.667,0-16.043,5.547-18.821,13.27l-39.842,19.921c-2.739,1.37-4.469,4.168-4.469,7.231v2.695h-18.247
	c-6.787,0-12.888,3.77-15.922,9.84l-14.43,28.86c-2.095,4.191-2.21,9.196,0.041,13.304c2.488,4.54,7.134,7.279,12.261,7.279H204.8
	v2.695c0,3.062,1.73,5.862,4.469,7.231l39.842,19.921c2.778,7.722,10.155,13.27,18.821,13.27h19.251c2.6,0,5.078-0.514,7.36-1.42
	c1.301,0.895,2.875,1.42,4.572,1.42h31.574c4.465,0,8.084-3.62,8.084-8.084s-3.62-8.084-8.084-8.084H307.2V274.213h26.947v34.528
	c0,16.649,13.496,30.145,30.146,30.145h42.11c16.648,0,30.144-13.496,30.144-30.144v-34.529h14.326c1.018,0,1.842,0.825,1.842,1.842
	L452.716,385.55L452.716,385.55z M420.379,274.214v34.528c0,7.707-6.269,13.977-13.976,13.977h-42.111
	c-7.706,0-13.976-6.269-13.976-13.977v-34.528H420.379z M291.032,278.062v105.483c0,2.122-1.727,3.848-3.848,3.848h-19.251
	c-2.121,0-3.848-1.727-3.848-3.848V278.062c0-2.121,1.727-3.847,3.848-3.847h19.251
	C289.305,274.214,291.032,275.941,291.032,278.062z M247.916,289.99v81.628l-26.947-13.474v-54.681L247.916,289.99z M204.8,317.33
	v26.947h-32.73l13.023-26.045c0.278-0.557,0.838-0.902,1.461-0.902H204.8z M495.832,367.719c0,4.904-3.99,8.895-8.894,8.895h-18.054
	v-91.621h18.054c4.904,0,8.894,3.989,8.894,8.894V367.719z"/>
<g>
</g>
<g>
</g>
<g>
</g>
<g>
</g>
<g>
</g>
<g>
</g>
<g>
</g>
<g>
</g>
<g>
</g>
<g>
</g>
<g>
</g>
<g>
</g>
<g>
</g>
<g>
</g>
<g>
</g>
</svg>
