<?xml version="1.0"?>
<svg xmlns="http://www.w3.org/2000/svg" viewBox="0 0 64 64" width="512" height="512"><g id="Flat"><path d="M5,61H59a2,2,0,0,0,2-2V9H3V59A2,2,0,0,0,5,61Z" style="fill:#e6e6e6"/><path d="M3,11H61V5a2,2,0,0,0-2-2H5A2,2,0,0,0,3,5Z" style="fill:#b3b3b3"/><path d="M7,8a1.052,1.052,0,0,1-.71-.29.933.933,0,0,1-.21-.33A1,1,0,0,1,6,7a1.033,1.033,0,0,1,.29-.71A1,1,0,0,1,8,7,.99.99,0,0,1,7,8Z" style="fill:#ff6536"/><path d="M11,8a1.052,1.052,0,0,1-.71-.29,1.576,1.576,0,0,1-.12-.15.757.757,0,0,1-.09-.18.636.636,0,0,1-.06-.18A1.355,1.355,0,0,1,10,7a1,1,0,1,1,2,0,1.355,1.355,0,0,1-.02.2.636.636,0,0,1-.06.18.757.757,0,0,1-.09.18l-.12.15A1.052,1.052,0,0,1,11,8Z" style="fill:#fdb62f"/><path d="M15,8a1.052,1.052,0,0,1-.71-.29,1.014,1.014,0,0,1,0-1.42A1,1,0,0,1,16,7a.99.99,0,0,1-1,1Z" style="fill:#02998a"/><rect x="7" y="15" width="50" height="12" style="fill:#a7d6dd"/><rect x="7" y="31" width="16" height="26" style="fill:#6cbbc7"/><rect x="27" y="31" width="30" height="11" style="fill:#f5cf68"/><rect x="27" y="46" width="30" height="11" style="fill:#ff6536"/></g></svg>
