<svg height="978pt" viewBox="-63 1 978 978.69203" width="978pt" xmlns="http://www.w3.org/2000/svg"><path d="m555.105469 179.523438c-9.011719 0-16.316407-7.304688-16.316407-16.316407v-146.84375h-489.476562c-18.019531 0-32.628906 14.613281-32.628906 32.632813v881.054687c0 18.023438 14.609375 32.632813 32.628906 32.632813h620.003906c18.019532 0 32.628906-14.609375 32.628906-32.632813v-750.527343zm0 0" fill="#ffeb99"/><path d="m538.789062 16.363281 163.160157 163.160157-159.359375-163.160157zm0 0" fill="#ffeb99"/><path d="m538.789062 163.207031c0 9.011719 7.304688 16.316407 16.316407 16.316407h146.84375l-163.160157-163.160157zm0 0" fill="#ffe477"/><path d="m512.898438 632.417969 230.738281-230.738281 46.148437 46.144531-230.738281 230.738281zm0 0" fill="#d80027"/><path d="m743.648438 401.660156 46.144531-46.148437 46.148437 46.148437-46.148437 46.148438zm0 0" fill="#ffd422"/><path d="m489.84375 655.488281v46.140625h46.140625l23.085937-23.070312-46.15625-46.15625zm0 0" fill="#ffd422"/><g fill="#231f20"><path d="m701.949219 701.628906c-9.011719 0-16.316407 7.308594-16.316407 16.316406v212.105469c0 9.011719-7.304687 16.316407-16.316406 16.316407h-620.003906c-9.011719 0-16.316406-7.304688-16.316406-16.316407v-881.054687c0-9.011719 7.304687-16.316406 16.316406-16.316406h473.160156v130.527343c0 18.023438 14.609375 32.632813 32.632813 32.632813h130.527343v65.261718c0 9.011719 7.304688 16.316407 16.316407 16.316407 9.007812 0 16.316406-7.304688 16.316406-16.316407v-81.578124c0-.359376-.179687-.671876-.199219-1.027344-.089844-1.402344-.363281-2.785156-.8125-4.113282-.179687-.539062-.328125-1.042968-.554687-1.632812-.6875-1.53125-1.613281-2.949219-2.742188-4.191406-.128906-.148438-.195312-.359375-.328125-.507813l-159.371094-163.15625c-3.078124-3.136719-7.289062-4.9023435-11.683593-4.894531h-493.261719c-27.03125 0-48.945312 21.914062-48.945312 48.949219v.046875 881.054687c0 27.035157 21.914062 48.949219 48.945312 48.949219h620.003906c27.03125 0 48.945313-21.914062 48.945313-48.949219v-212.105469c.003906-9.007812-7.304688-16.316406-16.3125-16.316406zm-146.84375-538.421875v-107.457031l107.457031 107.457031zm0 0"/><path d="m847.484375 390.128906-46.140625-46.140625c-6.472656-6.121093-16.597656-6.121093-23.070312 0l-299.96875 299.949219c-3.058594 3.058594-4.777344 7.207031-4.777344 11.535156v46.15625c0 9.011719 7.304687 16.316406 16.316406 16.316406h46.140625c4.328125 0 8.476563-1.71875 11.535156-4.777343l299.96875-299.96875c6.367188-6.371094 6.367188-16.699219-.003906-23.070313zm-318.257813 295.1875h-23.070312v-23.089844l6.757812-6.753906 23.070313 23.085938zm29.828126-29.828125-23.070313-23.085937 207.683594-207.667969 23.070312 23.085937zm230.753906-230.753906-23.070313-23.070313 23.070313-23.085937 23.085937 23.085937zm0 0"/></g></svg>