<svg id="Layer_5" enable-background="new 0 0 64 64" height="512" viewBox="0 0 64 64" width="512" xmlns="http://www.w3.org/2000/svg"><g><g><g><path d="m2 54h24v4h-24z" fill="#fcd770"/></g><g><path d="m2 50h24v4h-24z" fill="#ffeaa7"/></g><g><path d="m26 35v15h-24v-16h23z" fill="#e6e9ed"/></g><g><path d="m6 38h8v8h-8z" fill="#ff826e"/></g><g><path d="m52 2h-26v60h36v-50z" fill="#f0d0b4"/></g><g><path d="m46 46h12v12h-12z" fill="#b4dd7f"/></g><g><path d="m58 12v4h-28v-10h22v6z" fill="#e6e9ed"/></g><g><path d="m62 12h-4-6v-6-4z" fill="#fcd770"/></g><g><path d="m41.93 39.75c.05.17.07.34.07.51 0 .96-.78 1.74-1.74 1.74-.17 0-.34-.02-.51-.07l-9.75-2.93 9-9z" fill="#aab2bd"/></g><g><path d="m39 30-9 9-4-4-1-1-15-15 9-9 7 7z" fill="#b4dd7f"/></g><g><circle cx="25" cy="25" fill="#ff826e" r="2"/></g><g><circle cx="19" cy="19" fill="#ff826e" r="2"/></g><g><path d="m6.636 10.879h12.728v4.243h-12.728z" fill="#ffeaa7" transform="matrix(.707 -.707 .707 .707 -5.385 13)"/></g><g><path d="m16 7-9 9-3.14-3.14c-1.19-1.19-1.86-2.81-1.86-4.5 0-3.51 2.85-6.36 6.36-6.36 1.69 0 3.31.67 4.5 1.86z" fill="#aab2bd"/></g></g><g><path d="m52.414 1h-27.414v13.586l-11.429-11.429c-1.391-1.391-3.24-2.157-5.207-2.157-4.061 0-7.364 3.304-7.364 7.364 0 1.967.766 3.816 2.157 5.207l19.429 19.429h-21.586v26h24v4h38v-51.414zm4.586 12v2h-26v-8h20v6zm-4-2v-6.586l6.586 6.586zm-14.477 20.891 2.446 8.152c.02.069.031.141.031.213 0 .483-.506.848-.958.713l-8.151-2.446zm-8.523 5.695-18.586-18.586 7.586-7.586 18.586 18.586zm-20-20-1.586-1.586 7.586-7.586 1.586 1.586zm-7-9.222c0-2.958 2.406-5.364 5.364-5.364 1.433 0 2.78.558 3.793 1.571l2.429 2.429-7.586 7.586-2.429-2.429c-1.013-1.012-1.571-2.36-1.571-3.793zm21.586 26.636.414.414v13.586h-22v-14zm.414 16v2h-22v-2zm-22 6v-2h22v2zm24 4v-23.586l2.293 2.293.178.179 9.996 2.999c.256.076.521.115.789.115 1.513 0 2.744-1.231 2.744-2.744 0-.268-.039-.533-.116-.788l-2.999-9.997-12.885-12.885v-13.586h24v2h-22v12h30v-4h2v48z"/><path d="m16 19c0 1.654 1.346 3 3 3s3-1.346 3-3-1.346-3-3-3-3 1.346-3 3zm4 0c0 .552-.449 1-1 1s-1-.448-1-1 .449-1 1-1 1 .448 1 1z"/><path d="m25 28c1.654 0 3-1.346 3-3s-1.346-3-3-3-3 1.346-3 3 1.346 3 3 3zm0-4c.551 0 1 .448 1 1s-.449 1-1 1-1-.448-1-1 .449-1 1-1z"/><path d="m15 37h-10v10h10zm-2 8h-6v-6h6z"/><path d="m17 37h2v10h-2z"/><path d="m21 37h2v10h-2z"/><path d="m45 59h14v-14h-14zm2-12h10v10h-10z"/><path d="m41 57h2v2h-2z"/><path d="m37 57h2v2h-2z"/><path d="m29 57h6v2h-6z"/><path d="m29 53h14v2h-14z"/><path d="m29 49h14v2h-14z"/><path d="m29 45h14v2h-14z"/><path d="m57 19h2v2h-2z"/><path d="m39 19h16v2h-16z"/><path d="m39 23h20v2h-20z"/><path d="m43 27h16v2h-16z"/><path d="m43 31h16v2h-16z"/><path d="m45 35h14v2h-14z"/><path d="m45 39h14v2h-14z"/></g></g></svg>