<?xml version="1.0" encoding="iso-8859-1"?>
<!-- Generator: Adobe Illustrator 19.0.0, SVG Export Plug-In . SVG Version: 6.00 Build 0)  -->
<svg version="1.1" id="Layer_1" xmlns="http://www.w3.org/2000/svg" xmlns:xlink="http://www.w3.org/1999/xlink" x="0px" y="0px"
	 viewBox="0 0 512 512" style="enable-background:new 0 0 512 512;" xml:space="preserve">
<path style="fill:#394B48;" d="M504.745,195.318C477.495,83.227,376.475,0,256,0C114.616,0,0,114.616,0,256
	c0,125.495,90.305,229.888,209.474,251.769L504.745,195.318z"/>
<g>
	<path style="fill:#263230;" d="M512,256c0-20.91-2.526-41.227-7.255-60.682L378.435,69.009l-244.87,362.852l75.908,75.908
		C224.562,510.541,240.11,512,256,512C397.384,512,512,397.384,512,256z"/>
	<rect x="155.826" y="91.27" style="fill:#263230;" width="100.173" height="340.591"/>
</g>
<polygon style="fill:#FCBEC2;" points="256,69.009 244.87,80.139 256,91.27 356.174,91.27 356.174,431.861 378.435,431.861 
	378.435,69.009 "/>
<polygon style="fill:#FFFFFF;" points="133.565,69.009 133.565,431.861 155.826,431.861 155.826,91.27 256,91.27 256,69.009 "/>
<polygon style="fill:#FB9DA4;" points="200.348,471.93 222.609,471.93 233.739,256 222.609,40.07 200.348,40.07 "/>
<polygon style="fill:#F63341;" points="356.174,91.27 289.391,65.67 267.13,256 289.391,451.896 356.174,431.861 "/>
<polygon style="fill:#F85C67;" points="222.609,40.07 222.609,471.93 289.391,451.896 289.391,65.67 "/>
<circle style="fill:#FCBEC2;" cx="256" cy="256" r="11.13"/>
<g>
</g>
<g>
</g>
<g>
</g>
<g>
</g>
<g>
</g>
<g>
</g>
<g>
</g>
<g>
</g>
<g>
</g>
<g>
</g>
<g>
</g>
<g>
</g>
<g>
</g>
<g>
</g>
<g>
</g>
</svg>
