<svg height="512pt" viewBox="0 0 512 512" width="512pt" xmlns="http://www.w3.org/2000/svg"><path d="m512 256c0 56.382812-18.222656 108.511719-49.109375 150.808594-46.5625 63.761718-121.886719 105.191406-206.890625 105.191406s-160.328125-41.429688-206.890625-105.191406c-30.886719-42.296875-49.109375-94.425782-49.109375-150.808594s18.222656-108.511719 49.109375-150.808594c27.1875-37.230468 64.1875-66.855468 107.195313-85.054687 30.636718-12.96875 64.324218-20.136719 99.695312-20.136719s69.058594 7.167969 99.695312 20.136719c43.007813 18.199219 80.007813 47.824219 107.195313 85.054687 30.886719 42.296875 49.109375 94.425782 49.109375 150.808594zm0 0" fill="#3fb777"/><path d="m462.890625 119.234375v287.574219c-19.875 27.222656-44.992187 50.367187-73.863281 67.960937-13.105469 7.984375-26.980469 14.816407-41.484375 20.375-28.421875 10.890625-59.285157 16.855469-91.542969 16.855469s-63.121094-5.964844-91.542969-16.855469c-14.503906-5.558593-28.378906-12.390625-41.484375-20.375-28.871094-17.59375-53.988281-40.738281-73.863281-67.960937v-386.671875h314.671875zm0 0" fill="#f2f0ec"/><path d="m82.648438 161.3125h159.863281v177.101562h-159.863281zm0 0" fill="#dde8ed"/><path d="m120.480469 271.441406c0 7.105469-5.191407 12.996094-11.984375 14.089844-.742188.121094-1.507813.183594-2.289063.183594-7.882812 0-14.269531-6.386719-14.269531-14.273438 0-7.882812 6.386719-14.269531 14.269531-14.269531.78125 0 1.546875.0625 2.289063.179687 6.796875 1.09375 11.984375 6.988282 11.984375 14.089844zm0 0" fill="#d3a489"/><path d="m120.480469 271.441406c0 7.105469-5.191407 12.996094-11.984375 14.089844-1.234375-4.488281-1.894532-9.210938-1.894532-14.089844 0-4.875.660157-9.597656 1.894532-14.089844 6.796875 1.09375 11.984375 6.988282 11.984375 14.089844zm0 0" fill="#bf8e75"/><path d="m111.308594 271.441406c0 2.820313-2.28125 5.101563-5.101563 5.101563-2.816406 0-5.097656-2.28125-5.097656-5.101563 0-2.816406 2.28125-5.101562 5.097656-5.101562 2.820313 0 5.101563 2.285156 5.101563 5.101562zm0 0" fill="#bf8e75"/><path d="m204.679688 271.441406c0 7.105469 5.191406 12.996094 11.984374 14.089844.746094.121094 1.507813.183594 2.289063.183594 7.882813 0 14.269531-6.386719 14.269531-14.273438 0-7.882812-6.386718-14.269531-14.269531-14.269531-.78125 0-1.542969.0625-2.289063.179687-6.792968 1.09375-11.984374 6.988282-11.984374 14.089844zm0 0" fill="#d3a489"/><path d="m204.679688 271.441406c0 7.105469 5.191406 12.996094 11.984374 14.089844 1.238282-4.488281 1.894532-9.210938 1.894532-14.089844 0-4.875-.65625-9.597656-1.894532-14.089844-6.792968 1.09375-11.984374 6.988282-11.984374 14.089844zm0 0" fill="#bf8e75"/><path d="m224.054688 271.441406c0 2.820313-2.285157 5.101563-5.101563 5.101563s-5.101563-2.28125-5.101563-5.101563c0-2.816406 2.285157-5.101562 5.101563-5.101562s5.101563 2.285156 5.101563 5.101562zm0 0" fill="#bf8e75"/><path d="m215.683594 263.855469c0 26.425781-19.304688 48.347656-44.578125 52.417969-2.773438.457031-5.621094.6875-8.523438.6875-29.328125 0-53.101562-23.773438-53.101562-53.105469 0-13.875 4.820312-34.707031 13.535156-44.167969 9.703125-10.535156 24.113281-8.933594 39.566406-8.933594 2.902344 0 5.75.230469 8.523438.683594 25.273437 4.074219 44.578125 25.992188 44.578125 52.417969zm0 0" fill="#bf8e75"/><path d="m215.683594 263.855469c0 26.425781-19.304688 48.347656-44.578125 52.417969-25.277344-4.070313-44.582031-25.992188-44.582031-52.417969 0-16.269531 7.320312-30.835938 18.851562-40.578125 7.1875-6.078125 16.019531-10.273438 25.730469-11.839844 23.5625 3.792969 41.941406 23.109375 44.316406 47.125.171875 1.742188.261719 3.511719.261719 5.292969zm0 0" fill="#d3a489"/><path d="m162.582031 290.011719c-4.445312 0-8.894531-1.113281-12.945312-3.34375-1.144531-.628907-1.5625-2.066407-.933594-3.207031.628906-1.144532 2.066406-1.5625 3.207031-.933594 6.683594 3.671875 14.660156 3.671875 21.34375 0 1.140625-.628906 2.578125-.210938 3.207032.933594.628906 1.140624.210937 2.578124-.933594 3.207031-4.054688 2.230469-8.5 3.34375-12.945313 3.34375zm0 0" fill="#bf8e75"/><path d="m151.273438 260.765625c0 3.328125-2.699219 6.023437-6.023438 6.023437-3.328125 0-6.027344-2.695312-6.027344-6.023437s2.699219-6.023437 6.027344-6.023437c3.324219 0 6.023438 2.695312 6.023438 6.023437zm0 0" fill="#3d4159"/><path d="m185.9375 260.765625c0 3.328125-2.695312 6.023437-6.023438 6.023437-3.328124 0-6.023437-2.695312-6.023437-6.023437s2.695313-6.023437 6.023437-6.023437c3.328126 0 6.023438 2.695312 6.023438 6.023437zm0 0" fill="#3d4159"/><path d="m150.042969 259.703125c0 1.425781-1.152344 2.582031-2.578125 2.582031-1.425782 0-2.582032-1.15625-2.582032-2.582031s1.15625-2.582031 2.582032-2.582031c1.425781 0 2.578125 1.15625 2.578125 2.582031zm0 0" fill="#fff"/><path d="m185.003906 259.703125c0 1.425781-1.152344 2.582031-2.578125 2.582031s-2.582031-1.15625-2.582031-2.582031 1.15625-2.582031 2.582031-2.582031 2.578125 1.15625 2.578125 2.582031zm0 0" fill="#fff"/><path d="m168.605469 275.933594h-12.046875c-1.4375 0-2.601563-1.164063-2.601563-2.601563 0-1.433593 1.164063-2.597656 2.601563-2.597656h12.046875c1.433593 0 2.597656 1.164063 2.597656 2.597656 0 1.4375-1.164063 2.601563-2.597656 2.601563zm0 0" fill="#bf8e75"/><path d="m159.472656 195.585938c16.089844 1.148437 29.003906 14.140624 29.820313 30.5l.15625 3.070312h9.25l4.988281 33.144531 12.070312-3.738281-1.621093-32.476562c-.855469-17.179688-15.070313-30.648438-32.269531-30.585938zm0 0" fill="#2a2f4f"/><path d="m213.113281 182.765625c12.808594 12.8125 12.808594 33.582031 0 46.390625-12.808593 12.808594-33.578125 12.808594-46.390625 0zm0 0" fill="#3d4159"/><path d="m166.722656 229.15625h-40.257812l-4.984375 33.144531-12.074219-3.738281 1.621094-32.476562c.855468-17.179688 15.066406-30.648438 32.269531-30.585938l58.140625.21875 7.6875 13.835938" fill="#3d4159"/><path d="m165.6875 195.585938c-16.085938 1.148437-29 14.140624-29.820312 30.5l-.152344 3.070312h-9.25l-4.988282 33.144531-12.070312-3.738281 1.621094-32.476562c.855468-17.179688 15.066406-30.648438 32.265625-30.585938zm0 0" fill="#2a2f4f"/><g fill="#3d4159"><path d="m143.152344 91.421875h225.6875v20.371094h-225.6875zm0 0"/><path d="m268.535156 161.3125h160.480469v20.375h-160.480469zm0 0"/><path d="m268.535156 213.554688h160.480469v20.375h-160.480469zm0 0"/><path d="m268.535156 265.796875h160.480469v20.375h-160.480469zm0 0"/><path d="m268.535156 318.039062h160.480469v20.375h-160.480469zm0 0"/><path d="m82.648438 370.28125h346.367187v20.375h-346.367187zm0 0"/><path d="m82.648438 422.523438h346.367187v20.375h-346.367187zm0 0"/><path d="m389.027344 474.769531c-13.105469 7.984375-26.980469 14.816407-41.484375 20.375h-183.085938c-14.503906-5.558593-28.378906-12.390625-41.484375-20.375zm0 0"/></g><path d="m363.78125 119.234375v-99.097656l99.109375 99.097656zm0 0" fill="#fff"/></svg>