<?xml version="1.0" encoding="iso-8859-1"?>
<!-- Generator: Adobe Illustrator 21.0.0, SVG Export Plug-In . SVG Version: 6.00 Build 0)  -->
<svg xmlns="http://www.w3.org/2000/svg" xmlns:xlink="http://www.w3.org/1999/xlink" version="1.1" id="Capa_1" x="0px" y="0px" viewBox="0 0 512 512" style="enable-background:new 0 0 512 512;" xml:space="preserve" width="512" height="512">
<g>
	<g>
		<path style="fill:#D8D5ED;" d="M414.254,512H97.746c-2.209,0-4-1.791-4-4V4c0-2.209,1.791-4,4-4h316.507c2.209,0,4,1.791,4,4v504    C418.254,510.209,416.463,512,414.254,512z"/>
		<path style="fill:#BEBADE;" d="M387.348,0v512h26.905c2.209,0,4-1.791,4-4V4c0-2.209-1.791-4-4-4H387.348z"/>
		<g>
			<path style="fill:#484B63;" d="M142.68,282.011H369.32c4.143,0,7.5-3.357,7.5-7.5s-3.357-7.5-7.5-7.5H142.68     c-4.143,0-7.5,3.357-7.5,7.5S138.537,282.011,142.68,282.011z"/>
			<path style="fill:#484B63;" d="M369.32,301.35H142.68c-4.143,0-7.5,3.357-7.5,7.5s3.357,7.5,7.5,7.5H369.32     c4.143,0,7.5-3.357,7.5-7.5S373.463,301.35,369.32,301.35z"/>
			<path style="fill:#484B63;" d="M369.32,335.689H142.68c-4.143,0-7.5,3.357-7.5,7.5s3.357,7.5,7.5,7.5H369.32     c4.143,0,7.5-3.357,7.5-7.5S373.463,335.689,369.32,335.689z"/>
			<path style="fill:#484B63;" d="M200.453,370.028H142.68c-4.143,0-7.5,3.357-7.5,7.5s3.357,7.5,7.5,7.5h57.773     c4.143,0,7.5-3.357,7.5-7.5S204.596,370.028,200.453,370.028z"/>
		</g>
	</g>
	<g>
		<path style="fill:#4FC6F5;" d="M342.656,207.055H169.344c-2.209,0-4-1.791-4-4V58.589c0-2.209,1.791-4,4-4h173.312    c2.209,0,4,1.791,4,4v144.467C346.656,205.264,344.865,207.055,342.656,207.055z"/>
		<path style="fill:#FFBD54;" d="M165.344,174.86l54.315-47.665c1.425-1.251,3.535-1.321,5.041-0.169l104.588,80.03H169.344    c-2.209,0-4-1.791-4-4V174.86z"/>
		<circle style="fill:#FFD659;" cx="297.515" cy="96.065" r="19.487"/>
		<path style="fill:#FFA954;" d="M291.884,178.435l54.771-47.613v72.233c0,2.209-1.791,4-4,4h-13.369L291.884,178.435z"/>
	</g>
	<path style="fill:#484B63;" d="M4.526,328.772L4.526,328.772c-6.035-6.035-6.035-15.819,0-21.853L105.78,205.664l21.853,21.853   L26.379,328.772C20.345,334.806,10.561,334.806,4.526,328.772z"/>
	<g>
		<path style="fill:#FFD659;" d="M141.219,462.756c6.632-52.189,32.007-55.512,32.007-55.512l29.582,29.582    c0,0-3.313,25.385-55.511,32.009C143.777,469.283,140.772,466.277,141.219,462.756z"/>
		<path style="fill:#484B63;" d="M191.728,418.329c-2.93-2.928-7.678-2.928-10.607,0l-14.551,14.551    c-2.929,2.93-2.929,7.678,0,10.607c1.465,1.464,3.385,2.196,5.304,2.196s3.839-0.732,5.304-2.196l14.551-14.551    C194.656,426.007,194.656,421.259,191.728,418.329z"/>
		<path style="fill:#FF2C5C;" d="M204.686,441.895l-36.524-36.524c-1.968-1.968-1.968-5.16,0-7.128l295.816-295.818    c5.826-5.826,15.272-5.826,21.098,0l22.554,22.554c5.826,5.826,5.826,15.272,0,21.098L211.814,441.895    C209.846,443.864,206.654,443.864,204.686,441.895z"/>
		<path style="fill:#E62753;" d="M507.63,124.979l-21.826-21.826c5.826,5.826,5.826,15.272,0,21.098L189.988,420.069    c-1.968,1.968-5.16,1.968-7.128,0l21.826,21.826c1.968,1.968,5.16,1.968,7.128,0L507.63,146.077    C513.457,140.251,513.457,130.805,507.63,124.979z"/>
		<path style="fill:#4FC6F5;" d="M204.686,441.895l-36.524-36.524c-1.968-1.968-1.968-5.16,0-7.128l18.262-18.262l43.652,43.652    l-18.262,18.262C209.846,443.864,206.654,443.864,204.686,441.895z"/>
		<path style="fill:#3BB3E3;" d="M208.25,401.807l-18.262,18.262c-1.968,1.968-5.16,1.968-7.128,0l21.826,21.826    c1.968,1.968,5.16,1.968,7.128,0l18.262-18.262L208.25,401.807z"/>
		
			<rect x="436.692" y="127.063" transform="matrix(0.7071 -0.7071 0.7071 0.7071 20.7508 365.9563)" style="fill:#4FC6F5;" width="30.867" height="61.734"/>
		
			<rect x="447.605" y="153.41" transform="matrix(0.7071 -0.7071 0.7071 0.7071 16.2304 376.8694)" style="fill:#3BB3E3;" width="30.867" height="30.867"/>
	</g>
	<path style="fill:#4FC6F5;" d="M482.217,475.429H359.441c-7.061,0-12.785-5.724-12.785-12.785v-46.543   c0-7.061,5.724-12.785,12.785-12.785h122.777c7.061,0,12.785,5.724,12.785,12.785v46.543   C495.002,469.705,489.278,475.429,482.217,475.429z"/>
	<path style="fill:#FF2C5C;" d="M482.217,475.429h-49.457v-72.113h49.457c7.061,0,12.785,5.724,12.785,12.785v46.543   C495.002,469.705,489.278,475.429,482.217,475.429z"/>
	<path style="fill:#E62753;" d="M482.217,403.316h-30.905c7.061,0,12.785,5.724,12.785,12.785v46.543   c0,7.061-5.724,12.785-12.785,12.785h30.905c7.061,0,12.785-5.724,12.785-12.785v-46.543   C495.002,409.04,489.278,403.316,482.217,403.316z"/>
	<rect x="401.855" y="403.316" style="fill:#B5FCFF;" width="30.905" height="72.113"/>
	<path style="fill:#B5FCFF;" d="M103.141,220.728c-32.133-32.133-32.133-84.418,0-116.552s84.418-32.133,116.552,0   s32.133,84.418,0,116.552S135.275,252.861,103.141,220.728z"/>
	<path style="fill:#71F6FC;" d="M219.693,104.176c-3.735-3.735-7.752-7.018-11.969-9.884c21.796,32.057,18.514,76.185-9.884,104.583   s-72.526,31.68-104.583,9.884c2.867,4.217,6.149,8.234,9.884,11.969c32.134,32.134,84.418,32.133,116.552,0   C251.826,188.594,251.827,136.31,219.693,104.176z"/>
	<path style="fill:#484B63;" d="M224.996,98.872c-35.057-35.057-92.1-35.057-127.158,0c-16.957,16.958-26.297,39.538-26.297,63.58   s9.34,46.621,26.297,63.579c16.958,16.957,39.537,26.297,63.579,26.297s46.622-9.34,63.58-26.297   C260.054,190.974,260.054,133.931,224.996,98.872z M214.39,215.424c-14.124,14.125-32.938,21.904-52.973,21.904   s-38.848-7.779-52.972-21.904C94.32,201.3,86.541,182.487,86.541,162.452s7.779-38.849,21.904-52.973   c14.605-14.606,33.785-21.907,52.972-21.907c19.182,0,38.37,7.305,52.973,21.906C243.599,138.688,243.599,186.216,214.39,215.424z"/>
</g>















</svg>
