<svg height="512pt" viewBox="0 -86 512 512" width="512pt" xmlns="http://www.w3.org/2000/svg"><path d="m430 336.070312-18-16-18 16-23.703125-21.070312h-54.296875v-90h153.519531l42 45-42 45h-15.816406zm0 0" fill="#80c9ff"/><g fill="#4db2ff"><path d="m316 315h54.296875l23.703125 21.070312 18-16 18 16 23.703125-21.070312h15.816406l42-45h-195.519531zm0 0"/><path d="m95 155h70v30h-70zm0 0"/><path d="m227 285h-77v-230h77v30h-47v170h47zm0 0"/><path d="m150 170v115h77v-30h-47v-85zm0 0"/></g><path d="m227 270h-62v-200h62v15h-47v170h47zm0 0" fill="#266cb2"/><path d="m150 185h-55v-15h70zm0 0" fill="#266cb2"/><path d="m442 140c-38.597656 0-70-31.402344-70-70s31.402344-70 70-70 70 31.402344 70 70-31.402344 70-70 70zm0 0" fill="#ffe2ba"/><path d="m442 140c38.597656 0 70-31.402344 70-70h-140c0 38.597656 31.402344 70 70 70zm0 0" fill="#ffc474"/><path d="m362 140c-38.597656 0-70-31.402344-70-70s31.402344-70 70-70 70 31.402344 70 70-31.402344 70-70 70zm0 0" fill="#ffc474"/><path d="m362 140c38.597656 0 70-31.402344 70-70h-140c0 38.597656 31.402344 70 70 70zm0 0" fill="#ffb742"/><path d="m110 235h-110v-130h110zm0 0" fill="#ff6e84"/><path d="m0 170h110v65h-110zm0 0" fill="#fe3b7f"/><path d="m282 140c-38.597656 0-70-31.402344-70-70s31.402344-70 70-70 70 31.402344 70 70-31.402344 70-70 70zm0 0" fill="#ffe2ba"/><path d="m282 140c38.597656 0 70-31.402344 70-70h-140c0 38.597656 31.402344 70 70 70zm0 0" fill="#ffc474"/><path d="m282 340c-38.597656 0-70-31.402344-70-70s31.402344-70 70-70 70 31.402344 70 70-31.402344 70-70 70zm0 0" fill="#ccf0ff"/><path d="m212 270c0 38.597656 31.402344 70 70 70s70-31.402344 70-70zm0 0" fill="#80c9ff"/></svg>