<svg height="480pt" viewBox="-28 0 480 480" width="480pt" xmlns="http://www.w3.org/2000/svg"><path d="m312 8h-288c-8.800781 0-16 7.199219-16 16v432c0 8.800781 7.199219 16 16 16h240l64-64v-384c0-8.800781-7.199219-16-16-16zm0 0" fill="#e2c8ac"/><path d="m280 408c-8.800781 0-16 7.199219-16 16v48l64-64zm0 0" fill="#ceb195"/><path d="m400 304h-48l-24 24-24-24h-48c-8.800781 0-16-7.199219-16-16v-144c0-8.800781 7.199219-16 16-16h144c8.800781 0 16 7.199219 16 16v144c0 8.800781-7.199219 16-16 16zm0 0" fill="#5da364"/><g fill="#ceb195"><path d="m120 40h96v16h-96zm0 0"/><path d="m40 80h24v16h-24zm0 0"/><path d="m80 80h216v16h-216zm0 0"/><path d="m40 128h24v16h-24zm0 0"/><path d="m80 128h128v16h-128zm0 0"/><path d="m40 176h24v16h-24zm0 0"/><path d="m80 176h128v16h-128zm0 0"/><path d="m40 224h24v16h-24zm0 0"/><path d="m80 224h128v16h-128zm0 0"/><path d="m40 272h24v16h-24zm0 0"/><path d="m80 272h128v16h-128zm0 0"/><path d="m40 320h24v16h-24zm0 0"/><path d="m80 320h128v16h-128zm0 0"/><path d="m40 368h24v16h-24zm0 0"/><path d="m80 368h216v16h-216zm0 0"/><path d="m40 416h24v16h-24zm0 0"/><path d="m80 416h152v16h-152zm0 0"/></g><path d="m360 216h-16v-32c0-8.800781-7.199219-16-16-16s-16 7.199219-16 16h-16c0-17.601562 14.398438-32 32-32s32 14.398438 32 32zm0 0" fill="#3a6289"/><path d="m304 208h48c8.800781 0 16 7.199219 16 16v32c0 8.800781-7.199219 16-16 16h-48c-8.800781 0-16-7.199219-16-16v-32c0-8.800781 7.199219-16 16-16zm0 0" fill="#2b4a66"/><path d="m400 120h-64v-96c0-13.601562-10.398438-24-24-24h-288c-13.601562 0-24 10.398438-24 24v432c0 13.601562 10.398438 24 24 24h243.199219l68.800781-68.800781v-51.199219h-16v40h-40c-13.601562 0-24 10.398438-24 24v40h-232c-4.800781 0-8-3.199219-8-8v-432c0-4.800781 3.199219-8 8-8h288c4.800781 0 8 3.199219 8 8v96h-64c-13.601562 0-24 10.398438-24 24v144c0 13.601562 10.398438 24 24 24h44.800781l27.199219 27.199219 27.199219-27.199219h44.800781c13.601562 0 24-10.398438 24-24v-144c0-13.601562-10.398438-24-24-24zm-120 296h28.800781l-36.800781 36.800781v-28.800781c0-4.800781 3.199219-8 8-8zm128-128c0 4.800781-3.199219 8-8 8h-51.199219l-20.800781 20.800781-20.800781-20.800781h-51.199219c-4.800781 0-8-3.199219-8-8v-144c0-4.800781 3.199219-8 8-8h144c4.800781 0 8 3.199219 8 8zm0 0"/><path d="m120 40h96v16h-96zm0 0"/><path d="m40 80h24v16h-24zm0 0"/><path d="m80 80h216v16h-216zm0 0"/><path d="m40 128h24v16h-24zm0 0"/><path d="m80 128h128v16h-128zm0 0"/><path d="m40 176h24v16h-24zm0 0"/><path d="m80 176h128v16h-128zm0 0"/><path d="m40 224h24v16h-24zm0 0"/><path d="m80 224h128v16h-128zm0 0"/><path d="m40 272h24v16h-24zm0 0"/><path d="m80 272h128v16h-128zm0 0"/><path d="m40 320h24v16h-24zm0 0"/><path d="m80 320h128v16h-128zm0 0"/><path d="m40 368h24v16h-24zm0 0"/><path d="m80 368h216v16h-216zm0 0"/><path d="m40 416h24v16h-24zm0 0"/><path d="m80 416h152v16h-152zm0 0"/><path d="m360 201.601562v-17.601562c0-17.601562-14.398438-32-32-32s-32 14.398438-32 32h16c0-8.800781 7.199219-16 16-16s16 7.199219 16 16v16h-40c-13.601562 0-24 10.398438-24 24v32c0 13.601562 10.398438 24 24 24h48c13.601562 0 24-10.398438 24-24v-32c0-10.398438-6.398438-19.199219-16-22.398438zm0 54.398438c0 4.800781-3.199219 8-8 8h-48c-4.800781 0-8-3.199219-8-8v-32c0-4.800781 3.199219-8 8-8h48c4.800781 0 8 3.199219 8 8zm0 0"/></svg>