<?xml version="1.0" encoding="iso-8859-1"?>
<!-- Generator: Adobe Illustrator 19.0.0, SVG Export Plug-In . SVG Version: 6.00 Build 0)  -->
<svg version="1.1" id="Capa_1" xmlns="http://www.w3.org/2000/svg" xmlns:xlink="http://www.w3.org/1999/xlink" x="0px" y="0px"
	 viewBox="0 0 512 512" style="enable-background:new 0 0 512 512;" xml:space="preserve">
<linearGradient id="SVGID_1_" gradientUnits="userSpaceOnUse" x1="256" y1="514" x2="256" y2="2" gradientTransform="matrix(1 0 0 -1 0 514)">
	<stop  offset="0" style="stop-color:#2AF598"/>
	<stop  offset="1" style="stop-color:#009EFD"/>
</linearGradient>
<path style="fill:url(#SVGID_1_);" d="M452,512H313v-40h139c11.028,0,20-8.972,20-20V317h40v135C512,485.084,485.084,512,452,512z
	 M512,60c0-33.084-26.916-60-60-60H313v40h139c11.028,0,20,8.972,20,20v137h40V60z M512,237H364.284l53.858-53.858l-28.284-28.284
	L287.795,256.92l101.983,103.142l28.443-28.124L363.901,277H512V237z M199,472H60c-11.028,0-20-8.972-20-20V317H0v135
	c0,33.084,26.916,60,60,60h139V472z M40,60c0-11.028,8.972-20,20-20h139V0H60C26.916,0,0,26.916,0,60v137h40V60z M122.142,154.858
	l-28.284,28.284L147.716,237H0v40h148.099l-54.321,54.938l28.443,28.124L224.205,256.92L122.142,154.858z"/>
<g>
</g>
<g>
</g>
<g>
</g>
<g>
</g>
<g>
</g>
<g>
</g>
<g>
</g>
<g>
</g>
<g>
</g>
<g>
</g>
<g>
</g>
<g>
</g>
<g>
</g>
<g>
</g>
<g>
</g>
</svg>
