<svg id="Layer_5" enable-background="new 0 0 64 64" height="512" viewBox="0 0 64 64" width="512" xmlns="http://www.w3.org/2000/svg"><g><g><g><path d="m32 62c-2.92 0-5.65-.29-8-.8v-8-8-8.01c-4.78-1.04-8-2.97-8-5.19 0-2.03 2.69-3.82 6.79-4.9l5.21 5.9v12l7 4h1v-16l5.21-5.9c4.1 1.08 6.79 2.87 6.79 4.9 0 2.22-3.22 4.15-8 5.19v8.01 8 8c-2.35.51-5.08.8-8 .8z" fill="#ffeaa7"/></g><g><path d="m16 40c0 2.22 3.22 4.16 8 5.2v8c-4.78-1.04-8-2.98-8-5.2v-2-4z" fill="#ffc729"/></g><g><path d="m48 46v2c0 2.22-3.22 4.16-8 5.2v-8c4.78-1.04 8-2.98 8-5.2v2z" fill="#ffc729"/></g><g><path d="m24 53.2v8c-4.78-1.04-8-2.98-8-5.2v-8c0 2.22 3.22 4.16 8 5.2z" fill="#fcd770"/></g><g><path d="m48 48v8c0 2.22-3.22 4.16-8 5.2v-8c4.78-1.04 8-2.98 8-5.2z" fill="#fcd770"/></g><g><path d="m24 37.19v8.01c-4.78-1.04-8-2.98-8-5.2v-8c0 2.22 3.22 4.15 8 5.19z" fill="#fcd770"/></g><g><path d="m48 32v8c0 2.22-3.22 4.16-8 5.2v-8.01c4.78-1.04 8-2.97 8-5.19z" fill="#fcd770"/></g><g><path d="m13 16 9.79 11.1 5.21 5.9v12l7 4h1v-16l5.21-5.9 9.79-11.1z" fill="#ccd1d9"/></g><g><path d="m51 12v4h-38v-4h7 6 6 6 6z" fill="#aab2bd"/></g><g><path d="m38 6h6v6h-6z" fill="#b4dd7f"/></g><g><path d="m38 6v6h-6v-4-6h6z" fill="#b4dd7f"/></g><g><path d="m26 8h6v4h-6z" fill="#b4dd7f"/></g><g><path d="m26 8v4h-6v-8h6z" fill="#b4dd7f"/></g><g><path d="m6 50h4v12h-8v-12z" fill="#f0d0b4"/></g><g><path d="m2 26h8v12h-4-4z" fill="#f0d0b4"/></g><g><path d="m54 26h8v12h-4-4z" fill="#f0d0b4"/></g><g><path d="m58 50h4v12h-8v-12z" fill="#f0d0b4"/></g></g><g><path d="m57 57h2v2h-2z"/><path d="m57 53h2v2h-2z"/><path d="m57 33h2v2h-2z"/><path d="m57 29h2v2h-2z"/><path d="m56 43c1.654 0 3-1.346 3-3v-1h4v-14h-10v14h4v1c0 .552-.449 1-1 1h-7v-9c0-2.187-2.171-4.117-6.011-5.41l9.011-10.212v-5.378h-7v-6h-6v-4h-8v6h-4v-4h-8v8h-7v5.378l9.011 10.212c-3.84 1.293-6.011 3.223-6.011 5.41v9h-7c-.551 0-1-.448-1-1v-1h4v-14h-10v14h4v1c0 1.654 1.346 3 3 3h7v2h-7c-1.654 0-3 1.346-3 3v1h-4v14h10v-14h-4v-1c0-.552.449-1 1-1h7v9c0 4.547 8.759 7 17 7s17-2.453 17-7v-9h7c.551 0 1 .448 1 1v1h-4v14h10v-14h-4v-1c0-1.654-1.346-3-3-3h-7v-2zm-1-6v-10h6v10zm-52 0v-10h6v10zm6 14v10h-6v-10zm30-44h4v4h-4zm-6-4h4v8h-4zm-6 6h4v2h-4zm-6-4h4v6h-4zm-7 8h36v2h-36zm1.216 4h33.568l-13.235 15h-7.098zm19.784 17v13.849l-6-3.429v-10.42zm-12 25.91c-3.689-.987-6-2.496-6-3.91v-4.578c1.363 1.051 3.393 1.93 6 2.568zm0-7.985c-4.128-1.095-6-2.716-6-3.925v-4.578c1.363 1.051 3.393 1.93 6 2.568zm0-8c-4.128-1.095-6-2.716-6-3.925v-4.581c1.364 1.049 3.393 1.928 6 2.566zm24 12.075c0 1.413-2.311 2.923-6 3.91v-5.92c2.607-.638 4.637-1.516 6-2.568zm0-8c0 1.209-1.872 2.83-6 3.925v-5.935c2.607-.639 4.637-1.517 6-2.568zm0-8c0 1.209-1.872 2.83-6 3.925v-5.94c2.607-.638 4.636-1.517 6-2.566zm-7.212-3.787-.788.172v23.981c-2.066.394-4.432.634-7 .634s-4.934-.24-7-.634v-23.981l-.788-.172c-4.982-1.082-7.212-2.896-7.212-4.213 0-1.339 2.134-2.785 5.465-3.762l4.535 5.14v12.202l7.734 4.42h2.266v-16.622l4.535-5.14c3.331.977 5.465 2.423 5.465 3.762 0 1.317-2.23 3.131-7.212 4.213zm21.212 14.787v10h-6v-10z"/><path d="m5 53h2v2h-2z"/><path d="m5 57h2v2h-2z"/><path d="m5 33h2v2h-2z"/><path d="m5 29h2v2h-2z"/><path d="m33 21h2v2h-2z"/><path d="m29 21h2v2h-2z"/><path d="m37 21h2v2h-2z"/><path d="m25 21h2v2h-2z"/><path d="m27 57h2v2h-2z"/><path d="m27 53h2v2h-2z"/><path d="m27 49h2v2h-2z"/></g></g></svg>