<?xml version="1.0"?>
<svg xmlns="http://www.w3.org/2000/svg" viewBox="0 0 64 64" width="512" height="512"><g id="Digital_signature" data-name="Digital signature"><rect x="3" y="3" width="34" height="58" rx="4" style="fill:#3d9ae2"/><path d="M33,8V56a1,1,0,0,1-1,1H8a1,1,0,0,1-1-1V8A1,1,0,0,1,8,7h4a2.006,2.006,0,0,0,2,2H26a2.006,2.006,0,0,0,2-2h4A1,1,0,0,1,33,8Z" style="fill:#d1e7f8"/><path d="M25.6,48.43,32.2,43l2.31-4H30a2.974,2.974,0,0,1-1.98-.76L27,40Z" style="fill:#ffcd00"/><path d="M41,33a2.012,2.012,0,0,0,1.992-2.177A2.075,2.075,0,0,0,40.888,29H40.28l-2.31,4Z" style="fill:#ff9478"/><path d="M37.97,21H35.051a7,7,0,0,0-6.069,3.512L22.8,35.27A2,2,0,0,0,23.54,38a3.973,3.973,0,0,0,4.14-.1A3.022,3.022,0,0,1,27,36.03,3.162,3.162,0,0,1,30.184,33h.856L35,26.14Z" style="fill:#ffbcab"/><rect x="11" y="13" width="8" height="8" style="fill:none"/><polygon points="49.2 13.56 44 10.56 37.97 21 35 26.14 31.04 33 37.97 33 40.28 29 44.9 21 49.2 13.56" style="fill:#ffcd00"/><path d="M46.5,6.225,44,10.555l5.2,3,2.5-4.33a3,3,0,0,0-5.2-3Z" style="fill:#a7a9ac"/><rect x="11" y="13" width="8" height="8" style="fill:#ff9811"/><path d="M44.9,21h2.29A6,6,0,0,1,51.8,23.159l1.4,1.682A6,6,0,0,0,57.81,27H61V41H49.889a7.994,7.994,0,0,1-3.578-.845l-.622-.31A7.994,7.994,0,0,0,42.111,39H30a2.974,2.974,0,0,1-1.98-.76.806.806,0,0,1-.14-.12,2.089,2.089,0,0,1-.2-.22A3.022,3.022,0,0,1,27,36.03,3.162,3.162,0,0,1,30.184,33H41a2.012,2.012,0,0,0,1.992-2.177A2.075,2.075,0,0,0,40.888,29H40.28Z" style="fill:#ffbcab"/><path d="M7,33V56a1,1,0,0,0,1,1H31A23.986,23.986,0,0,1,7,33Z" style="fill:#9bc9ff"/><path d="M61,40H49.889a7.031,7.031,0,0,1-3.131-.739l-.622-.311A9.05,9.05,0,0,0,42.111,38H30a1.989,1.989,0,0,1-1.316-.508,2.1,2.1,0,0,1-.226-.221A2.013,2.013,0,0,1,28,36.02a1.879,1.879,0,0,1,.576-1.335A2.286,2.286,0,0,1,30.184,34H41a2.928,2.928,0,0,0,2.108-.874,2.966,2.966,0,0,0,.881-2.387,3.017,3.017,0,0,0-2.078-2.562L45.48,22h1.71a4.988,4.988,0,0,1,3.841,1.8l1.4,1.682A6.98,6.98,0,0,0,57.81,28H61a1,1,0,0,0,0-2H57.81a4.988,4.988,0,0,1-3.841-1.8l-1.4-1.682A6.98,6.98,0,0,0,47.19,20h-.555L52.562,9.725a4,4,0,0,0-6.928-4L38,18.95V7a5.006,5.006,0,0,0-5-5H7A5.006,5.006,0,0,0,2,7V57a5.006,5.006,0,0,0,5,5H33a5.006,5.006,0,0,0,5-5V40h4.111a7.031,7.031,0,0,1,3.131.739l.622.311a9.05,9.05,0,0,0,4.025.95H61a1,1,0,0,0,0-2ZM32,20.609a8.016,8.016,0,0,0-3.886,3.4l-6.18,10.755a3,3,0,0,0,1.105,4.1,4.951,4.951,0,0,0,2.485.67,4.864,4.864,0,0,0,.615-.044l0,.008a.967.967,0,0,0-.121.337l-1.4,8.431a1,1,0,0,0,1.621.936L32,44.46V56H8V8h3.171A3.006,3.006,0,0,0,14,10H26a3.006,3.006,0,0,0,2.829-2H32ZM32.777,40l-1.352,2.343-4.4,3.621.934-5.62.413-.714A3.935,3.935,0,0,0,30,40Zm-5.622-6.722A3.862,3.862,0,0,0,26,36.04a4.021,4.021,0,0,0,.27,1.383,2.951,2.951,0,0,1-2.233-.291,1,1,0,0,1-.37-1.364L29.849,25.01a6.014,6.014,0,0,1,5.2-3.01h1.187L30.462,32h-.278A4.3,4.3,0,0,0,27.155,33.278ZM40.888,30A1.082,1.082,0,0,1,42,30.907a.976.976,0,0,1-.3.8A.957.957,0,0,1,41,32H39.7l1.155-2Zm-3.495,2h-4.62L44.366,11.926l3.467,2ZM47.366,6.725a2,2,0,0,1,3.464,2l-2,3.464-3.464-2ZM36,57a3,3,0,0,1-3,3H7a3,3,0,0,1-3-3V7A3,3,0,0,1,7,4H33a3,3,0,0,1,3,3V20h-.949A7.974,7.974,0,0,0,34,20.07V8a2,2,0,0,0-2-2H28a1,1,0,0,0-1,1,1,1,0,0,1-1,1H14a1,1,0,0,1-1-1,1,1,0,0,0-1-1H8A2,2,0,0,0,6,8V56a2,2,0,0,0,2,2H32a2,2,0,0,0,2-2V42a.838.838,0,0,0-.018-.087L35.087,40H36Z"/><path d="M20.084,49.742l-1.214.809a3.493,3.493,0,0,0-6.453-2.622l-2.312,4.624a1,1,0,0,0,1.79.894l2.312-4.624a1.493,1.493,0,0,1,2.752,1.138l-.908,2.723a1,1,0,0,0,1.5,1.148l3.638-2.426a1,1,0,0,1,1.525.59l.312,1.247A1,1,0,0,0,24,54h5a1,1,0,0,0,0-2H24.781l-.122-.489a3,3,0,0,0-4.575-1.769Z"/><path d="M11,22h8a1,1,0,0,0,1-1V13a1,1,0,0,0-1-1H11a1,1,0,0,0-1,1v8A1,1,0,0,0,11,22Zm1-8h6v6H12Z"/><path d="M22,13a1,1,0,0,0,1,1h6a1,1,0,0,0,0-2H23A1,1,0,0,0,22,13Z"/><path d="M29,16H23a1,1,0,0,0,0,2h6a1,1,0,0,0,0-2Z"/><path d="M27,20H23a1,1,0,0,0,0,2h4a1,1,0,0,0,0-2Z"/><path d="M22,26H11a1,1,0,0,0,0,2H22a1,1,0,0,0,0-2Z"/><path d="M11,32h8a1,1,0,0,0,0-2H11a1,1,0,0,0,0,2Z"/><path d="M11,36h8a1,1,0,0,0,0-2H11a1,1,0,0,0,0,2Z"/><path d="M11,40h8a1,1,0,0,0,0-2H11a1,1,0,0,0,0,2Z"/></g></svg>
