<?xml version="1.0" encoding="iso-8859-1"?>
<!-- Generator: Adobe Illustrator 16.0.0, SVG Export Plug-In . SVG Version: 6.00 Build 0)  -->
<!DOCTYPE svg PUBLIC "-//W3C//DTD SVG 1.1//EN" "http://www.w3.org/Graphics/SVG/1.1/DTD/svg11.dtd">
<svg version="1.1" id="Capa_1" xmlns="http://www.w3.org/2000/svg" xmlns:xlink="http://www.w3.org/1999/xlink" x="0px" y="0px"
	 width="317.629px" height="317.629px" viewBox="0 0 317.629 317.629" style="enable-background:new 0 0 317.629 317.629;"
	 xml:space="preserve">
<g>
	<g>
		<polygon points="53.314,247.852 81.707,247.852 93.841,231.651 65.441,231.651 		"/>
		<polygon points="0,247.852 26.335,247.852 38.464,231.651 16.2,231.651 16.2,222.887 0,211.718 		"/>
		<polygon points="16.2,120.861 0,109.689 0,134.675 0.103,134.53 16.2,145.631 		"/>
		<polygon points="317.629,133.077 301.43,121.905 301.43,146.675 317.629,157.844 		"/>
		<polygon points="192.459,247.852 204.593,231.651 176.196,231.651 164.067,247.852 		"/>
		<polygon points="108.691,247.852 137.083,247.852 149.217,231.651 120.82,231.651 		"/>
		<polygon points="0,69.777 0,83.663 0.103,83.515 16.2,94.618 16.2,85.978 31.638,85.978 43.772,69.777 		"/>
		<polygon points="247.841,247.852 259.97,231.651 231.573,231.651 219.444,247.852 		"/>
		<polygon points="209.893,69.777 181.501,69.777 169.373,85.978 197.77,85.978 		"/>
		<polygon points="317.629,235.105 301.43,223.931 301.43,231.651 286.949,231.651 274.82,247.852 317.629,247.852 		"/>
		<polygon points="265.275,69.777 236.883,69.777 224.744,85.978 253.146,85.978 		"/>
		<polygon points="126.127,69.777 113.999,85.978 142.391,85.978 154.525,69.777 		"/>
		<polygon points="70.751,69.777 58.623,85.978 87.014,85.978 99.149,69.777 		"/>
		<polygon points="0,185.688 0.103,185.54 16.2,196.646 16.2,171.877 0,160.702 		"/>
		<polygon points="317.629,69.777 292.254,69.777 280.125,85.978 301.43,85.978 301.43,95.66 317.629,106.834 		"/>
		<polygon points="317.629,184.09 301.43,172.916 301.43,197.69 317.629,208.859 		"/>
	</g>
</g>
<g>
</g>
<g>
</g>
<g>
</g>
<g>
</g>
<g>
</g>
<g>
</g>
<g>
</g>
<g>
</g>
<g>
</g>
<g>
</g>
<g>
</g>
<g>
</g>
<g>
</g>
<g>
</g>
<g>
</g>
</svg>
