<svg height="512" viewBox="0 0 192 192" width="512" xmlns="http://www.w3.org/2000/svg" xmlns:xlink="http://www.w3.org/1999/xlink"><linearGradient id="New_Gradient_Swatch_1" gradientUnits="userSpaceOnUse" x1="47.244" x2="80.756" y1="42.268" y2="8.756"><stop offset="0" stop-color="#34cdfa"/><stop offset="1" stop-color="#e8d9f1"/></linearGradient><linearGradient id="New_Gradient_Swatch_1-2" x1="111.244" x2="144.756" xlink:href="#New_Gradient_Swatch_1" y1="42.268" y2="8.756"/><path d="m104 120h-16a8 8 0 0 0 -8 8v56a8 8 0 0 0 13.657 5.657l16-16a8 8 0 0 0 2.343-5.657v-40a8 8 0 0 0 -8-8z" fill="#99e6fd"/><path d="m96 184v-56a8 8 0 0 1 8-8h-16a8 8 0 0 0 -8 8v56a8 8 0 0 0 13.657 5.657l2.867-2.867a7.944 7.944 0 0 1 -.524-2.79z" fill="#67d9fb"/><rect fill="#e6f9fe" height="32" rx="8" width="112" x="40" y="56"/><path d="m56 80v-16a8 8 0 0 1 8-8h-16a8 8 0 0 0 -8 8v16a8 8 0 0 0 8 8h16a8 8 0 0 1 -8-8z" fill="#ccf2fe"/><path d="m40.019 80a7.982 7.982 0 0 0 2.324 5.657l37.657 42.343h32l37.657-42.343a7.982 7.982 0 0 0 2.324-5.657z" fill="#ccf2fe"/><path d="m56.019 80h-16a7.982 7.982 0 0 0 2.324 5.657l37.657 42.343h16l-37.657-42.343a7.982 7.982 0 0 1 -2.324-5.657z" fill="#99e6fd"/><path d="m72 24.566v-24.566h-16v24.566l-11.76-7.35-8.48 13.568 24 15a8.069 8.069 0 0 0 8.48 0l24-15-8.48-13.568z" fill="url(#New_Gradient_Swatch_1)"/><path d="m147.76 17.216-11.76 7.35v-24.566h-16v24.566l-11.76-7.35-8.48 13.568 24 15a8.069 8.069 0 0 0 8.48 0l24-15z" fill="url(#New_Gradient_Swatch_1-2)"/></svg>