<svg height="483pt" viewBox="-65 0 483 483.104" width="483pt" xmlns="http://www.w3.org/2000/svg"><path d="m296.050781 72-64-64v64zm0 0" fill="#ff7956"/><path d="m296.050781 176v-104h-64v-64h-176v241.425781c39.152344 10.292969 79.523438 15.199219 120 14.574219 40.476563.625 80.851563-4.28125 120-14.574219zm0 0" fill="#ffdaaa"/><path d="m8.050781 216c0 10.472656 11.898438 20.136719 31.855469 28 4.867188 1.929688 10.402344 3.695312 16.144531 5.390625v-66.910156c-29.679687 8.558593-48 20.398437-48 33.519531zm0 0" fill="#006df0"/><path d="m296.050781 182.480469v66.945312c5.777344-1.699219 11.28125-3.464843 16.144531-5.394531 19.960938-7.894531 31.855469-17.558594 31.855469-28.03125 0-13.121094-18.320312-24.960938-48-33.519531zm0 0" fill="#006df0"/><path d="m56.050781 32v232h208c-114.964843 0-208-103.769531-208-232zm0 0" fill="#ffc477"/><path d="m39.90625 244 105.464844 136.472656c4.332031 5.605469 6.683594 12.492188 6.679687 19.574219v69.074219l48-16v-53.074219c0-7.082031 2.347657-13.96875 6.679688-19.574219l105.464843-136.472656c-30.542968 12.105469-80.046874 20-136.144531 20-56.09375 0-105.597656-7.894531-136.144531-20zm0 0" fill="#006df0"/><g fill="#231f20"><path d="m96.050781 128h160v16h-160zm0 0"/><path d="m96.050781 160h160v16h-160zm0 0"/><path d="m96.050781 192h160v16h-160zm0 0"/><path d="m96.050781 64h96v16h-96zm0 0"/><path d="m96.050781 96h160v16h-160zm0 0"/><path d="m352.050781 216c0-15.832031-16.695312-29.34375-48-39.351562v-107.960938l-68.6875-68.6875h-187.3125v176.648438c-31.304687 10.007812-47.9999998 23.519531-47.9999998 39.351562 0 13.601562 12.0898438 24.742188 31.7070308 33.457031l107.285157 138.789063c3.234375 4.210937 4.996093 9.367187 5.007812 14.675781v80.183594l64-21.335938v-58.847656c.015625-5.308594 1.773438-10.464844 5.007813-14.675781l107.289062-138.789063c19.617188-8.714843 31.703125-19.855469 31.703125-33.457031zm-112-188.6875 36.6875 36.6875h-36.6875zm-39.648437 351.199219c-5.390625 6.996093-8.324219 15.574219-8.351563 24.410156v47.308594l-32 10.664062v-57.972656c-.015625-8.847656-2.953125-17.441406-8.351562-24.449219l-92.445313-119.609375c38.238282 9.1875 77.472656 13.601563 116.796875 13.136719 39.359375.464844 78.621094-3.953125 116.890625-13.152344zm-24.351563-122.511719c-97.671875 0-160-23.6875-160-40 0-5.550781 8.617188-14.398438 32-22.585938v38.585938h16v-216h160v64h64v152h16v-38.585938c23.386719 8.1875 32 17.035157 32 22.585938 0 16.3125-62.328125 40-160 40zm0 0"/></g></svg>