<?xml version="1.0" encoding="iso-8859-1"?>
<!-- Generator: Adobe Illustrator 19.0.0, SVG Export Plug-In . SVG Version: 6.00 Build 0)  -->
<svg version="1.1" id="Layer_1" xmlns="http://www.w3.org/2000/svg" xmlns:xlink="http://www.w3.org/1999/xlink" x="0px" y="0px"
	 viewBox="0 0 297 297" style="enable-background:new 0 0 297 297;" xml:space="preserve">
<g>
	<g>
		<g>
			<g>
				<circle style="fill:#345065;" cx="148.5" cy="148.5" r="148.5"/>
			</g>
		</g>
	</g>
	<path style="fill:#243F4F;" d="M294.374,120.611l-50.786-50.785L53.879,177.968l117.309,117.309
		C242.433,284.354,297,222.8,297,148.5C297,138.966,296.091,129.645,294.374,120.611z"/>
	<g>
		<path style="fill:#ECF0F1;" d="M234.758,181.5H62.242C55.481,181.5,50,176.019,50,169.258V78.242C50,71.481,55.481,66,62.242,66
			h172.517C241.519,66,247,71.481,247,78.242v91.017C247,176.019,241.519,181.5,234.758,181.5z"/>
	</g>
	<g>
		<path style="fill:#D0D5D9;" d="M234.758,66h-86.091v115.5h86.091c6.761,0,12.242-5.481,12.242-12.242V78.242
			C247,71.481,241.519,66,234.758,66z"/>
	</g>
	<g>
		<g>
			<rect x="66" y="78.75" style="fill:#32373B;" width="6.633" height="90"/>
		</g>
		<g>
			<rect x="224.367" y="78.75" style="fill:#32373B;" width="6.633" height="90"/>
		</g>
		<g>
			<rect x="78.437" y="78.75" style="fill:#32373B;" width="6.633" height="61.5"/>
		</g>
		<g>
			<rect x="108.286" y="78.75" style="fill:#32373B;" width="6.633" height="61.5"/>
		</g>
		<g>
			<rect x="126.528" y="78.75" style="fill:#32373B;" width="6.633" height="61.5"/>
		</g>
		<g>
			<rect x="90.045" y="78.75" style="fill:#32373B;" width="6.633" height="61.5"/>
		</g>
		<g>
			<rect x="144.769" y="78.75" style="fill:#32373B;" width="6.633" height="61.5"/>
		</g>
		<g>
			<rect x="181.251" y="78.75" style="fill:#32373B;" width="6.633" height="61.5"/>
		</g>
		<g>
			<rect x="169.643" y="78.75" style="fill:#32373B;" width="6.633" height="61.5"/>
		</g>
		<g>
			<rect x="158.367" y="78.75" style="fill:#32373B;" width="6.633" height="61.5"/>
		</g>
		<g>
			<rect x="199.492" y="78.75" style="fill:#32373B;" width="6.633" height="61.5"/>
		</g>
		<g>
			<rect x="214.5" y="78.75" style="fill:#32373B;" width="6.633" height="61.5"/>
		</g>
	</g>
	<path style="fill:#3DBCE5;" d="M211.554,253.946l-46.19-46.19C172.011,199.455,176,188.937,176,177.5
		c0-26.743-21.757-48.5-48.5-48.5S79,150.757,79,177.5s21.757,48.5,48.5,48.5c9.899,0,19.111-2.987,26.794-8.099l46.653,46.653
		c1.465,1.464,3.385,2.196,5.304,2.196s3.839-0.732,5.304-2.196C214.482,261.624,214.482,256.876,211.554,253.946z M94,177.5
		c0-18.472,15.028-33.5,33.5-33.5s33.5,15.028,33.5,33.5S145.972,211,127.5,211S94,195.972,94,177.5z"/>
	<path style="fill:#0EA6CB;" d="M211.554,253.946l-46.19-46.19C172.011,199.455,176,188.937,176,177.5
		c0-19.158-11.168-35.754-27.333-43.629v17.686C156.188,157.706,161,167.051,161,177.5s-4.812,19.794-12.333,25.943v17.677
		c1.951-0.951,3.832-2.024,5.627-3.218l46.653,46.653c1.465,1.464,3.385,2.196,5.304,2.196s3.839-0.732,5.304-2.196
		C214.482,261.624,214.482,256.876,211.554,253.946z"/>
</g>
<g>
</g>
<g>
</g>
<g>
</g>
<g>
</g>
<g>
</g>
<g>
</g>
<g>
</g>
<g>
</g>
<g>
</g>
<g>
</g>
<g>
</g>
<g>
</g>
<g>
</g>
<g>
</g>
<g>
</g>
</svg>
