<svg id="Capa_1" enable-background="new 0 0 512 512" height="512" viewBox="0 0 512 512" width="512" xmlns="http://www.w3.org/2000/svg"><circle cx="256" cy="256" fill="#2789e1" r="256"/><path d="m511.125 277.14-102.643-102.643-45.84 90.401-131.232-131.231-154.854 215.543 162.198 162.198c5.702.38 11.449.592 17.246.592 134.265 0 244.375-103.367 255.125-234.86z" fill="#1d67bc"/><path d="m346.53 328.521-22.144-111.045h-74.57l-18.406-83.809h-135.331v194.854z" fill="#fcd748"/><path d="m96.079 255.905v72.616h250.451l-14.481-72.616z" fill="#fabf40"/><path d="m113.667 153.667v80.179h58.505l11.946 39.818h56.416l-24.916-119.997z" fill="#92cbf7"/><path d="m178.79 255.905 5.328 17.759h56.416l-3.687-17.759z" fill="#8abfe2"/><path d="m408.482 174.497h-94.161v71.838c0 39.675 32.163 71.838 71.838 71.838h90.03z" fill="#ec5353"/><path d="m446.845 255.905h-131.87c4.682 35.147 34.756 62.268 71.184 62.268h90.03z" fill="#d13135"/><circle cx="138.21" cy="297.77" fill="#3f3f3f" r="80.3"/><circle cx="138.21" cy="297.77" fill="#f0f0f0" r="30.11"/><g fill="#777"><path d="m138.211 217.476c-4.111 0-8.149.31-12.094.906v15.859c0 6.679 5.415 12.094 12.094 12.094 6.679 0 12.094-5.415 12.094-12.094v-15.859c-3.944-.595-7.983-.906-12.094-.906z"/><path d="m138.211 349.211c-6.679 0-12.094 5.415-12.094 12.094v15.859c3.945.596 7.983.906 12.094.906s8.149-.31 12.094-.906v-15.858c0-6.681-5.414-12.095-12.094-12.095z"/><path d="m218.508 297.773c0-4.111-.31-8.149-.906-12.094h-15.859c-6.679 0-12.094 5.415-12.094 12.094 0 6.679 5.415 12.094 12.094 12.094h15.859c.595-3.945.906-7.983.906-12.094z"/><path d="m86.773 297.773c0-6.679-5.415-12.094-12.094-12.094h-15.859c-.596 3.945-.906 7.983-.906 12.094s.31 8.149.906 12.094h15.858c6.681 0 12.095-5.415 12.095-12.094z"/><path d="m194.99 240.994c-2.907-2.907-5.982-5.543-9.193-7.911l-11.214 11.214c-4.723 4.723-4.723 12.38 0 17.103 4.723 4.723 12.38 4.723 17.103 0l11.214-11.214c-2.368-3.209-5.004-6.285-7.91-9.192z"/><path d="m101.839 334.144c-4.723-4.723-12.381-4.723-17.104 0l-11.214 11.214c2.368 3.211 5.004 6.285 7.911 9.192s5.982 5.543 9.193 7.911l11.213-11.213c4.723-4.724 4.724-12.381.001-17.104z"/><path d="m81.433 240.994c-2.907 2.907-5.543 5.982-7.911 9.193l11.214 11.214c4.723 4.723 12.38 4.723 17.103 0 4.723-4.723 4.723-12.38 0-17.103l-11.214-11.214c-3.21 2.368-6.285 5.003-9.192 7.91z"/><path d="m174.583 334.145c-4.723 4.723-4.723 12.381 0 17.104l11.214 11.214c3.211-2.368 6.286-5.004 9.192-7.911 2.907-2.907 5.543-5.982 7.911-9.193l-11.213-11.213c-4.723-4.724-12.381-4.724-17.104-.001z"/></g><circle cx="298.87" cy="319.74" fill="#303030" r="58.33"/><circle cx="298.87" cy="319.74" fill="#f0f0f0" r="21.872"/><g fill="#3f3f3f"><path d="m298.869 261.401c-2.987 0-5.92.225-8.786.659v11.521c0 4.852 3.934 8.786 8.786 8.786 4.852 0 8.786-3.934 8.786-8.786v-11.521c-2.866-.433-5.8-.659-8.786-.659z"/><path d="m298.869 357.104c-4.852 0-8.786 3.934-8.786 8.786v11.521c2.866.433 5.8.658 8.786.658 2.987 0 5.92-.225 8.786-.659v-11.52c0-4.852-3.934-8.786-8.786-8.786z"/><path d="m357.203 319.735c0-2.987-.225-5.92-.659-8.786h-11.521c-4.852 0-8.786 3.934-8.786 8.786 0 4.852 3.934 8.786 8.786 8.786h11.521c.433-2.865.659-5.799.659-8.786z"/><path d="m261.5 319.735c0-4.852-3.934-8.786-8.786-8.786h-11.521c-.433 2.866-.658 5.8-.658 8.786 0 2.987.225 5.92.658 8.786h11.521c4.852 0 8.786-3.933 8.786-8.786z"/><path d="m340.117 278.487c-2.112-2.112-4.346-4.027-6.678-5.747l-8.147 8.146c-3.431 3.431-3.431 8.994 0 12.425 3.431 3.431 8.994 3.431 12.425 0l8.147-8.147c-1.72-2.331-3.635-4.565-5.747-6.677z"/><path d="m272.445 346.158c-3.431-3.431-8.994-3.431-12.426 0l-8.147 8.146c1.72 2.332 3.636 4.566 5.747 6.678 2.112 2.112 4.346 4.027 6.678 5.747l8.146-8.146c3.433-3.431 3.433-8.994.002-12.425z"/><path d="m257.62 278.487c-2.112 2.112-4.027 4.346-5.747 6.678l8.147 8.147c3.431 3.431 8.994 3.431 12.425 0 3.431-3.431 3.431-8.994 0-12.425l-8.147-8.147c-2.332 1.72-4.566 3.635-6.678 5.747z"/><path d="m325.292 346.159c-3.431 3.431-3.431 8.994 0 12.426l8.147 8.147c2.332-1.72 4.566-3.636 6.678-5.747 2.112-2.112 4.027-4.346 5.747-6.678l-8.146-8.146c-3.431-3.433-8.994-3.433-12.426-.002z"/></g></svg>