<svg viewBox="-17 0 512 512.00001" xmlns="http://www.w3.org/2000/svg"><path d="m314.789062 28.871094v337.71875c0 11.742187-9.511718 21.257812-21.253906 21.257812h-264.695312c-11.738282 0-21.253906-9.515625-21.253906-21.257812v-337.71875c0-11.742188 9.515624-21.253906 21.253906-21.253906h264.695312c11.742188 0 21.253906 9.511718 21.253906 21.253906zm0 0" fill="#ebe1dc"/><path d="m314.789062 28.871094v320.515625h-243.4375c-11.742187 0-21.253906-9.515625-21.253906-21.257813v-320.511718h243.4375c11.742188 0 21.253906 9.511718 21.253906 21.253906zm0 0" fill="#fff5f5"/><g fill="#40c1fa"><path d="m92.871094 79.316406c0 10.578125-8.574219 19.148438-19.148438 19.148438-10.574218 0-19.148437-8.570313-19.148437-19.148438 0-10.574218 8.574219-19.148437 19.148437-19.148437 10.574219 0 19.148438 8.574219 19.148438 19.148437zm0 0"/><path d="m92.871094 158.261719c0 10.574219-8.574219 19.148437-19.148438 19.148437-10.574218 0-19.148437-8.574218-19.148437-19.148437 0-10.578125 8.574219-19.152344 19.148437-19.152344 10.574219 0 19.148438 8.574219 19.148438 19.152344zm0 0"/><path d="m92.871094 237.203125c0 10.574219-8.574219 19.148437-19.148438 19.148437-10.574218 0-19.148437-8.574218-19.148437-19.148437s8.574219-19.148437 19.148437-19.148437c10.574219 0 19.148438 8.574218 19.148438 19.148437zm0 0"/><path d="m92.871094 316.144531c0 10.578125-8.574219 19.148438-19.148438 19.148438-10.574218 0-19.148437-8.570313-19.148437-19.148438 0-10.574219 8.574219-19.148437 19.148437-19.148437 10.574219 0 19.148438 8.574218 19.148438 19.148437zm0 0"/></g><path d="m470.308594 393.933594c0 52.863281-37.011719 97.085937-86.535156 108.15625-7.816407 1.753906-15.941407 2.671875-24.292969 2.671875-61.214844 0-110.828125-49.625-110.828125-110.828125 0-61.214844 49.613281-110.828125 110.828125-110.828125 8.351562 0 16.476562.921875 24.292969 2.671875 49.523437 11.074218 86.535156 55.292968 86.535156 108.15625zm0 0" fill="#07a9f0"/><path d="m470.308594 393.933594c0 52.863281-37.011719 97.085937-86.535156 108.15625-49.523438-11.070313-86.550782-55.292969-86.550782-108.15625 0-52.875 37.027344-97.082032 86.550782-108.15625 49.523437 11.074218 86.535156 55.292968 86.535156 108.15625zm0 0" fill="#40c1fa"/><path d="m284.449219 393.578125c0-8.351563 6.832031-15.183594 15.183593-15.183594h118.417969c8.351563 0 15.183594 6.832031 15.183594 15.183594 0 8.347656-6.832031 15.179687-15.183594 15.179687h-118.417969c-8.351562 0-15.183593-6.832031-15.183593-15.179687zm0 0" fill="#fff5f5"/><path d="m73.730469 52.554688c-14.742188 0-26.738281 11.996093-26.738281 26.738281 0 14.742187 11.996093 26.738281 26.738281 26.738281 14.742187 0 26.738281-11.996094 26.738281-26.738281 0-14.742188-11.996094-26.738281-26.738281-26.738281zm0 38.296874c-6.375 0-11.558594-5.183593-11.558594-11.558593s5.183594-11.558594 11.558594-11.558594 11.558593 5.183594 11.558593 11.558594-5.183593 11.558593-11.558593 11.558593zm0 0"/><path d="m268.046875 86.882812c4.195313 0 7.589844-3.398437 7.589844-7.589843 0-4.195313-3.394531-7.589844-7.589844-7.589844h-17.007813c-4.195312 0-7.589843 3.394531-7.589843 7.589844 0 4.191406 3.394531 7.589843 7.589843 7.589843zm0 0"/><path d="m129.582031 86.882812h91.09375c4.191407 0 7.589844-3.398437 7.589844-7.589843 0-4.195313-3.398437-7.589844-7.589844-7.589844h-91.09375c-4.191406 0-7.589843 3.394531-7.589843 7.589844 0 4.191406 3.398437 7.589843 7.589843 7.589843zm0 0"/><path d="m73.730469 131.496094c-14.742188 0-26.738281 11.996094-26.738281 26.738281 0 14.746094 11.996093 26.742187 26.738281 26.742187 14.742187 0 26.738281-11.996093 26.738281-26.742187 0-14.742187-11.996094-26.738281-26.738281-26.738281zm0 38.296875c-6.375 0-11.558594-5.183594-11.558594-11.558594 0-6.371094 5.183594-11.554687 11.558594-11.554687s11.558593 5.183593 11.558593 11.554687c0 6.375-5.183593 11.558594-11.558593 11.558594zm0 0"/><path d="m129.582031 165.828125h138.464844c4.195313 0 7.59375-3.398437 7.59375-7.59375 0-4.191406-3.398437-7.589844-7.59375-7.589844h-138.464844c-4.191406 0-7.589843 3.398438-7.589843 7.589844 0 4.195313 3.398437 7.59375 7.589843 7.59375zm0 0"/><path d="m73.730469 210.4375c-14.742188 0-26.738281 11.996094-26.738281 26.742188 0 14.742187 11.996093 26.738281 26.738281 26.738281 14.742187 0 26.738281-11.996094 26.738281-26.738281 0-14.746094-11.996094-26.742188-26.738281-26.742188zm0 38.296875c-6.375 0-11.558594-5.183594-11.558594-11.554687 0-6.375 5.183594-11.558594 11.558594-11.558594s11.558593 5.183594 11.558593 11.558594c0 6.371093-5.183593 11.554687-11.558593 11.554687zm0 0"/><path d="m268.046875 229.585938h-91.089844c-4.195312 0-7.59375 3.398437-7.59375 7.59375 0 4.191406 3.398438 7.589843 7.59375 7.589843h91.089844c4.195313 0 7.589844-3.398437 7.589844-7.589843 0-4.195313-3.394531-7.59375-7.589844-7.59375zm0 0"/><path d="m129.582031 244.769531h17.011719c4.191406 0 7.589844-3.398437 7.589844-7.589843 0-4.195313-3.398438-7.59375-7.589844-7.59375h-17.011719c-4.191406 0-7.589843 3.398437-7.589843 7.59375 0 4.191406 3.398437 7.589843 7.589843 7.589843zm0 0"/><path d="m73.730469 289.382812c-14.742188 0-26.738281 11.996094-26.738281 26.738282 0 14.742187 11.996093 26.738281 26.738281 26.738281 14.742187 0 26.738281-11.996094 26.738281-26.738281 0-14.742188-11.996094-26.738282-26.738281-26.738282zm0 38.296876c-6.375 0-11.558594-5.183594-11.558594-11.558594s5.183594-11.558594 11.558594-11.558594 11.558593 5.183594 11.558593 11.558594-5.183593 11.558594-11.558593 11.558594zm0 0"/><path d="m322.386719 280.910156v-252.0625c0-15.902344-12.9375-28.847656-28.847657-28.847656h-264.691406c-15.902344 0-28.847656 12.945312-28.847656 28.847656v337.71875c0 15.898438 12.945312 28.84375 28.847656 28.84375h59.53125c4.191406 0 7.59375-3.398437 7.59375-7.589844 0-4.191406-3.402344-7.589843-7.59375-7.589843h-59.53125c-7.53125 0-13.664062-6.132813-13.664062-13.664063v-337.71875c0-7.53125 6.132812-13.664062 13.664062-13.664062h264.691406c7.542969 0 13.664063 6.132812 13.664063 13.664062v258.175782c-12.507813 6.085937-23.78125 14.316406-33.359375 24.199218-1.394531-1.644531-3.472656-2.691406-5.796875-2.691406h-138.464844c-4.191406 0-7.589843 3.394531-7.589843 7.589844 0 4.191406 3.398437 7.589844 7.589843 7.589844h133.71875c-11.886719 16.210937-19.761719 35.539062-22.117187 56.519531h-122.441406c-4.199219 0-7.589844 3.398437-7.589844 7.589843 0 4.191407 3.390625 7.589844 7.589844 7.589844h121.703124c.980469 64.453125 53.710938 116.589844 118.398438 116.589844 65.292969 0 118.417969-53.128906 118.417969-118.421875 0-80.167969-78.566407-137.480469-154.875-112.667969zm36.457031 215.90625c-56.324219 0-102.238281-45.320312-103.21875-101.40625-.636719-38.167968 19.574219-72.648437 51.578125-91.203125 67.644531-39.28125 154.878906 9.234375 154.878906 89.371094 0 56.925781-46.316406 103.238281-103.238281 103.238281zm0 0"/><path d="m418.050781 370.804688h-118.417969c-12.558593 0-22.773437 10.214843-22.773437 22.773437 0 12.554687 10.214844 22.773437 22.773437 22.773437h118.417969c12.558594 0 22.773438-10.21875 22.773438-22.773437 0-12.558594-10.214844-22.773437-22.773438-22.773437zm0 30.363281h-118.417969c-4.1875 0-7.59375-3.40625-7.59375-7.589844 0-4.1875 3.40625-7.59375 7.59375-7.59375h118.417969c4.1875 0 7.589844 3.40625 7.589844 7.59375 0 4.183594-3.402344 7.589844-7.589844 7.589844zm0 0"/></svg>