<svg id="Layer_1" height="512" viewBox="0 0 128 128" width="512" xmlns="http://www.w3.org/2000/svg" xmlns:xlink="http://www.w3.org/1999/xlink" data-name="Layer 1"><linearGradient id="linear-gradient" gradientUnits="userSpaceOnUse" x1="13.595" x2="114.405" y1="64" y2="64"><stop offset="0" stop-color="#e97b83"/><stop offset="1" stop-color="#23ceb0"/></linearGradient><path d="m114.405 102.25v19.25a1.75 1.75 0 0 1 -1.75 1.75h-97.31a1.75 1.75 0 0 1 -1.75-1.75v-115a1.75 1.75 0 0 1 1.75-1.75h16.155a1.75 1.75 0 0 1 0 3.5h-14.4v111.5h93.81v-17.5a1.75 1.75 0 0 1 3.5 0zm-1.75-15.375a1.749 1.749 0 0 0 -1.75 1.75v6.375a1.75 1.75 0 0 0 3.5 0v-6.375a1.75 1.75 0 0 0 -1.75-1.75zm0-82.125h-70.78a1.75 1.75 0 0 0 0 3.5h69.03v72.875a1.75 1.75 0 0 0 3.5 0v-74.625a1.75 1.75 0 0 0 -1.75-1.75zm-79.155 28.442v-9a1.751 1.751 0 0 1 1.75-1.75h57.5a1.751 1.751 0 0 1 1.75 1.75v9a1.75 1.75 0 0 1 -1.75 1.75h-57.5a1.75 1.75 0 0 1 -1.75-1.75zm3.5-1.75h54v-5.5h-54zm-1.75 21.152h57.5a1.75 1.75 0 0 0 0-3.5h-57.5a1.75 1.75 0 0 0 0 3.5zm0 9h57.5a1.75 1.75 0 0 0 0-3.5h-57.5a1.75 1.75 0 0 0 0 3.5zm0 9h57.5a1.75 1.75 0 0 0 0-3.5h-57.5a1.75 1.75 0 0 0 0 3.5zm0 9h57.5a1.75 1.75 0 0 0 0-3.5h-57.5a1.75 1.75 0 0 0 0 3.5zm0 9h57.5a1.75 1.75 0 0 0 0-3.5h-57.5a1.75 1.75 0 0 0 0 3.5zm0 9h57.5a1.75 1.75 0 0 0 0-3.5h-57.5a1.75 1.75 0 0 0 0 3.5zm10.765 5.5a1.75 1.75 0 1 0 0 3.5h35.97a1.75 1.75 0 1 0 0-3.5z" fill="url(#linear-gradient)"/></svg>