<svg xmlns="http://www.w3.org/2000/svg" height="512pt" version="1.1" viewBox="-44 0 512 512.00001" width="512pt">
<g id="surface1">
<path d="M 414.1875 119.535156 L 414.1875 366.96875 C 414.1875 391.75 394.097656 411.84375 369.3125 411.84375 L 145.746094 411.84375 C 120.960938 411.84375 100.871094 391.75 100.871094 366.96875 L 100.871094 55.382812 C 100.871094 30.597656 120.960938 10.503906 145.746094 10.503906 L 310.464844 10.503906 L 310.464844 84.855469 C 310.464844 104.03125 325.964844 119.535156 345.140625 119.535156 Z M 351.261719 215.203125 C 351.261719 163.390625 309.339844 121.472656 257.53125 121.472656 C 205.71875 121.472656 163.800781 163.492188 163.800781 215.203125 C 163.800781 266.914062 205.820312 308.933594 257.53125 308.933594 C 309.238281 308.933594 351.261719 267.015625 351.261719 215.203125 Z M 351.261719 215.203125 " style=" stroke:none;fill-rule:nonzero;fill:rgb(0%,67.45098%,91.764706%);fill-opacity:1;" />
<path d="M 310.464844 10.503906 L 414.1875 119.535156 L 345.140625 119.535156 C 325.964844 119.535156 310.464844 104.03125 310.464844 84.859375 Z M 310.464844 10.503906 " style=" stroke:none;fill-rule:nonzero;fill:rgb(0%,93.72549%,81.960784%);fill-opacity:1;" />
<path d="M 145.746094 411.742188 L 369.3125 411.742188 C 369.3125 436.527344 349.21875 456.621094 324.4375 456.621094 L 100.871094 456.621094 C 76.085938 456.621094 55.992188 436.527344 55.992188 411.742188 L 55.992188 100.257812 C 55.992188 75.472656 76.085938 55.382812 100.871094 55.382812 L 100.871094 366.867188 C 100.871094 391.648438 120.960938 411.742188 145.746094 411.742188 Z M 145.746094 411.742188 " style=" stroke:none;fill-rule:nonzero;fill:rgb(99.607843%,85.882353%,25.490196%);fill-opacity:1;" />
<path d="M 351.257812 215.203125 C 351.257812 266.96875 309.296875 308.933594 257.527344 308.933594 C 205.761719 308.933594 163.796875 266.96875 163.796875 215.203125 C 163.796875 163.4375 205.761719 121.472656 257.527344 121.472656 C 309.296875 121.472656 351.257812 163.4375 351.257812 215.203125 Z M 351.257812 215.203125 " style=" stroke:none;fill-rule:nonzero;fill:rgb(0%,67.45098%,91.764706%);fill-opacity:1;" />
<path d="M 100.871094 456.617188 L 323.417969 456.617188 C 323.417969 481.402344 303.324219 501.496094 278.539062 501.496094 L 54.972656 501.496094 C 30.1875 501.496094 10.097656 481.402344 10.097656 456.617188 L 10.097656 145.132812 C 10.097656 120.351562 30.1875 100.257812 54.972656 100.257812 L 55.992188 100.257812 L 55.992188 411.742188 C 55.992188 436.527344 76.085938 456.617188 100.871094 456.617188 Z M 100.871094 456.617188 " style=" stroke:none;fill-rule:nonzero;fill:rgb(0%,93.72549%,81.960784%);fill-opacity:1;" />
<path d="M 317.808594 3.265625 C 315.867188 1.222656 313.21875 0 310.464844 0 L 145.746094 0 C 118.617188 0 95.972656 19.886719 91.488281 45.792969 C 68.640625 49.773438 50.691406 67.824219 46.710938 90.570312 C 20.296875 94.648438 0 117.597656 0 145.132812 L 0 456.617188 C 0 487.011719 24.582031 512 54.972656 512 L 278.539062 512 C 305.667969 512 328.210938 492.214844 332.800781 466.308594 C 356.15625 462.738281 374.617188 444.378906 378.695312 421.125 C 404.601562 416.636719 424.289062 393.996094 424.289062 366.761719 L 424.289062 119.433594 C 424.289062 116.78125 423.371094 114.230469 421.535156 112.292969 Z M 320.253906 36.003906 L 390.425781 109.132812 L 345.140625 109.132812 C 331.679688 109.132812 320.253906 98.320312 320.253906 84.753906 Z M 278.539062 491.601562 L 54.972656 491.601562 C 35.796875 491.601562 20.398438 475.792969 20.398438 456.617188 L 20.398438 145.132812 C 20.398438 129.222656 30.597656 115.761719 45.894531 111.679688 L 45.894531 411.742188 C 45.894531 442.136719 70.476562 467.125 100.871094 467.125 L 311.6875 467.125 C 307.300781 481.402344 294.144531 491.601562 278.539062 491.601562 Z M 324.4375 446.726562 L 100.871094 446.726562 C 81.796875 446.726562 66.292969 430.917969 66.292969 411.742188 L 66.292969 100.257812 C 66.292969 84.652344 76.492188 71.496094 90.773438 67.109375 L 90.773438 366.867188 C 90.773438 397.257812 115.351562 422.246094 145.746094 422.246094 L 357.582031 422.246094 C 353.199219 436.527344 340.042969 446.726562 324.4375 446.726562 Z M 369.3125 401.847656 L 145.746094 401.847656 C 126.671875 401.847656 111.171875 386.039062 111.171875 366.867188 L 111.171875 55.382812 C 111.171875 36.308594 126.570312 20.398438 145.746094 20.398438 L 299.855469 20.398438 L 299.855469 84.753906 C 299.855469 109.539062 320.355469 129.53125 345.140625 129.53125 L 403.886719 129.53125 L 403.886719 366.867188 C 403.886719 386.039062 388.488281 401.847656 369.3125 401.847656 Z M 369.3125 401.847656 " style=" stroke:none;fill-rule:nonzero;fill:rgb(3.137255%,21.960784%,38.823529%);fill-opacity:1;" />
<path d="M 341.46875 336.574219 L 173.589844 336.574219 C 167.980469 336.574219 163.390625 341.164062 163.390625 346.773438 C 163.390625 352.382812 167.980469 356.972656 173.589844 356.972656 L 341.570312 356.972656 C 347.179688 356.972656 351.769531 352.382812 351.769531 346.773438 C 351.769531 341.164062 347.179688 336.574219 341.46875 336.574219 Z M 341.46875 336.574219 " style=" stroke:none;fill-rule:nonzero;fill:rgb(3.137255%,21.960784%,38.823529%);fill-opacity:1;" />
<path d="M 299.246094 205.003906 L 215.917969 205.003906 C 210.308594 205.003906 205.71875 209.59375 205.71875 215.203125 C 205.71875 220.8125 210.308594 225.402344 215.917969 225.402344 L 299.246094 225.402344 C 304.855469 225.402344 309.445312 220.8125 309.445312 215.203125 C 309.445312 209.59375 304.855469 205.003906 299.246094 205.003906 Z M 299.246094 205.003906 " style=" stroke:none;fill-rule:nonzero;fill:rgb(3.137255%,21.960784%,38.823529%);fill-opacity:1;" />
<path d="M 257.527344 111.273438 C 200.210938 111.273438 153.597656 157.882812 153.597656 215.203125 C 153.597656 272.523438 200.210938 319.132812 257.527344 319.132812 C 314.847656 319.132812 361.460938 272.523438 361.460938 215.203125 C 361.460938 157.882812 314.847656 111.273438 257.527344 111.273438 Z M 257.527344 298.734375 C 211.429688 298.734375 173.996094 261.304688 173.996094 215.203125 C 173.996094 169.101562 211.429688 131.671875 257.527344 131.671875 C 303.628906 131.671875 341.0625 169.101562 341.0625 215.203125 C 341.0625 261.304688 303.628906 298.734375 257.527344 298.734375 Z M 257.527344 298.734375 " style=" stroke:none;fill-rule:nonzero;fill:rgb(3.137255%,21.960784%,38.823529%);fill-opacity:1;" />
</g>
</svg>