<svg height="512" viewBox="0 0 64 64" width="512" xmlns="http://www.w3.org/2000/svg"><path d="m32 21v35a8 8 0 0 0 -8-8h-5.95a.047.047 0 0 1 -.05-.05v-39.9a.047.047 0 0 1 .05-.05h5.95a8 8 0 0 1 8 8z" fill="#78b9eb"/><path d="m61 16v40h-29a4 4 0 0 1 4-4h10l-2.34-5.86-1.66-4.14 7.89-6.14 1.11-.86-6-6 2.4-3 1.6-2-9-4 2-4z" fill="#78b9eb"/><path d="m32 56h-29v-40h4v36h21a4 4 0 0 1 4 4z" fill="#78b9eb"/><g fill="#006df0"><path d="m61 15h-17.382l1.282-2.553a1 1 0 0 0 -.9-1.447h-8a4.972 4.972 0 0 0 -3.663 1.623 9.01 9.01 0 0 0 -8.337-5.623h-5.945a1.1 1.1 0 0 0 -1.055 1.055v2.945h-10a1 1 0 0 0 -1 1v3h-3a1 1 0 0 0 -1 1v40a1 1 0 0 0 1 1h58a1 1 0 0 0 1-1v-40a1 1 0 0 0 -1-1zm-25-2h6.382l-3.282 6.553a1 1 0 0 0 .489 1.361l2.411 1.07v.016h.037l5.372 2.388-3.19 3.987a1 1 0 0 0 .074 1.332l5.2 5.2-8.106 6.305a1 1 0 0 0 -.315 1.16l3.451 8.628h-8.523a4.973 4.973 0 0 0 -3 1v-36a3 3 0 0 1 3-3zm-17-4h5a7.009 7.009 0 0 1 7 7v34.355a8.985 8.985 0 0 0 -7-3.355h-5zm-11 4h9v3h-7v2h7v13h-7v2h7v3h-3v2h3v3h-7v2h7v4.945a1.1 1.1 0 0 0 1.055 1.055h5.945a6.976 6.976 0 0 1 4.99 2.1 4.291 4.291 0 0 0 -.99-.1h-20zm-4 4h2v35a1 1 0 0 0 1 1h21a3 3 0 0 1 2.816 2h-26.816zm56 38h-26.816a3 3 0 0 1 2.816-2h10a1 1 0 0 0 .929-1.371l-1.852-4.629h12.923v-2h-13.723l-1.069-2.673 6.849-5.327h7.943v-2h-6.011a1 1 0 0 0 -.282-.707l-2.293-2.293h8.586v-2h-10.586l-1.074-1.074 1.541-1.926h10.119v-2h-8.519l.3-.375a1 1 0 0 0 -.375-1.539l-2.443-1.086h4.037v-2h-8.537l-1.1-.489 1.255-2.511h17.382z"/><path d="m10 21h4v2h-4z"/><path d="m10 26h6v2h-6z"/><path d="m10 36h2v2h-2z"/><path d="m49 40h9v2h-9z"/><path d="m53 20h5v2h-5z"/></g></svg>