<?xml version="1.0" encoding="iso-8859-1"?>
<!-- Generator: Adobe Illustrator 19.0.0, SVG Export Plug-In . SVG Version: 6.00 Build 0)  -->
<svg xmlns="http://www.w3.org/2000/svg" xmlns:xlink="http://www.w3.org/1999/xlink" version="1.1" id="Layer_1" x="0px" y="0px" viewBox="0 0 505.001 505.001" style="enable-background:new 0 0 505.001 505.001;" xml:space="preserve" width="512" height="512">
<g>
	<g>
		<path style="fill:#53BCE9;" d="M497.5,175.57v218.96c0,16.56-13.43,29.98-29.98,29.98H37.48c-16.56,0-29.98-13.42-29.98-29.98    V175.57c0-16.56,13.42-29.98,29.98-29.98h430.04C484.071,145.59,497.5,159.01,497.5,175.57z"/>
		<path style="fill:#36A6CE;" d="M497.5,175.57v82.01H7.5v-82.01c0-16.56,13.42-29.98,29.98-29.98h430.04    C484.071,145.59,497.5,159.01,497.5,175.57z"/>
		<path style="fill:#566368;" d="M421.141,396.082c12.89,0,23.35-10.45,23.35-23.35v-34.29c0-12.9-10.46-23.36-23.35-23.36H83.86    c-12.9,0-23.35,10.46-23.35,23.36v34.29c0,12.9,10.45,23.35,23.35,23.35"/>
		<path style="fill:#53BCE9;" d="M60.507,191.472v18.944c0,11.751,9.526,21.278,21.278,21.278H423.21    c11.751,0,21.278-9.526,21.278-21.278v-18.944"/>
		<path style="fill:#566368;" d="M83.596,145.59h-1.812c-11.751,0-21.278,9.526-21.278,21.278v18.944    c0,11.751,9.526,21.278,21.278,21.278H423.21c11.751,0,21.278-9.526,21.278-21.278v-18.944c0-11.751-9.526-21.278-21.278-21.278"/>
		<rect x="106.411" y="355.084" style="fill:#E5E9EA;" width="292.173" height="142.417"/>
		<polygon style="fill:#E5E9EA;" points="398.581,95.78 398.581,174.92 106.41,174.92 106.41,7.5 310.301,7.5   "/>
		<polyline style="fill:#F4F4F4;" points="398.581,95.78 310.301,95.78 310.301,7.5   "/>
	</g>
	<g>
		<path d="M83.86,417.011H37.48c-12.396,0-22.48-10.084-22.48-22.48V265.085h406.082c4.143,0,7.5-3.358,7.5-7.5s-3.357-7.5-7.5-7.5    H15V175.57c0-12.396,10.084-22.48,22.48-22.48h9.267c4.142,0,7.5-3.358,7.5-7.5s-3.358-7.5-7.5-7.5H37.48    C16.814,138.09,0,154.903,0,175.57v218.961c0,20.667,16.813,37.48,37.48,37.48h46.38c4.142,0,7.5-3.358,7.5-7.5    S88.002,417.011,83.86,417.011z"/>
		<path d="M53.007,210.416c0,15.868,12.91,28.778,28.778,28.778H423.21c15.868,0,28.777-12.91,28.777-28.778v-43.548    c0-15.868-12.909-28.778-28.777-28.778c-4.143,0-7.5,3.358-7.5,7.5s3.357,7.5,7.5,7.5c7.597,0,13.777,6.181,13.777,13.778v18.944    c0,7.597-6.181,13.778-13.777,13.778H81.785c-7.597,0-13.778-6.181-13.778-13.778v-18.944c0-7.597,6.181-13.778,13.778-13.778    h1.812c4.142,0,7.5-3.358,7.5-7.5s-3.358-7.5-7.5-7.5h-1.812c-15.868,0-28.778,12.91-28.778,28.778V210.416z M81.785,214.589    H423.21c4.974,0,9.657-1.269,13.743-3.5c-0.355,7.283-6.374,13.104-13.743,13.104H81.785c-7.37,0-13.389-5.821-13.744-13.104    C72.127,213.319,76.81,214.589,81.785,214.589z"/>
		<path d="M83.86,388.582c-8.74,0-15.85-7.11-15.85-15.85v-34.29c0-8.745,7.11-15.86,15.85-15.86h337.28    c8.74,0,15.851,7.115,15.851,15.86v34.29c0,8.74-7.11,15.85-15.851,15.85c-4.143,0-7.5,3.358-7.5,7.5s3.357,7.5,7.5,7.5    c17.011,0,30.851-13.839,30.851-30.85v-34.29c0-17.016-13.84-30.86-30.851-30.86H83.86c-17.011,0-30.85,13.844-30.85,30.86v34.29    c0,17.011,13.839,30.85,30.85,30.85c4.142,0,7.5-3.358,7.5-7.5S88.002,388.582,83.86,388.582z"/>
		<path d="M505,175.57c0-20.667-16.813-37.48-37.48-37.48h-9.276c-4.143,0-7.5,3.358-7.5,7.5s3.357,7.5,7.5,7.5h9.276    c12.396,0,22.48,10.084,22.48,22.48v74.515h-43.916c-4.143,0-7.5,3.358-7.5,7.5s3.357,7.5,7.5,7.5H490v129.447    c0,12.396-10.085,22.48-22.48,22.48h-46.38c-4.143,0-7.5,3.358-7.5,7.5s3.357,7.5,7.5,7.5h46.38    c20.667,0,37.48-16.813,37.48-37.48V175.57z"/>
		<path d="M53.84,283.919c-1.621-2.375-4.536-3.701-7.396-3.245c-3.15,0.503-5.676,2.989-6.227,6.126    c-0.566,3.224,1.097,6.507,4.013,7.976c2.813,1.417,6.286,0.905,8.558-1.279C55.38,291.005,55.817,286.921,53.84,283.919z"/>
		<path d="M80.83,283.919c-1.787-2.718-5.305-3.958-8.407-3.009c-3.003,0.919-5.152,3.67-5.313,6.806    c-0.151,2.931,1.507,5.744,4.121,7.061c3.007,1.515,6.757,0.801,8.988-1.73C82.455,290.511,82.685,286.735,80.83,283.919z"/>
		<path d="M238.653,383.08h-95.996c-4.142,0-7.5,3.358-7.5,7.5s3.358,7.5,7.5,7.5h95.996c4.142,0,7.5-3.358,7.5-7.5    S242.795,383.08,238.653,383.08z"/>
		<path d="M238.653,413.576h-95.996c-4.142,0-7.5,3.358-7.5,7.5s3.358,7.5,7.5,7.5h95.996c4.142,0,7.5-3.358,7.5-7.5    S242.795,413.576,238.653,413.576z"/>
		<path d="M238.653,444.793h-95.996c-4.142,0-7.5,3.358-7.5,7.5s3.358,7.5,7.5,7.5h95.996c4.142,0,7.5-3.358,7.5-7.5    S242.795,444.793,238.653,444.793z"/>
		<path d="M362.336,383.08h-95.995c-4.143,0-7.5,3.358-7.5,7.5s3.357,7.5,7.5,7.5h95.995c4.143,0,7.5-3.358,7.5-7.5    S366.479,383.08,362.336,383.08z"/>
		<path d="M362.336,413.576h-95.995c-4.143,0-7.5,3.358-7.5,7.5s3.357,7.5,7.5,7.5h95.995c4.143,0,7.5-3.358,7.5-7.5    S366.479,413.576,362.336,413.576z"/>
		<path d="M362.336,444.793h-95.995c-4.143,0-7.5,3.358-7.5,7.5s3.357,7.5,7.5,7.5h95.995c4.143,0,7.5-3.358,7.5-7.5    S366.479,444.793,362.336,444.793z"/>
		<path d="M398.583,368.586c-4.143,0-7.5,3.358-7.5,7.5v113.915H113.911V376.086c0-4.142-3.358-7.5-7.5-7.5s-7.5,3.358-7.5,7.5    v121.415c0,4.142,3.358,7.5,7.5,7.5h292.172c4.143,0,7.5-3.358,7.5-7.5V376.086C406.083,371.944,402.726,368.586,398.583,368.586z    "/>
		<path d="M106.411,39.595c4.142,0,7.5-3.358,7.5-7.5V15H302.8v80.78c0,4.142,3.357,7.5,7.5,7.5h80.78v50.639    c0,4.142,3.357,7.5,7.5,7.5s7.5-3.358,7.5-7.5V95.78c0-0.251-0.013-0.501-0.038-0.749c-0.018-0.183-0.05-0.362-0.081-0.541    c-0.011-0.062-0.016-0.125-0.029-0.187c-0.043-0.216-0.099-0.427-0.16-0.636c-0.007-0.024-0.011-0.049-0.019-0.073    c-0.065-0.213-0.141-0.42-0.224-0.625c-0.009-0.021-0.015-0.043-0.024-0.064c-0.08-0.193-0.171-0.38-0.266-0.564    c-0.017-0.033-0.031-0.068-0.048-0.1c-0.089-0.167-0.189-0.326-0.29-0.485c-0.031-0.048-0.057-0.099-0.089-0.147    c-0.099-0.148-0.208-0.289-0.318-0.429c-0.041-0.053-0.078-0.109-0.12-0.161c-0.14-0.17-0.288-0.331-0.442-0.488    c-0.017-0.018-0.032-0.037-0.05-0.055l-88.28-88.28c-0.014-0.014-0.03-0.026-0.045-0.04c-0.16-0.158-0.326-0.309-0.499-0.452    c-0.044-0.036-0.091-0.066-0.135-0.101c-0.149-0.117-0.299-0.232-0.456-0.338c-0.037-0.025-0.076-0.045-0.113-0.069    c-0.169-0.109-0.34-0.215-0.518-0.31c-0.026-0.014-0.054-0.025-0.08-0.039c-0.19-0.099-0.384-0.193-0.583-0.276    c-0.018-0.008-0.037-0.013-0.055-0.02c-0.207-0.084-0.418-0.161-0.634-0.227c-0.022-0.007-0.045-0.011-0.067-0.017    c-0.211-0.062-0.424-0.118-0.642-0.161c-0.06-0.012-0.122-0.017-0.182-0.028c-0.18-0.031-0.361-0.063-0.545-0.081    C310.801,0.013,310.552,0,310.3,0h-203.89c-4.142,0-7.5,3.358-7.5,7.5v24.595C98.911,36.237,102.269,39.595,106.411,39.595z     M317.8,25.606l62.674,62.674H317.8V25.606z"/>
		<path d="M106.411,161.419c4.142,0,7.5-3.358,7.5-7.5V57.096c0-4.142-3.358-7.5-7.5-7.5s-7.5,3.358-7.5,7.5v96.822    C98.911,158.061,102.269,161.419,106.411,161.419z"/>
		<path d="M428.739,355.084c0-4.142-3.357-7.5-7.5-7.5H83.756c-4.142,0-7.5,3.358-7.5,7.5s3.358,7.5,7.5,7.5h337.483    C425.381,362.584,428.739,359.226,428.739,355.084z"/>
		<path d="M78.506,174.919c0,4.142,3.358,7.5,7.5,7.5h332.983c4.143,0,7.5-3.358,7.5-7.5s-3.357-7.5-7.5-7.5H86.006    C81.864,167.419,78.506,170.777,78.506,174.919z"/>
	</g>
</g>















</svg>
