<?xml version="1.0" encoding="iso-8859-1"?>
<!-- Generator: Adobe Illustrator 19.0.0, SVG Export Plug-In . SVG Version: 6.00 Build 0)  -->
<svg xmlns="http://www.w3.org/2000/svg" xmlns:xlink="http://www.w3.org/1999/xlink" version="1.1" id="Layer_1" x="0px" y="0px" viewBox="0 0 512 512" style="enable-background:new 0 0 512 512;" xml:space="preserve" width="512" height="512">
<g id="XMLID_1619_">
	<g id="XMLID_2361_">
		<path id="XMLID_2408_" style="fill:#FFD89B;" d="M151,438h304c11.046,0,20-8.954,20-20V30c0-11.046-8.954-20-20-20H151    c-11.046,0-20,8.954-20,20v388C131,429.046,139.954,438,151,438z"/>
		<path id="XMLID_2407_" style="fill:#FFFFFF;" d="M125,74h236c11.046,0,20,8.954,20,20v388c0,11.046-8.954,20-20,20H57    c-11.046,0-20-8.954-20-20V162L125,74z"/>
		<path id="XMLID_2405_" style="fill:#FFD89B;" d="M37,162h60.5c15.188,0,27.5-12.312,27.5-27.5V74L37,162z"/>
	</g>
	<g id="XMLID_2392_">
		<rect id="XMLID_2385_" x="242.063" y="280.443" style="fill:#D0EC7E;" width="48" height="49.061"/>
		<rect id="XMLID_2381_" x="194.063" y="247.342" style="fill:#5DDEF5;" width="48" height="82.162"/>
		<rect id="XMLID_2380_" x="146.063" y="220.767" style="fill:#FF838E;" width="48" height="108.737"/>
	</g>
	<g id="XMLID_1334_">
		<path id="XMLID_1729_" d="M455,0H151c-16.542,0-30,13.458-30,30v34.864c-1.121,0.49-2.172,1.166-3.071,2.065l-88,88    c-1.91,1.911-2.902,4.466-2.905,7.065c-0.008,0.002-0.016,0.004-0.024,0.007v320c0,16.542,13.458,30,30,30h304    c16.542,0,30-13.458,30-30v-34h64c16.542,0,30-13.458,30-30V30C485,13.458,471.542,0,455,0z M302.627,64h-23.106    c-5.039-9.506-15.034-16-26.521-16c-16.542,0-30,13.458-30,30v58.955c0,5.522,4.478,10,10,10s10-4.478,10-10V78    c0-5.514,4.486-10,10-10s10,4.486,10,10v66.955c0,16.542-13.458,30-30,30s-30-13.458-30-30V70c0-27.57,22.43-50,50-50    C278.539,20,299.652,39.25,302.627,64z M151,20h53.077c-11.65,11.402-19.337,26.823-20.803,44H141V30    C141,24.486,145.486,20,151,20z M115,98.143V134.5c0,9.649-7.851,17.5-17.5,17.5H61.143L115,98.143z M465,418    c0,5.514-4.486,10-10,10h-64V234.169c0-5.522-4.478-10-10-10s-10,4.478-10,10V482c0,5.514-4.486,10-10,10H57    c-5.514,0-10-4.486-10-10V172h50.5c20.678,0,37.5-16.822,37.5-37.5V84h48v60.955c0,27.57,22.43,50,50,50s50-22.43,50-50V84h78    c5.514,0,10,4.486,10,10v60.169c0,5.522,4.478,10,10,10s10-4.478,10-10V94c0-16.542-13.458-30-30-30h-38.275    c-1.466-17.177-9.153-32.598-20.803-44H455c5.514,0,10,4.486,10,10V418z"/>
		<path id="XMLID_1872_" d="M106.063,339.504h205.873c5.522,0,10-4.478,10-10s-4.478-10-10-10h-11.873v-39.062    c0-5.522-4.478-10-10-10h-38v-23.101c0-5.522-4.478-10-10-10h-38v-16.574c0-5.522-4.478-10-10-10h-48c-5.522,0-10,4.478-10,10    v98.736h-20v-98.736c0-5.522-4.478-10-10-10s-10,4.478-10,10v108.736C96.063,335.026,100.541,339.504,106.063,339.504z     M280.063,290.442v29.062h-28v-29.062H280.063z M232.063,257.342v23.101v39.062h-28v-62.162H232.063z M156.063,230.768h28v16.574    v72.162h-28V230.768z"/>
		<path id="XMLID_1875_" d="M312.469,407.969H105.532c-5.522,0-10,4.478-10,10s4.478,10,10,10h206.937c5.522,0,10-4.478,10-10    S317.991,407.969,312.469,407.969z"/>
		<path id="XMLID_1876_" d="M312.469,367.969H146.063c-5.522,0-10,4.478-10,10s4.478,10,10,10h166.405c5.522,0,10-4.478,10-10    S317.991,367.969,312.469,367.969z"/>
		<path id="XMLID_1877_" d="M105.53,387.97c2.63,0,5.21-1.07,7.069-2.93c1.86-1.86,2.931-4.44,2.931-7.07s-1.07-5.21-2.931-7.07    c-1.859-1.859-4.439-2.93-7.069-2.93c-2.631,0-5.211,1.07-7.07,2.93c-1.86,1.86-2.93,4.44-2.93,7.07s1.069,5.21,2.93,7.07    C100.319,386.899,102.899,387.97,105.53,387.97z"/>
		<path id="XMLID_1878_" d="M312.469,447.969H105.531c-5.522,0-10,4.478-10,10s4.478,10,10,10h206.938c5.522,0,10-4.478,10-10    S317.991,447.969,312.469,447.969z"/>
		<path id="XMLID_1879_" d="M381,184.17c-2.63,0-5.21,1.07-7.07,2.93c-1.86,1.86-2.93,4.44-2.93,7.07s1.069,5.21,2.93,7.07    c1.86,1.859,4.44,2.93,7.07,2.93s5.21-1.07,7.069-2.93c1.86-1.86,2.931-4.44,2.931-7.07s-1.07-5.21-2.931-7.07    C386.21,185.24,383.63,184.17,381,184.17z"/>
	</g>
</g>















</svg>
