<svg xmlns="http://www.w3.org/2000/svg" data-name="Layer 1" viewBox="0 0 100 125" x="0px" y="0px"><title>page-redacted_ckeckmark</title><g data-name="Group"><rect data-name="Path" x="22.94" y="56.59" width="38.01" height="2.39" rx="1.11" ry="1.11"/><rect data-name="Path" x="26.16" y="46.5" width="34.79" height="2.39" rx="1.11" ry="1.11"/><rect data-name="Path" x="37.54" y="38.73" width="23.4" height="2.39" rx="1.11" ry="1.11"/><rect data-name="Path" x="37.54" y="30.95" width="23.4" height="2.39" rx="1.11" ry="1.11"/><path data-name="Compound Path" d="M53.43,83.62H16A2,2,0,0,1,14.2,81.5V35.75l21.26-13a2.48,2.48,0,0,0,.4-3.87l-3.77-3.7H67.91a1.71,1.71,0,0,1,1.72,1.88V58.84a23.18,23.18,0,0,1,3.64-.31c.49,0,1.12,0,1.55.06V17.07A7,7,0,0,0,67.91,10H30.56a13.65,13.65,0,0,0-9.25,4.26l-8.74,10A16.2,16.2,0,0,0,9,33.74V81.5a6.93,6.93,0,0,0,7,6.89H55.25A15.46,15.46,0,0,1,53.43,83.62Zm-37.09-56,8.73-10a6.18,6.18,0,0,1,1.34-1.1l3.65,3.64L15.36,29.1A7.77,7.77,0,0,1,16.34,27.59Z"/><path data-name="Path" d="M58.93,64.62c.42-.42.85-.86,1.3-1.23a1.15,1.15,0,0,0-.39-.13H24a1.18,1.18,0,0,0-1.19,1.1v.17A1.39,1.39,0,0,0,24,65.86H57.89A12.9,12.9,0,0,1,58.93,64.62Z"/><path data-name="Path" d="M54.54,71.06H24a1.16,1.16,0,0,0-1.19,1.08v.17c0,.61.58.91,1.19.91H53.71C53.94,72.79,54.21,71.93,54.54,71.06Z"/><path data-name="Compound Path" d="M61.36,91a17,17,0,1,0,0-24.07A17,17,0,0,0,61.36,91Zm3-13.2a2.34,2.34,0,0,1,3.31,0l3.76,3.76,7.48-10.17a2.34,2.34,0,0,1,3.77,2.78L73.58,86.55l0,0-.11.14-.07.07,0,0-.1.09-.07.06-.2.15,0,0-.17.1-.07,0-.16.07-.08,0-.17,0-.08,0-.18,0h-.33l-.31,0H71.3L71,87.4l-.06,0-.29-.12h0a2.39,2.39,0,0,1-.29-.18l0,0,0,0-.1-.08-.09-.08,0,0-5.68-5.69A2.34,2.34,0,0,1,64.35,77.82Z"/></g><rect data-name="Rectangle" x="35.63" y="28.72" width="26.63" height="7.02"/><rect data-name="Rectangle" x="22.94" y="44.19" width="39.33" height="7.02"/><rect data-name="Rectangle" x="22.94" y="53.41" width="39.33" height="7.02"/><text x="0" y="115" fill="#000000" font-size="5px" font-weight="bold" font-family="'Helvetica Neue', Helvetica, Arial-Unicode, Arial, Sans-serif">Created by Alexander Nicholas</text><text x="0" y="120" fill="#000000" font-size="5px" font-weight="bold" font-family="'Helvetica Neue', Helvetica, Arial-Unicode, Arial, Sans-serif">from the Noun Project</text></svg>