<svg id="Capa_1" enable-background="new 0 0 504.084 504.084" height="512" viewBox="0 0 504.084 504.084" width="512" xmlns="http://www.w3.org/2000/svg"><g><g><path d="m10 59.625h127.401v104.378h-127.401z" fill="#99ebfa"/><path d="m347.745 320.638h146.339v-261.013h-146.339" fill="#ff7d97"/><path d="m347.745 320.638h146.339v123.821h-146.339z" fill="#99ebfa"/><path d="m10 417.072v27.387h63.7v-280.456h-63.7v173.404" fill="#e7e9ef"/><path d="m347.745 183.544v260.915h-210.345v-384.834h210.345v45.34" fill="#ffee80"/><path d="m73.7 164.003h63.7v280.456h-63.7z" fill="#a0e5a5"/></g><g><path d="m504.084 59.625c0-5.523-4.478-10-10-10h-484.084c-5.522 0-10 4.477-10 10v277.782c0 12.84 20 12.858 20 0v-163.404h43.7v260.456h-43.7v-17.387c0-12.84-20-12.858-20 0v27.387c0 5.522 4.478 10 10 10h484.084c5.522 0 10-4.478 10-10zm-484.084 94.378v-84.378h107.4v84.378zm63.7 20h43.7v260.456h-43.7zm63.7-104.378h190.345v35.339c0 12.84 20 12.859 20 0v-35.339h126.339v241.014h-126.339v-127.096c0-12.84-20-12.859-20 0v250.916h-190.345zm336.684 364.834h-126.339v-103.82h126.339z"/><path d="m338.509 148.496c2.093 5.025 8.022 7.501 13.06 5.41 5.029-2.088 7.5-8.025 5.41-13.06-2.088-5.03-8.024-7.501-13.061-5.41-5.023 2.085-7.506 8.027-5.409 13.06z"/><path d="m.769 381.066c2.097 5.028 8.017 7.497 13.06 5.409s7.471-8.028 5.4-13.06c-2.075-5.04-8.018-7.488-13.05-5.41-5.032 2.079-7.504 8.031-5.41 13.061z"/></g></g></svg>