<svg height="512pt" viewBox="0 0 512 512" width="512pt" xmlns="http://www.w3.org/2000/svg"><path d="m162.132812 230.398438h187.734376c9.425781 0 17.066406 7.640624 17.066406 17.066406v153.601562c0 9.425782-7.640625 17.066406-17.066406 17.066406h-187.734376c-9.425781 0-17.066406-7.640624-17.066406-17.066406v-153.601562c0-9.425782 7.640625-17.066406 17.066406-17.066406zm0 0" fill="#ff9801"/><path d="m162.132812 230.398438h162.132813c9.425781 0 17.066406 7.640624 17.066406 17.066406v153.601562c0 9.425782-7.640625 17.066406-17.066406 17.066406h-162.132813c-9.425781 0-17.066406-7.640624-17.066406-17.066406v-153.601562c0-9.425782 7.640625-17.066406 17.066406-17.066406zm0 0" fill="#fec108"/><path d="m285.191406 310.339844c-.226562-14.925782-11.664062-27.285156-26.527344-28.664063-14.863281-1.378906-28.378906 8.660157-31.351562 23.289063-1.5625 8.601562.980469 17.4375 6.875 23.894531 2.960938 3.203125 4.644531 7.378906 4.746094 11.738281v26.402344c0 4.675781 3.789062 8.464844 8.464844 8.464844h17.203124c2.246094 0 4.398438-.890625 5.984376-2.476563 1.589843-1.589843 2.480468-3.742187 2.480468-5.988281v-26.519531c.097656-4.359375 1.796875-8.527344 4.769532-11.714844 4.621093-5.039063 7.238281-11.589844 7.355468-18.425781zm0 0" fill="#37474f"/><path d="m307.199219 230.398438v-52.667969c0-28.273438-22.921875-51.199219-51.199219-51.199219s-51.199219 22.925781-51.199219 51.199219v52.667969h-34.132812v-52.667969c0-47.125 38.203125-85.332031 85.332031-85.332031s85.332031 38.207031 85.332031 85.332031v52.667969zm0 0" fill="#607d8b"/><path d="m341.332031 177.75v52.648438h-25.597656v-52.648438c-.300781-41.734375-31.054687-76.988281-72.363281-82.945312 4.179687-.613282 8.402344-.929688 12.628906-.9375 46.722656-.394532 84.925781 37.15625 85.332031 83.882812zm0 0" fill="#37474f"/><path d="m349.867188 426.667969h-187.734376c-14.136718 0-25.597656-11.460938-25.597656-25.601563v-153.601562c0-14.136719 11.460938-25.597656 25.597656-25.597656h187.734376c14.136718 0 25.597656 11.460937 25.597656 25.597656v153.601562c0 14.140625-11.460938 25.601563-25.597656 25.601563zm-187.734376-187.734375c-4.710937 0-8.53125 3.820312-8.53125 8.53125v153.601562c0 4.714844 3.820313 8.535156 8.53125 8.535156h187.734376c4.710937 0 8.53125-3.820312 8.53125-8.535156v-153.601562c0-4.710938-3.820313-8.53125-8.53125-8.53125zm0 0"/><path d="m366.933594 290.132812h-42.667969c-4.710937 0-8.53125-3.820312-8.53125-8.53125 0-4.714843 3.820313-8.535156 8.53125-8.535156h42.667969c4.710937 0 8.53125 3.820313 8.53125 8.535156 0 4.710938-3.820313 8.53125-8.53125 8.53125zm0 0"/><path d="m366.933594 332.800781h-42.667969c-4.710937 0-8.53125-3.820312-8.53125-8.535156 0-4.710937 3.820313-8.53125 8.53125-8.53125h42.667969c4.710937 0 8.53125 3.820313 8.53125 8.53125 0 4.714844-3.820313 8.535156-8.53125 8.535156zm0 0"/><path d="m366.933594 384h-42.667969c-4.710937 0-8.53125-3.820312-8.53125-8.535156 0-4.710938 3.820313-8.53125 8.53125-8.53125h42.667969c4.710937 0 8.53125 3.820312 8.53125 8.53125 0 4.714844-3.820313 8.535156-8.53125 8.535156zm0 0"/><path d="m187.734375 290.132812h-42.667969c-4.710937 0-8.53125-3.820312-8.53125-8.53125 0-4.714843 3.820313-8.535156 8.53125-8.535156h42.667969c4.710937 0 8.53125 3.820313 8.53125 8.535156 0 4.710938-3.820313 8.53125-8.53125 8.53125zm0 0"/><path d="m187.734375 332.800781h-42.667969c-4.710937 0-8.53125-3.820312-8.53125-8.535156 0-4.710937 3.820313-8.53125 8.53125-8.53125h42.667969c4.710937 0 8.53125 3.820313 8.53125 8.53125 0 4.714844-3.820313 8.535156-8.53125 8.535156zm0 0"/><path d="m187.734375 384h-42.667969c-4.710937 0-8.53125-3.820312-8.53125-8.535156 0-4.710938 3.820313-8.53125 8.53125-8.53125h42.667969c4.710937 0 8.53125 3.820312 8.53125 8.53125 0 4.714844-3.820313 8.535156-8.53125 8.535156zm0 0"/><path d="m264.601562 384h-17.203124c-9.371094-.039062-16.960938-7.625-17-17v-26.390625c-.105469-2.300781-1.035157-4.484375-2.617188-6.152344-7.59375-8.425781-10.863281-19.890625-8.859375-31.054687 2.871094-14.808594 14.347656-26.449219 29.117187-29.523438 11.277344-2.367187 23.019532.46875 31.972657 7.722656 8.671875 7.019532 13.710937 17.582032 13.714843 28.738282-.113281 8.929687-3.492187 17.507812-9.5 24.117187-1.566406 1.625-2.5 3.765625-2.625 6.023438v26.453125c0 9.398437-7.601562 17.027344-17 17.066406zm-8.535156-93.867188c-1.542968.003907-3.085937.160157-4.597656.46875-7.945312 1.714844-14.125 7.960938-15.753906 15.925782-1.042969 6.007812.761718 12.160156 4.890625 16.648437 4.328125 4.785157 6.769531 10.980469 6.859375 17.433594v26.390625l17.136718-.066406-.066406-26.453125c.105469-6.441407 2.566406-12.621094 6.917969-17.375 3.234375-3.492188 5.085937-8.042969 5.207031-12.800781-.007812-6.027344-2.738281-11.734376-7.433594-15.519532-3.71875-3.035156-8.375-4.679687-13.175781-4.652344zm0 0"/><path d="m349.867188 238.933594h-51.199219v-61.203125c0-23.5625-19.105469-42.664063-42.667969-42.664063s-42.667969 19.101563-42.667969 42.664063v61.203125h-51.199219v-61.203125c0-51.839844 42.027344-93.863281 93.867188-93.863281s93.867188 42.023437 93.867188 93.863281zm-34.132813-17.066406h17.066406v-44.136719c0-42.414063-34.386719-76.796875-76.800781-76.796875s-76.800781 34.382812-76.800781 76.796875v44.136719h17.066406v-44.136719c0-32.988281 26.746094-59.730469 59.734375-59.730469s59.734375 26.742188 59.734375 59.730469zm0 0"/><path d="m401.066406 153.601562c-4.710937 0-8.53125-3.820312-8.53125-8.535156v-51.199218c0-4.714844 3.820313-8.535157 8.53125-8.535157 4.714844 0 8.535156 3.820313 8.535156 8.535157v51.199218c0 4.714844-3.820312 8.535156-8.535156 8.535156zm0 0"/><path d="m366.933594 153.601562c-4.714844 0-8.535156-3.820312-8.535156-8.535156v-51.199218c0-4.714844 3.820312-8.535157 8.535156-8.535157 4.710937 0 8.53125 3.820313 8.53125 8.535157v51.199218c0 4.714844-3.820313 8.535156-8.53125 8.535156zm0 0"/><path d="m435.199219 153.601562c-4.710938 0-8.53125-3.820312-8.53125-8.535156v-51.199218c0-4.714844 3.820312-8.535157 8.53125-8.535157 4.714843 0 8.535156 3.820313 8.535156 8.535157v51.199218c0 4.714844-3.820313 8.535156-8.535156 8.535156zm0 0"/><path d="m401.066406 332.800781c-4.710937 0-8.53125-3.820312-8.53125-8.535156v-51.199219c0-4.710937 3.820313-8.53125 8.53125-8.53125 4.714844 0 8.535156 3.820313 8.535156 8.53125v51.199219c0 4.714844-3.820312 8.535156-8.535156 8.535156zm0 0"/><path d="m452.265625 332.800781c-4.710937 0-8.53125-3.820312-8.53125-8.535156v-51.199219c0-4.710937 3.820313-8.53125 8.53125-8.53125 4.714844 0 8.535156 3.820313 8.535156 8.53125v51.199219c0 4.714844-3.820312 8.535156-8.535156 8.535156zm0 0"/><path d="m503.464844 332.800781c-4.710938 0-8.53125-3.820312-8.53125-8.535156v-51.199219c0-4.710937 3.820312-8.53125 8.53125-8.53125 4.714844 0 8.535156 3.820313 8.535156 8.53125v51.199219c0 4.714844-3.820312 8.535156-8.535156 8.535156zm0 0"/><path d="m494.933594 153.601562h-17.066406c-9.425782 0-17.066407-7.640624-17.066407-17.066406v-34.136718c0-9.425782 7.640625-17.066407 17.066407-17.066407h17.066406c9.425781 0 17.066406 7.640625 17.066406 17.066407v34.136718c0 9.425782-7.640625 17.066406-17.066406 17.066406zm-17.066406-51.203124v34.136718h17.066406v-34.136718zm0 0"/><path d="m503.464844 247.464844c-4.710938 0-8.53125-3.820313-8.53125-8.53125v-51.199219c0-4.714844 3.820312-8.535156 8.53125-8.535156 4.714844 0 8.535156 3.820312 8.535156 8.535156v51.199219c0 4.710937-3.820312 8.53125-8.535156 8.53125zm0 0"/><path d="m469.332031 247.464844c-4.710937 0-8.53125-3.820313-8.53125-8.53125v-51.199219c0-4.714844 3.820313-8.535156 8.53125-8.535156 4.714844 0 8.535157 3.820312 8.535157 8.535156v51.199219c0 4.710937-3.820313 8.53125-8.535157 8.53125zm0 0"/><path d="m426.667969 247.464844h-17.066407c-9.425781 0-17.066406-7.640625-17.066406-17.066406v-34.132813c0-9.425781 7.640625-17.066406 17.066406-17.066406h17.066407c9.425781 0 17.066406 7.640625 17.066406 17.066406v34.132813c0 9.425781-7.640625 17.066406-17.066406 17.066406zm-17.066407-51.199219v34.132813h17.066407v-34.132813zm0 0"/><path d="m401.066406 426.667969c-4.710937 0-8.53125-3.820313-8.53125-8.535157v-51.199218c0-4.714844 3.820313-8.535156 8.53125-8.535156 4.714844 0 8.535156 3.820312 8.535156 8.535156v51.199218c0 4.714844-3.820312 8.535157-8.535156 8.535157zm0 0"/><path d="m435.199219 426.667969c-4.710938 0-8.53125-3.820313-8.53125-8.535157v-51.199218c0-4.714844 3.820312-8.535156 8.53125-8.535156 4.714843 0 8.535156 3.820312 8.535156 8.535156v51.199218c0 4.714844-3.820313 8.535157-8.535156 8.535157zm0 0"/><path d="m494.933594 426.667969h-17.066406c-9.425782 0-17.066407-7.640625-17.066407-17.066407v-34.136718c0-9.425782 7.640625-17.066406 17.066407-17.066406h17.066406c9.425781 0 17.066406 7.640624 17.066406 17.066406v34.136718c0 9.425782-7.640625 17.066407-17.066406 17.066407zm-17.066406-51.203125v34.136718h17.066406v-34.136718zm0 0"/><path d="m110.933594 153.601562c-4.714844 0-8.535156-3.820312-8.535156-8.535156v-51.199218c0-4.714844 3.820312-8.535157 8.535156-8.535157 4.710937 0 8.53125 3.820313 8.53125 8.535157v51.199218c0 4.714844-3.820313 8.535156-8.53125 8.535156zm0 0"/><path d="m145.066406 153.601562c-4.710937 0-8.53125-3.820312-8.53125-8.535156v-51.199218c0-4.714844 3.820313-8.535157 8.53125-8.535157 4.714844 0 8.535156 3.820313 8.535156 8.535157v51.199218c0 4.714844-3.820312 8.535156-8.535156 8.535156zm0 0"/><path d="m76.800781 153.601562c-4.714843 0-8.535156-3.820312-8.535156-8.535156v-51.199218c0-4.714844 3.820313-8.535157 8.535156-8.535157 4.710938 0 8.53125 3.820313 8.53125 8.535157v51.199218c0 4.714844-3.820312 8.535156-8.53125 8.535156zm0 0"/><path d="m110.933594 332.800781c-4.714844 0-8.535156-3.820312-8.535156-8.535156v-51.199219c0-4.710937 3.820312-8.53125 8.535156-8.53125 4.710937 0 8.53125 3.820313 8.53125 8.53125v51.199219c0 4.714844-3.820313 8.535156-8.53125 8.535156zm0 0"/><path d="m59.734375 332.800781c-4.714844 0-8.535156-3.820312-8.535156-8.535156v-51.199219c0-4.710937 3.820312-8.53125 8.535156-8.53125 4.710937 0 8.53125 3.820313 8.53125 8.53125v51.199219c0 4.714844-3.820313 8.535156-8.53125 8.535156zm0 0"/><path d="m8.535156 332.800781c-4.714844 0-8.535156-3.820312-8.535156-8.535156v-51.199219c0-4.710937 3.820312-8.53125 8.535156-8.53125 4.710938 0 8.53125 3.820313 8.53125 8.53125v51.199219c0 4.714844-3.820312 8.535156-8.53125 8.535156zm0 0"/><path d="m34.132812 153.601562h-17.066406c-9.425781 0-17.066406-7.640624-17.066406-17.066406v-34.136718c0-9.425782 7.640625-17.066407 17.066406-17.066407h17.066406c9.425782 0 17.066407 7.640625 17.066407 17.066407v34.136718c0 9.425782-7.640625 17.066406-17.066407 17.066406zm-17.066406-51.203124v34.136718h17.066406v-34.136718zm0 0"/><path d="m8.535156 247.464844c-4.714844 0-8.535156-3.820313-8.535156-8.53125v-51.199219c0-4.714844 3.820312-8.535156 8.535156-8.535156 4.710938 0 8.53125 3.820312 8.53125 8.535156v51.199219c0 4.710937-3.820312 8.53125-8.53125 8.53125zm0 0"/><path d="m42.667969 247.464844c-4.714844 0-8.535157-3.820313-8.535157-8.53125v-51.199219c0-4.714844 3.820313-8.535156 8.535157-8.535156 4.710937 0 8.53125 3.820312 8.53125 8.535156v51.199219c0 4.710937-3.820313 8.53125-8.53125 8.53125zm0 0"/><path d="m102.398438 247.464844h-17.066407c-9.425781 0-17.066406-7.640625-17.066406-17.066406v-34.132813c0-9.425781 7.640625-17.066406 17.066406-17.066406h17.066407c9.425781 0 17.066406 7.640625 17.066406 17.066406v34.132813c0 9.425781-7.640625 17.066406-17.066406 17.066406zm-17.066407-51.199219v34.132813h17.066407v-34.132813zm0 0"/><path d="m110.933594 426.667969c-4.714844 0-8.535156-3.820313-8.535156-8.535157v-51.199218c0-4.714844 3.820312-8.535156 8.535156-8.535156 4.710937 0 8.53125 3.820312 8.53125 8.535156v51.199218c0 4.714844-3.820313 8.535157-8.53125 8.535157zm0 0"/><path d="m76.800781 426.667969c-4.714843 0-8.535156-3.820313-8.535156-8.535157v-51.199218c0-4.714844 3.820313-8.535156 8.535156-8.535156 4.710938 0 8.53125 3.820312 8.53125 8.535156v51.199218c0 4.714844-3.820312 8.535157-8.53125 8.535157zm0 0"/><path d="m34.132812 426.667969h-17.066406c-9.425781 0-17.066406-7.640625-17.066406-17.066407v-34.136718c0-9.425782 7.640625-17.066406 17.066406-17.066406h17.066406c9.425782 0 17.066407 7.640624 17.066407 17.066406v34.136718c0 9.425782-7.640625 17.066407-17.066407 17.066407zm-17.066406-51.203125v34.136718h17.066406v-34.136718zm0 0"/><path d="m494.933594 68.265625c-4.714844 0-8.535156-3.820313-8.535156-8.53125v-51.199219c0-4.714844 3.820312-8.535156 8.535156-8.535156 4.710937 0 8.53125 3.820312 8.53125 8.535156v51.199219c0 4.710937-3.820313 8.53125-8.53125 8.53125zm0 0"/><path d="m460.800781 68.265625c-4.714843 0-8.535156-3.820313-8.535156-8.53125v-51.199219c0-4.714844 3.820313-8.535156 8.535156-8.535156 4.710938 0 8.53125 3.820312 8.53125 8.535156v51.199219c0 4.710937-3.820312 8.53125-8.53125 8.53125zm0 0"/><path d="m358.398438 68.265625c-4.710938 0-8.53125-3.820313-8.53125-8.53125v-51.199219c0-4.714844 3.820312-8.535156 8.53125-8.535156 4.714843 0 8.535156 3.820312 8.535156 8.535156v51.199219c0 4.710937-3.820313 8.53125-8.535156 8.53125zm0 0"/><path d="m358.398438 68.265625c-4.710938 0-8.53125-3.820313-8.53125-8.53125v-51.199219c0-4.714844 3.820312-8.535156 8.53125-8.535156 4.714843 0 8.535156 3.820312 8.535156 8.535156v51.199219c0 4.710937-3.820313 8.53125-8.535156 8.53125zm0 0"/><path d="m256 68.265625c-4.710938 0-8.535156-3.820313-8.535156-8.53125v-51.199219c0-4.714844 3.824218-8.535156 8.535156-8.535156s8.535156 3.820312 8.535156 8.535156v51.199219c0 4.710937-3.824218 8.53125-8.535156 8.53125zm0 0"/><path d="m418.132812 68.265625h-17.066406c-9.425781 0-17.066406-7.640625-17.066406-17.066406v-34.132813c0-9.425781 7.640625-17.066406 17.066406-17.066406h17.066406c9.425782 0 17.066407 7.640625 17.066407 17.066406v34.132813c0 9.425781-7.640625 17.066406-17.066407 17.066406zm-17.066406-51.199219v34.132813h17.066406v-34.132813zm0 0"/><path d="m315.734375 68.265625h-17.066406c-9.425781 0-17.066407-7.640625-17.066407-17.066406v-34.132813c0-9.425781 7.640626-17.066406 17.066407-17.066406h17.066406c9.425781 0 17.066406 7.640625 17.066406 17.066406v34.132813c0 9.425781-7.640625 17.066406-17.066406 17.066406zm-17.066406-51.199219v34.132813h17.066406v-34.132813zm0 0"/><path d="m256 68.265625c-4.710938 0-8.535156-3.820313-8.535156-8.53125v-51.199219c0-4.714844 3.824218-8.535156 8.535156-8.535156s8.535156 3.820312 8.535156 8.535156v51.199219c0 4.710937-3.824218 8.53125-8.535156 8.53125zm0 0"/><path d="m221.867188 68.265625c-4.714844 0-8.535157-3.820313-8.535157-8.53125v-51.199219c0-4.714844 3.820313-8.535156 8.535157-8.535156 4.710937 0 8.53125 3.820312 8.53125 8.535156v51.199219c0 4.710937-3.820313 8.53125-8.53125 8.53125zm0 0"/><path d="m17.066406 68.265625c-4.710937 0-8.53125-3.820313-8.53125-8.53125v-51.199219c0-4.714844 3.820313-8.535156 8.53125-8.535156 4.714844 0 8.535156 3.820312 8.535156 8.535156v51.199219c0 4.710937-3.820312 8.53125-8.535156 8.53125zm0 0"/><path d="m17.066406 68.265625c-4.710937 0-8.53125-3.820313-8.53125-8.53125v-51.199219c0-4.714844 3.820313-8.535156 8.53125-8.535156 4.714844 0 8.535156 3.820312 8.535156 8.535156v51.199219c0 4.710937-3.820312 8.53125-8.535156 8.53125zm0 0"/><path d="m119.464844 68.265625c-4.710938 0-8.53125-3.820313-8.53125-8.53125v-51.199219c0-4.714844 3.820312-8.535156 8.53125-8.535156 4.714844 0 8.535156 3.820312 8.535156 8.535156v51.199219c0 4.710937-3.820312 8.53125-8.535156 8.53125zm0 0"/><path d="m119.464844 68.265625c-4.710938 0-8.53125-3.820313-8.53125-8.53125v-51.199219c0-4.714844 3.820312-8.535156 8.53125-8.535156 4.714844 0 8.535156 3.820312 8.535156 8.535156v51.199219c0 4.710937-3.820312 8.53125-8.535156 8.53125zm0 0"/><path d="m179.199219 68.265625h-17.066407c-9.425781 0-17.066406-7.640625-17.066406-17.066406v-34.132813c0-9.425781 7.640625-17.066406 17.066406-17.066406h17.066407c9.425781 0 17.066406 7.640625 17.066406 17.066406v34.132813c0 9.425781-7.640625 17.066406-17.066406 17.066406zm-17.066407-51.199219v34.132813h17.066407v-34.132813zm0 0"/><path d="m76.800781 68.265625h-17.066406c-9.425781 0-17.066406-7.640625-17.066406-17.066406v-34.132813c0-9.425781 7.640625-17.066406 17.066406-17.066406h17.066406c9.425781 0 17.066407 7.640625 17.066407 17.066406v34.132813c0 9.425781-7.640626 17.066406-17.066407 17.066406zm-17.066406-51.199219v34.132813h17.066406v-34.132813zm0 0"/><path d="m17.066406 512c-4.710937 0-8.53125-3.820312-8.53125-8.535156v-51.199219c0-4.710937 3.820313-8.53125 8.53125-8.53125 4.714844 0 8.535156 3.820313 8.535156 8.53125v51.199219c0 4.714844-3.820312 8.535156-8.535156 8.535156zm0 0"/><path d="m51.199219 512c-4.710938 0-8.53125-3.820312-8.53125-8.535156v-51.199219c0-4.710937 3.820312-8.53125 8.53125-8.53125 4.714843 0 8.535156 3.820313 8.535156 8.53125v51.199219c0 4.714844-3.820313 8.535156-8.535156 8.535156zm0 0"/><path d="m153.601562 512c-4.714843 0-8.535156-3.820312-8.535156-8.535156v-51.199219c0-4.710937 3.820313-8.53125 8.535156-8.53125 4.710938 0 8.53125 3.820313 8.53125 8.53125v51.199219c0 4.714844-3.820312 8.535156-8.53125 8.535156zm0 0"/><path d="m153.601562 512c-4.714843 0-8.535156-3.820312-8.535156-8.535156v-51.199219c0-4.710937 3.820313-8.53125 8.535156-8.53125 4.710938 0 8.53125 3.820313 8.53125 8.53125v51.199219c0 4.714844-3.820312 8.535156-8.53125 8.535156zm0 0"/><path d="m256 512c-4.710938 0-8.535156-3.820312-8.535156-8.535156v-51.199219c0-4.710937 3.824218-8.53125 8.535156-8.53125s8.535156 3.820313 8.535156 8.53125v51.199219c0 4.714844-3.824218 8.535156-8.535156 8.535156zm0 0"/><path d="m110.933594 512h-17.066406c-9.425782 0-17.066407-7.640625-17.066407-17.066406v-34.132813c0-9.425781 7.640625-17.066406 17.066407-17.066406h17.066406c9.425781 0 17.066406 7.640625 17.066406 17.066406v34.132813c0 9.425781-7.640625 17.066406-17.066406 17.066406zm-17.066406-51.199219v34.132813h17.066406v-34.132813zm0 0"/><path d="m213.332031 512h-17.066406c-9.425781 0-17.066406-7.640625-17.066406-17.066406v-34.132813c0-9.425781 7.640625-17.066406 17.066406-17.066406h17.066406c9.425781 0 17.066407 7.640625 17.066407 17.066406v34.132813c0 9.425781-7.640626 17.066406-17.066407 17.066406zm-17.066406-51.199219v34.132813h17.066406v-34.132813zm0 0"/><path d="m256 512c-4.710938 0-8.535156-3.820312-8.535156-8.535156v-51.199219c0-4.710937 3.824218-8.53125 8.535156-8.53125s8.535156 3.820313 8.535156 8.53125v51.199219c0 4.714844-3.824218 8.535156-8.535156 8.535156zm0 0"/><path d="m290.132812 512c-4.710937 0-8.53125-3.820312-8.53125-8.535156v-51.199219c0-4.710937 3.820313-8.53125 8.53125-8.53125 4.714844 0 8.535157 3.820313 8.535157 8.53125v51.199219c0 4.714844-3.820313 8.535156-8.535157 8.535156zm0 0"/><path d="m494.933594 512c-4.714844 0-8.535156-3.820312-8.535156-8.535156v-51.199219c0-4.710937 3.820312-8.53125 8.535156-8.53125 4.710937 0 8.53125 3.820313 8.53125 8.53125v51.199219c0 4.714844-3.820313 8.535156-8.53125 8.535156zm0 0"/><path d="m494.933594 512c-4.714844 0-8.535156-3.820312-8.535156-8.535156v-51.199219c0-4.710937 3.820312-8.53125 8.535156-8.53125 4.710937 0 8.53125 3.820313 8.53125 8.53125v51.199219c0 4.714844-3.820313 8.535156-8.53125 8.535156zm0 0"/><path d="m392.535156 512c-4.714844 0-8.535156-3.820312-8.535156-8.535156v-51.199219c0-4.710937 3.820312-8.53125 8.535156-8.53125 4.710938 0 8.53125 3.820313 8.53125 8.53125v51.199219c0 4.714844-3.820312 8.535156-8.53125 8.535156zm0 0"/><path d="m392.535156 512c-4.714844 0-8.535156-3.820312-8.535156-8.535156v-51.199219c0-4.710937 3.820312-8.53125 8.535156-8.53125 4.710938 0 8.53125 3.820313 8.53125 8.53125v51.199219c0 4.714844-3.820312 8.535156-8.53125 8.535156zm0 0"/><path d="m349.867188 512h-17.066407c-9.425781 0-17.066406-7.640625-17.066406-17.066406v-34.132813c0-9.425781 7.640625-17.066406 17.066406-17.066406h17.066407c9.425781 0 17.066406 7.640625 17.066406 17.066406v34.132813c0 9.425781-7.640625 17.066406-17.066406 17.066406zm-17.066407-51.199219v34.132813h17.066407v-34.132813zm0 0"/><path d="m452.265625 512h-17.066406c-9.425781 0-17.066407-7.640625-17.066407-17.066406v-34.132813c0-9.425781 7.640626-17.066406 17.066407-17.066406h17.066406c9.425781 0 17.066406 7.640625 17.066406 17.066406v34.132813c0 9.425781-7.640625 17.066406-17.066406 17.066406zm-17.066406-51.199219v34.132813h17.066406v-34.132813zm0 0"/></svg>