<?xml version="1.0" encoding="iso-8859-1"?>
<!-- Generator: Adobe Illustrator 19.0.0, SVG Export Plug-In . SVG Version: 6.00 Build 0)  -->
<svg version="1.1" id="Capa_1" xmlns="http://www.w3.org/2000/svg" xmlns:xlink="http://www.w3.org/1999/xlink" x="0px" y="0px"
	 viewBox="0 0 469.333 469.333" style="enable-background:new 0 0 469.333 469.333;" xml:space="preserve">
<path style="fill:#E53935;" d="M412.875,312.458c-4.167-4.167-10.917-4.167-15.083,0l-35.125,35.125l-35.125-35.125
	c-4.167-4.167-10.917-4.167-15.083,0s-4.167,10.917,0,15.083l35.125,35.125l-35.125,35.125c-4.167,4.167-4.167,10.917,0,15.083
	c2.083,2.083,4.813,3.125,7.542,3.125c2.729,0,5.458-1.042,7.542-3.125l35.125-35.125l35.125,35.125
	c2.083,2.083,4.813,3.125,7.542,3.125s5.458-1.042,7.542-3.125c4.167-4.167,4.167-10.917,0-15.083l-35.125-35.125l35.125-35.125
	C417.042,323.375,417.042,316.625,412.875,312.458z"/>
<path style="fill:#303C42;" d="M170.667,0h-128C19.135,0,0,19.135,0,42.667v128c0,23.531,19.135,42.667,42.667,42.667h128
	c23.531,0,42.667-19.135,42.667-42.667v-128C213.333,19.135,194.198,0,170.667,0z"/>
<path style="fill:#00B5EF;" d="M192,170.667c0,11.76-9.573,21.333-21.333,21.333h-128c-11.76,0-21.333-9.573-21.333-21.333v-128
	c0-11.76,9.573-21.333,21.333-21.333h128c11.76,0,21.333,9.573,21.333,21.333V170.667z"/>
<path style="opacity:0.2;fill:#FFFFFF;enable-background:new    ;" d="M96,42.667h96c0-11.76-9.573-21.333-21.333-21.333h-128
	c-11.76,0-21.333,9.573-21.333,21.333v128c0,11.76,9.573,21.333,21.333,21.333h10.667V85.333C53.333,61.768,72.436,42.667,96,42.667
	z"/>
<path style="fill:#303C42;" d="M426.667,0h-128C275.135,0,256,19.135,256,42.667v128c0,23.531,19.135,42.667,42.667,42.667h128
	c23.531,0,42.667-19.135,42.667-42.667v-128C469.333,19.135,450.198,0,426.667,0z"/>
<path style="fill:#00B5EF;" d="M448,170.667c0,11.76-9.573,21.333-21.333,21.333h-128c-11.76,0-21.333-9.573-21.333-21.333v-128
	c0-11.76,9.573-21.333,21.333-21.333h128c11.76,0,21.333,9.573,21.333,21.333V170.667z"/>
<path style="opacity:0.2;fill:#FFFFFF;enable-background:new    ;" d="M352,42.667h96c0-11.76-9.573-21.333-21.333-21.333h-128
	c-11.76,0-21.333,9.573-21.333,21.333v128c0,11.76,9.573,21.333,21.333,21.333h10.667V85.333
	C309.333,61.768,328.436,42.667,352,42.667z"/>
<path style="fill:#303C42;" d="M170.667,256h-128C19.135,256,0,275.135,0,298.667v128c0,23.531,19.135,42.667,42.667,42.667h128
	c23.531,0,42.667-19.135,42.667-42.667v-128C213.333,275.135,194.198,256,170.667,256z"/>
<path style="fill:#00B5EF;" d="M192,426.667c0,11.76-9.573,21.333-21.333,21.333h-128c-11.76,0-21.333-9.573-21.333-21.333v-128
	c0-11.76,9.573-21.333,21.333-21.333h128c11.76,0,21.333,9.573,21.333,21.333V426.667z"/>
<path style="opacity:0.2;fill:#FFFFFF;enable-background:new    ;" d="M96,298.667h96c0-11.76-9.573-21.333-21.333-21.333h-128
	c-11.76,0-21.333,9.573-21.333,21.333v128c0,11.76,9.573,21.333,21.333,21.333h10.667V341.333
	C53.333,317.768,72.436,298.667,96,298.667z"/>
<linearGradient id="SVGID_1_" gradientUnits="userSpaceOnUse" x1="-68.6888" y1="619.0505" x2="-45.9478" y2="608.447" gradientTransform="matrix(21.3333 0 0 -21.3333 1430.1112 13315.2227)">
	<stop  offset="0" style="stop-color:#FFFFFF;stop-opacity:0.2"/>
	<stop  offset="1" style="stop-color:#FFFFFF;stop-opacity:0"/>
</linearGradient>
<path style="fill:url(#SVGID_1_);" d="M412.875,312.458c-4.167-4.167-10.917-4.167-15.083,0l-35.125,35.125l-35.125-35.125
	c-4.167-4.167-10.917-4.167-15.083,0s-4.167,10.917,0,15.083l35.125,35.125l-35.125,35.125c-4.167,4.167-4.167,10.917,0,15.083
	c2.083,2.083,4.813,3.125,7.542,3.125c2.729,0,5.458-1.042,7.542-3.125l35.125-35.125l35.125,35.125
	c2.083,2.083,4.813,3.125,7.542,3.125s5.458-1.042,7.542-3.125c4.167-4.167,4.167-10.917,0-15.083l-35.125-35.125l35.125-35.125
	C417.042,323.375,417.042,316.625,412.875,312.458z M170.667,0h-128C19.135,0,0,19.135,0,42.667v128
	c0,23.531,19.135,42.667,42.667,42.667h128c23.531,0,42.667-19.135,42.667-42.667v-128C213.333,19.135,194.198,0,170.667,0z
	 M426.667,0h-128C275.135,0,256,19.135,256,42.667v128c0,23.531,19.135,42.667,42.667,42.667h128
	c23.531,0,42.667-19.135,42.667-42.667v-128C469.333,19.135,450.198,0,426.667,0z M170.667,256h-128C19.135,256,0,275.135,0,298.667
	v128c0,23.531,19.135,42.667,42.667,42.667h128c23.531,0,42.667-19.135,42.667-42.667v-128C213.333,275.135,194.198,256,170.667,256
	z"/>
<g>
</g>
<g>
</g>
<g>
</g>
<g>
</g>
<g>
</g>
<g>
</g>
<g>
</g>
<g>
</g>
<g>
</g>
<g>
</g>
<g>
</g>
<g>
</g>
<g>
</g>
<g>
</g>
<g>
</g>
</svg>
