<svg height="513pt" viewBox="0 0 513 513.024" width="513pt" xmlns="http://www.w3.org/2000/svg"><path d="m355.210938 10.644531h-283.730469c-33.582031 0-60.800781 26.921875-60.800781 60.140625v280.617188c0 33.214844 27.21875 60.140625 60.800781 60.140625h283.730469c33.578124 0 60.800781-26.925781 60.800781-60.140625v-280.617188c0-33.21875-27.222657-60.140625-60.800781-60.140625zm0 0" fill="#607d8b"/><path d="m320.011719 199.0625c-66.902344 0-121.34375 54.546875-121.34375 121.597656 0 67.050782 54.421875 121.601563 121.34375 121.601563 26.15625 0 50.347656-8.425781 70.1875-22.59375l28.585937-28.648438c14.144532-19.882812 22.550782-44.117187 22.550782-70.335937 0-67.09375-54.421876-121.621094-121.324219-121.621094zm0 0" fill="#f44336"/><path d="m368.011719 336.660156h-96c-8.832031 0-16-7.167968-16-16 0-8.832031 7.167969-16 16-16h96c8.832031 0 16 7.167969 16 16 0 8.832032-7.167969 16-16 16zm0 0"/><path d="m154.679688 427.519531h-96c-32.363282 0-58.6679692-26.367187-58.6679692-58.75v-310.015625c0-32.40625 26.3046872-58.753906 58.6679692-58.753906h314.664062c32.363281 0 58.667969 26.367188 58.667969 58.753906v96.210938c0 8.832031-7.167969 16-16 16s-16-7.167969-16-16v-96.210938c0-14.765625-11.96875-26.753906-26.667969-26.753906h-314.664062c-14.699219 0-26.667969 11.988281-26.667969 26.753906v310.015625c0 14.761719 11.96875 26.75 26.667969 26.75h96c8.832031 0 16 7.167969 16 16s-7.167969 16-16 16zm0 0"/><path d="m320.011719 448.894531c-70.589844 0-128-57.535156-128-128.234375 0-70.71875 57.410156-128.253906 128-128.253906 70.59375 0 128 57.535156 128 128.253906 0 70.699219-57.40625 128.234375-128 128.234375zm0-224.488281c-52.925781 0-96 43.179688-96 96.253906 0 53.058594 43.074219 96.234375 96 96.234375 52.929687 0 96-43.175781 96-96.234375 0-53.074218-43.070313-96.253906-96-96.253906zm0 0"/><path d="m496.011719 513.023438c-4.097657 0-8.214844-1.558594-11.328125-4.691407l-96.851563-97.066406c-6.230469-6.253906-6.230469-16.386719.042969-22.636719 6.207031-6.25 16.382812-6.230468 22.632812.023438l96.855469 97.066406c6.226563 6.25 6.226563 16.382812-.042969 22.632812-3.117187 3.113282-7.234374 4.671876-11.308593 4.671876zm0 0"/></svg>