<svg height="512pt" viewBox="-72 0 512 512" width="512pt" xmlns="http://www.w3.org/2000/svg"><g fill-rule="evenodd"><path d="m10 10h253.050781l94.796875 94.796875v397.203125h-347.847656zm0 0" fill="#f8f8f8"/><path d="m263.050781 10v94.796875h94.796875zm0 0" fill="#55b2ff"/><path d="m204.273438 158.835938c7.789062 1.972656 15.136718 5.054687 21.867187 9.066406l17.027344-17.03125 28.773437 28.777344-17.027344 17.027343c4.011719 6.730469 7.09375 14.078125 9.066407 21.871094h24.074219v40.691406h-24.070313c-1.976563 7.792969-5.058594 15.140625-9.070313 21.871094l17.03125 17.027344-28.777343 28.777343-17.027344-17.03125c-6.730469 4.011719-14.078125 7.09375-21.867187 9.066407v24.074219h-40.695313v-24.074219c-7.792969-1.972657-15.140625-5.054688-21.871094-9.0625l-17.027343 17.027343-28.773438-28.777343 17.027344-17.027344c-4.007813-6.730469-7.089844-14.078125-9.066406-21.871094h-24.074219v-40.691406h24.074219c1.972656-7.792969 5.054687-15.140625 9.066406-21.871094l-17.027344-17.027343 28.773438-28.777344 17.027343 17.03125c6.730469-4.011719 14.078125-7.09375 21.871094-9.066406v-24.074219h40.695313zm-20.351563 42.753906c-20.601563 0-37.304687 16.699218-37.304687 37.304687 0 20.601563 16.703124 37.304688 37.304687 37.304688 20.605469 0 37.308594-16.703125 37.308594-37.304688 0-20.605469-16.703125-37.304687-37.308594-37.304687zm0 0" fill="#ffcb78"/><path d="m364.917969 97.726562-94.796875-94.796874c-1.875-1.875-4.417969-2.929688-7.070313-2.929688h-253.050781c-5.523438 0-10 4.476562-10 10v492c0 5.523438 4.476562 10 10 10h347.847656c5.519532 0 10-4.476562 10-10v-397.203125c0-2.652344-1.054687-5.195313-2.929687-7.070313zm-31.683594-2.757812h-60.300781v-60.125zm-313.234375 397.03125v-472h233.050781v84.882812c0 5.476563 4.449219 9.914063 9.941407 9.914063h84.855468v377.203125zm0 0"/><path d="m288.054688 208.546875h-16.640626c-1.1875-3.429687-2.582031-6.785156-4.171874-10.058594l11.773437-11.769531c3.902344-3.90625 3.902344-10.238281 0-14.140625l-28.777344-28.777344c-1.875-1.875-4.417969-2.929687-7.070312-2.929687-2.652344 0-5.195313 1.054687-7.070313 2.929687l-11.769531 11.769531c-3.269531-1.589843-6.628906-2.980468-10.058594-4.171874v-16.636719c0-5.523438-4.476562-10-10-10h-40.695312c-5.519531 0-10 4.476562-10 10v16.636719c-3.429688 1.191406-6.785157 2.582031-10.054688 4.171874l-11.769531-11.769531c-1.878906-1.875-4.421875-2.929687-7.070312-2.929687-2.652344 0-5.199219 1.054687-7.074219 2.929687l-28.773438 28.777344c-3.90625 3.902344-3.90625 10.234375 0 14.140625l11.769531 11.769531c-1.589843 3.269531-2.980468 6.628907-4.171874 10.058594h-16.640626c-5.523437 0-10 4.476563-10 10v40.695313c0 5.523437 4.476563 10 10 10h16.644532c1.1875 3.429687 2.578125 6.785156 4.167968 10.054687l-11.769531 11.769531c-3.90625 3.90625-3.90625 10.238282 0 14.144532l28.773438 28.773437c1.875 1.875 4.417969 2.929687 7.070312 2.929687 2.652344 0 5.195313-1.054687 7.070313-2.929687l11.773437-11.769531c3.269531 1.589844 6.625 2.980468 10.054688 4.171875v16.636719c0 5.523437 4.480469 10 10 10h40.695312c5.523438 0 10-4.476563 10-10v-16.636719c3.433594-1.191407 6.789063-2.582031 10.058594-4.171875l11.769531 11.769531c1.875 1.875 4.417969 2.929687 7.070313 2.929687 2.652343 0 5.195312-1.054687 7.070312-2.929687l28.777344-28.773437c3.902344-3.90625 3.902344-10.238282 0-14.144532l-11.773437-11.769531c1.589843-3.269531 2.980468-6.625 4.171874-10.058594h16.640626c5.523437 0 10-4.476562 10-10v-40.691406c0-5.523437-4.476563-10-10-10zm-10 40.695313h-14.070313c-4.578125 0-8.570313 3.105468-9.695313 7.539062-1.710937 6.75-4.390624 13.210938-7.964843 19.207031-2.34375 3.933594-1.71875 8.953125 1.519531 12.191407l9.960938 9.960937-14.636719 14.632813-9.957031-9.957032c-3.238282-3.238281-8.261719-3.863281-12.191407-1.519531-5.992187 3.570313-12.453125 6.25-19.203125 7.960937-4.433594 1.125-7.542968 5.117188-7.542968 9.691407v14.074219h-20.695313v-14.070313c0-4.578125-3.105469-8.570313-7.542969-9.695313-6.75-1.710937-13.210937-4.390624-19.207031-7.960937-3.933594-2.34375-8.957031-1.71875-12.191406 1.519531l-9.957031 9.957032-14.632813-14.632813 9.957031-9.957031c3.238282-3.238282 3.863282-8.257813 1.519532-12.191406-3.574219-6-6.253907-12.460938-7.960938-19.207032-1.125-4.4375-5.117188-7.542968-9.695312-7.542968h-14.074219v-20.695313h14.070312c4.578125 0 8.570313-3.105469 9.695313-7.542969 1.710937-6.746094 4.390625-13.207031 7.964844-19.203125 2.34375-3.933593 1.71875-8.957031-1.519532-12.191406l-9.957031-9.960937 14.632813-14.632813 9.957031 9.957031c3.234375 3.238282 8.257812 3.863282 12.1875 1.519532 6-3.574219 12.460937-6.253907 19.207031-7.964844 4.4375-1.121094 7.546875-5.117188 7.546875-9.691406v-14.074219h20.695313v14.074219c0 4.578124 3.105468 8.570312 7.542968 9.695312 6.746094 1.707031 13.207032 4.386719 19.203125 7.960938 3.933594 2.34375 8.957031 1.71875 12.191407-1.519532l9.957031-9.957031 14.632812 14.632813-9.957031 9.960937c-3.238281 3.234375-3.863281 8.253906-1.519531 12.1875 3.574219 6 6.253906 12.464844 7.960937 19.207031 1.125 4.4375 5.117188 7.542969 9.695313 7.542969h14.074219zm0 0"/><path d="m183.921875 191.589844c-26.082031 0-47.304687 21.21875-47.304687 47.304687 0 26.082031 21.222656 47.304688 47.304687 47.304688 26.085937 0 47.308594-21.222657 47.308594-47.304688 0-26.085937-21.222657-47.304687-47.308594-47.304687zm0 74.609375c-15.054687 0-27.304687-12.25-27.304687-27.304688 0-15.054687 12.25-27.304687 27.304687-27.304687 15.058594 0 27.308594 12.25 27.308594 27.304687 0 15.054688-12.25 27.304688-27.308594 27.304688zm0 0"/><path d="m143.921875 429.523438h-61.0625c-5.523437 0-10 4.476562-10 10 0 5.523437 4.476563 10 10 10h61.0625c5.523437 0 10-4.476563 10-10 0-5.523438-4.476563-10-10-10zm0 0"/><path d="m284.984375 429.523438h-61.0625c-5.519531 0-10 4.476562-10 10 0 5.523437 4.480469 10 10 10h61.0625c5.523437 0 10-4.476563 10-10 0-5.523438-4.476563-10-10-10zm0 0"/><path d="m248.164062 405.648438c5.523438 0 10-4.476563 10-10 0-5.523438-4.476562-10-10-10h-128.480468c-5.523438 0-10 4.476562-10 10 0 5.523437 4.476562 10 10 10zm0 0"/><path d="m183.921875 429.523438c-5.507813 0-10 4.492187-10 10 0 5.507812 4.492187 10 10 10s10-4.492188 10-10c0-5.507813-4.492187-10-10-10zm0 0"/></g></svg>