<svg height="512pt" viewBox="0 0 512 512" width="512pt" xmlns="http://www.w3.org/2000/svg"><path d="m316.25 0c-42.851562 0-83.546875 13.597656-117.679688 39.316406-33.007812 24.871094-57.75 60.242188-69.675781 99.597656-1.605469 5.296876-.164062 11.042969 3.746094 14.953126 3.914063 3.914062 9.65625 5.355468 14.953125 3.753906 15.605469-4.71875 31.8125-7.113282 48.167969-7.113282 44.269531 0 85.890625 17.238282 117.191406 48.539063 43.308594 43.308594 59.179687 106.671875 41.421875 165.359375-1.605469 5.296875-.160156 11.042969 3.753906 14.953125 2.851563 2.855469 6.683594 4.394531 10.601563 4.394531 1.453125 0 2.917969-.214844 4.351562-.648437 39.355469-11.921875 74.730469-36.667969 99.601563-69.671875 25.71875-34.136719 39.316406-74.832032 39.316406-117.683594 0-107.9375-87.8125-195.75-195.75-195.75zm0 0" fill="#a8ebfa"/><path d="m312.953125 199.050781c43.308594 43.304688 59.179687 106.667969 41.421875 165.355469-1.605469 5.296875-.160156 11.042969 3.753906 14.953125 2.851563 2.855469 6.683594 4.394531 10.601563 4.394531 1.453125 0 2.917969-.214844 4.351562-.648437 39.355469-11.921875 74.730469-36.667969 99.601563-69.671875 25.71875-34.136719 39.316406-74.832032 39.316406-117.683594 0-53.96875-21.953125-102.90625-57.398438-138.351562zm0 0" fill="#76e2f8"/><path d="m379.335938 358.144531c-3.910157-3.910156-9.65625-5.351562-14.953126-3.746093-15.5625 4.710937-31.753906 7.105468-48.132812 7.105468-91.394531-.003906-165.75-74.359375-165.75-165.75 0-16.382812 2.390625-32.578125 7.105469-48.140625 1.605469-5.292969.164062-11.039062-3.746094-14.953125-3.910156-3.910156-9.65625-5.355468-14.953125-3.753906-30.621094 9.265625-58.828125 26.183594-81.570312 48.925781-36.976563 36.972657-57.335938 86.128907-57.335938 138.417969 0 52.285156 20.363281 101.445312 57.335938 138.414062 36.972656 36.972657 86.128906 57.332032 138.414062 57.332032s101.441406-20.359375 138.414062-57.332032c22.742188-22.738281 39.660157-50.945312 48.925782-81.566406 1.601562-5.296875.15625-11.042968-3.753906-14.953125zm0 0" fill="#0065a3"/><path d="m364.382812 354.394531c-15.5625 4.714844-31.753906 7.105469-48.132812 7.105469-45.695312 0-87.136719-18.589844-117.148438-48.601562l-141.765624 141.765624c36.972656 36.972657 86.128906 57.332032 138.414062 57.332032s101.441406-20.359375 138.414062-57.332032c22.742188-22.738281 39.660157-50.945312 48.925782-81.566406 1.601562-5.296875.15625-11.042968-3.753906-14.953125-3.910157-3.910156-9.65625-5.351562-14.953126-3.75zm0 0" fill="#005183"/><path d="m334.164062 177.835938c-36.964843-36.96875-86.117187-57.328126-138.402343-57.328126-19.300781 0-38.429688 2.828126-56.855469 8.398438-4.800781 1.453125-8.558594 5.207031-10.011719 10.007812-5.570312 18.386719-8.394531 37.507813-8.394531 56.835938 0 107.9375 87.8125 195.75 195.75 195.75 19.324219 0 38.445312-2.824219 56.828125-8.394531 4.804687-1.453125 8.558594-5.210938 10.011719-10.011719 20.964844-69.296875 2.21875-144.117188-48.925782-195.257812zm0 0" fill="#008adf"/><path d="m177.898438 334.101562c35.445312 35.445313 84.382812 57.398438 138.351562 57.402344 19.324219 0 38.445312-2.824218 56.828125-8.394531 4.804687-1.457031 8.558594-5.210937 10.011719-10.011719 20.964844-69.300781 2.21875-144.121094-48.925782-195.261718zm0 0" fill="#0065a3"/><path d="m42.707031 427.484375c-3.839843 0-7.675781-1.464844-10.605469-4.390625-5.859374-5.859375-5.859374-15.355469 0-21.214844l249.277344-249.277344c5.859375-5.859374 15.355469-5.859374 21.214844 0 5.855469 5.855469 5.855469 15.355469 0 21.210938l-249.28125 249.28125c-2.925781 2.925781-6.765625 4.390625-10.605469 4.390625zm0 0" fill="#005183"/><path d="m15.285156 341.304688c-3.839844 0-7.679687-1.464844-10.605468-4.394532-5.859376-5.855468-5.859376-15.355468 0-21.214844l190.519531-190.519531c5.859375-5.859375 15.355469-5.859375 21.214843 0 5.855469 5.855469 5.855469 15.355469 0 21.214844l-190.523437 190.519531c-2.925781 2.929688-6.765625 4.394532-10.605469 4.394532zm0 0" fill="#005183"/><g fill="#00215a"><path d="m99.507812 484.285156c-3.839843 0-7.679687-1.464844-10.609374-4.394531-5.855469-5.855469-5.855469-15.355469 0-21.210937l249.289062-249.277344c5.855469-5.855469 15.355469-5.855469 21.210938 0 5.859374 5.859375 5.859374 15.355468 0 21.214844l-249.285157 249.277343c-2.929687 2.925781-6.769531 4.390625-10.605469 4.390625zm0 0"/><path d="m185.695312 511.714844c-3.839843 0-7.679687-1.464844-10.605468-4.394532-5.859375-5.855468-5.859375-15.355468 0-21.214843l190.519531-190.519531c5.859375-5.855469 15.355469-5.859376 21.214844 0 5.855469 5.859374 5.855469 15.355468 0 21.214843l-190.523438 190.519531c-2.929687 2.929688-6.765625 4.394532-10.605469 4.394532zm0 0"/></g></svg>