<?xml version="1.0" encoding="iso-8859-1"?>
<!-- Generator: Adobe Illustrator 19.0.0, SVG Export Plug-In . SVG Version: 6.00 Build 0)  -->
<svg version="1.1" id="Capa_1" xmlns="http://www.w3.org/2000/svg" xmlns:xlink="http://www.w3.org/1999/xlink" x="0px" y="0px"
	 viewBox="0 0 389.12 389.12" style="enable-background:new 0 0 389.12 389.12;" xml:space="preserve">
<polyline style="fill:#FFFFFF;" points="331.093,310.361 331.093,382.293 58.026,382.293 58.026,6.827 284.743,6.827 
	331.093,47.787 331.093,266.237 "/>
<path style="fill:#602F75;" d="M331.093,389.12H58.026c-3.768,0-6.827-3.055-6.827-6.827V6.827C51.199,3.055,54.258,0,58.026,0
	h226.717c1.666,0,3.273,0.608,4.519,1.713l46.35,40.96c1.468,1.294,2.307,3.154,2.307,5.113V266.24c0,3.772-3.058,6.827-6.827,6.827
	s-6.827-3.055-6.827-6.827V50.865l-42.107-37.212H64.853v361.813h259.413v-65.106c0-3.772,3.058-6.827,6.827-6.827
	s6.827,3.055,6.827,6.827v71.933C337.919,386.065,334.861,389.12,331.093,389.12z"/>
<polygon style="fill:#FFFFFF;" points="331.093,47.787 283.306,47.787 283.306,6.827 "/>
<path style="fill:#602F75;" d="M331.093,54.613h-47.787c-3.768,0-6.827-3.055-6.827-6.827V6.827c0-2.666,1.553-5.086,3.973-6.199
	c2.427-1.113,5.274-0.713,7.298,1.021l47.787,40.96c2.171,1.853,2.949,4.867,1.959,7.547
	C336.503,52.835,333.95,54.613,331.093,54.613z M290.133,40.96h22.508l-22.508-19.292V40.96z"/>
<rect x="58.026" y="150.187" style="fill:#EA3457;" width="225.28" height="116.053"/>
<path style="fill:#602F75;" d="M283.306,273.067H58.026c-3.768,0-6.827-3.055-6.827-6.827V150.187c0-3.772,3.058-6.827,6.827-6.827
	h225.28c3.768,0,6.827,3.055,6.827,6.827V266.24C290.133,270.012,287.074,273.067,283.306,273.067z M64.853,259.413h211.627v-102.4
	H64.853V259.413z"/>
<g>
	<path style="fill:#FFE600;" d="M118.958,196.161h-11.162v38.68h-6.639v-38.68H93.32v-3l7.84-2.4v-2.441
		c0-10.772,4.707-16.159,14.121-16.159c2.321,0,5.041,0.468,8.161,1.399l-1.72,5.321c-2.56-0.826-4.748-1.239-6.56-1.239
		c-2.505,0-4.359,0.833-5.56,2.499c-1.201,1.666-1.799,4.338-1.799,8.021v2.84h11.162v5.158H118.958z"/>
	<path style="fill:#FFE600;" d="M164.799,212.879c0,7.148-1.799,12.728-5.4,16.739c-3.601,4.011-8.574,6.021-14.92,6.021
		c-3.919,0-7.4-0.922-10.441-2.761c-3.041-1.84-5.386-4.478-7.038-7.919c-1.652-3.441-2.481-7.468-2.481-12.08
		c0-7.148,1.785-12.715,5.359-16.701s8.533-5.98,14.879-5.98c6.134,0,11.008,2.041,14.619,6.12
		C162.986,200.397,164.799,205.92,164.799,212.879z M131.399,212.879c0,5.601,1.12,9.868,3.359,12.8s5.533,4.4,9.882,4.4
		c4.345,0,7.646-1.461,9.899-4.379c2.253-2.918,3.379-7.192,3.379-12.82c0-5.574-1.126-9.807-3.379-12.701
		c-2.253-2.895-5.581-4.338-9.981-4.338c-4.345,0-7.625,1.427-9.841,4.28C132.502,202.974,131.399,207.227,131.399,212.879z"/>
	<path style="fill:#FFE600;" d="M206.438,234.841v-28.361c0-3.574-0.812-6.24-2.441-8.001c-1.628-1.761-4.174-2.639-7.639-2.639
		c-4.588,0-7.946,1.239-10.08,3.721c-2.133,2.481-3.202,6.574-3.202,12.281v22.999h-6.639V191h5.4l1.079,6.001h0.321
		c1.359-2.161,3.267-3.833,5.721-5.021s5.188-1.778,8.199-1.778c5.28,0,9.254,1.273,11.919,3.82s4,6.618,4,12.22v28.6H206.438z"/>
	<path style="fill:#FFE600;" d="M240.878,230.161c1.174,0,2.307-0.085,3.4-0.259s1.959-0.355,2.601-0.539v5.079
		c-0.72,0.348-1.778,0.635-3.181,0.86c-1.403,0.225-2.659,0.341-3.779,0.341c-8.479,0-12.721-4.468-12.721-13.401v-26.081h-6.281
		v-3.202l6.281-2.761l2.799-9.359h3.84V191h12.721v5.161h-12.721v25.801c0,2.639,0.628,4.666,1.881,6.079
		C236.97,229.455,238.694,230.161,240.878,230.161z"/>
</g>
<rect x="64.853" y="334.507" style="fill:#00E7FF;" width="259.413" height="40.96"/>
<g>
</g>
<g>
</g>
<g>
</g>
<g>
</g>
<g>
</g>
<g>
</g>
<g>
</g>
<g>
</g>
<g>
</g>
<g>
</g>
<g>
</g>
<g>
</g>
<g>
</g>
<g>
</g>
<g>
</g>
</svg>
