<?xml version="1.0" encoding="UTF-8"?>
<svg xmlns="http://www.w3.org/2000/svg" xmlns:xlink="http://www.w3.org/1999/xlink" width="64pt" height="64pt" viewBox="0 0 64 64" version="1.1">
<g id="surface10934902">
<path style=" stroke:none;fill-rule:nonzero;fill:rgb(0%,0%,0%);fill-opacity:1;" d="M 22.660156 4 C 21.332031 3.996094 20.058594 4.523438 19.117188 5.460938 L 10.460938 14.117188 C 9.523438 15.058594 8.996094 16.332031 9 17.660156 L 9 57 C 9 58.65625 10.34375 60 12 60 L 52 60 C 53.65625 60 55 58.65625 55 57 L 55 7 C 55 5.34375 53.65625 4 52 4 Z M 23 6 L 52 6 C 52.550781 6 53 6.449219 53 7 L 53 57 C 53 57.550781 52.550781 58 52 58 L 12 58 C 11.449219 58 11 57.550781 11 57 L 11 18 L 20 18 C 21.65625 18 23 16.65625 23 15 Z M 21 6.5 L 21 15 C 21 15.550781 20.550781 16 20 16 L 11.5 16 C 11.609375 15.835938 11.738281 15.679688 11.882812 15.539062 L 20.539062 6.882812 C 20.679688 6.738281 20.835938 6.609375 21 6.5 Z M 14 50 C 13.449219 50 13 50.449219 13 51 L 13 53 C 13 53.550781 13.449219 54 14 54 C 14.550781 54 15 53.550781 15 53 L 15 51 C 15 50.449219 14.550781 50 14 50 Z M 19 50 C 18.449219 50 18 50.449219 18 51 L 18 53 C 18 53.550781 18.449219 54 19 54 C 19.550781 54 20 53.550781 20 53 L 20 51 C 20 50.449219 19.550781 50 19 50 Z M 24 50 C 23.449219 50 23 50.449219 23 51 L 23 53 C 23 53.550781 23.449219 54 24 54 C 24.550781 54 25 53.550781 25 53 L 25 51 C 25 50.449219 24.550781 50 24 50 Z M 29 50 C 28.449219 50 28 50.449219 28 51 L 28 53 C 28 53.550781 28.449219 54 29 54 C 29.550781 54 30 53.550781 30 53 L 30 51 C 30 50.449219 29.550781 50 29 50 Z M 34 50 C 33.449219 50 33 50.449219 33 51 L 33 53 C 33 53.550781 33.449219 54 34 54 C 34.550781 54 35 53.550781 35 53 L 35 51 C 35 50.449219 34.550781 50 34 50 Z M 39 50 C 38.449219 50 38 50.449219 38 51 L 38 53 C 38 53.550781 38.449219 54 39 54 C 39.550781 54 40 53.550781 40 53 L 40 51 C 40 50.449219 39.550781 50 39 50 Z M 44 50 C 43.449219 50 43 50.449219 43 51 L 43 53 C 43 53.550781 43.449219 54 44 54 C 44.550781 54 45 53.550781 45 53 L 45 51 C 45 50.449219 44.550781 50 44 50 Z M 49 50 C 48.449219 50 48 50.449219 48 51 L 48 53 C 48 53.550781 48.449219 54 49 54 C 49.550781 54 50 53.550781 50 53 L 50 51 C 50 50.449219 49.550781 50 49 50 Z M 49 50 "/>
<path style=" stroke:none;fill-rule:nonzero;fill:rgb(0%,0%,0%);fill-opacity:1;" d="M 28 25.851562 L 28 38.609375 L 26.378906 38.609375 L 26.378906 27.855469 L 23.121094 29.050781 L 23.121094 27.589844 L 27.746094 25.851562 Z M 40.878906 33.859375 L 40.878906 33.996094 C 40.878906 35.4375 40.546875 36.597656 39.882812 37.472656 C 39.222656 38.347656 38.332031 38.785156 37.214844 38.785156 C 36.023438 38.785156 35.101562 38.363281 34.453125 37.519531 L 34.375 38.609375 L 32.890625 38.609375 L 32.890625 25.214844 L 34.503906 25.214844 L 34.503906 30.210938 C 35.15625 29.402344 36.054688 29 37.199219 29 C 38.34375 29 39.246094 29.433594 39.898438 30.296875 C 40.550781 31.164062 40.878906 32.351562 40.878906 33.859375 Z M 39.265625 33.8125 C 39.265625 32.714844 39.054688 31.867188 38.628906 31.269531 C 38.207031 30.667969 37.59375 30.367188 36.796875 30.367188 C 35.734375 30.367188 34.96875 30.863281 34.503906 31.851562 L 34.503906 35.929688 C 34.996094 36.921875 35.769531 37.414062 36.816406 37.414062 C 37.589844 37.414062 38.191406 37.117188 38.621094 36.519531 C 39.050781 35.917969 39.265625 35.015625 39.265625 33.8125 Z M 39.265625 33.8125 "/>
</g>
</svg>
