<svg id="Flat" height="512" viewBox="0 0 512 512" width="512" xmlns="http://www.w3.org/2000/svg"><path d="m488 24h-464v464h80v-384h384z" fill="#3ea7ff"/><path d="m184 184v88h32a32 32 0 0 1 32-32h32v184a32 32 0 0 1 -32 32v32h128v-32a32 32 0 0 1 -32-32v-184h32a32 32 0 0 1 32 32h32v-88z" fill="#eb352f"/><g fill="#65dcff"><path d="m432 104h16v24h-16z"/><path d="m176 104h16v24h-16z"/><path d="m144 176h16v16h-16z"/><path d="m176 144h16v16h-16z"/><path d="m432 144h16v16h-16z"/><path d="m104 176h24v16h-24z"/><path d="m144 264h16v16h-16z"/><path d="m104 264h24v16h-24z"/><path d="m144 448h16v16h-16z"/><path d="m104 448h24v16h-24z"/><path d="m144 480h16v16h-16z"/><path d="m176 480h16v16h-16z"/><path d="m104 480h24v16h-24z"/><path d="m176 448h16v16h-16z"/><path d="m208 480h16v16h-16z"/><path d="m208 448h16v16h-16z"/></g><path d="m56 448h48v16h-48z" fill="#2b7cd4"/><path d="m56 400h48v16h-48z" fill="#2b7cd4"/><path d="m56 352h48v16h-48z" fill="#2b7cd4"/><path d="m56 304h48v16h-48z" fill="#2b7cd4"/><path d="m56 256h48v16h-48z" fill="#2b7cd4"/><path d="m56 208h48v16h-48z" fill="#2b7cd4"/><path d="m56 160h48v16h-48z" fill="#2b7cd4"/><path d="m56 112h48v16h-48z" fill="#2b7cd4"/><path d="m448 56h16v48h-16z" fill="#2b7cd4"/><path d="m400 56h16v48h-16z" fill="#2b7cd4"/><path d="m352 56h16v48h-16z" fill="#2b7cd4"/><path d="m304 56h16v48h-16z" fill="#2b7cd4"/><path d="m256 56h16v48h-16z" fill="#2b7cd4"/><path d="m208 56h16v48h-16z" fill="#2b7cd4"/><path d="m160 56h16v48h-16z" fill="#2b7cd4"/><path d="m112 56h16v48h-16z" fill="#2b7cd4"/></svg>