<svg height="496pt" viewBox="0 0 496 496" width="496pt" xmlns="http://www.w3.org/2000/svg" xmlns:xlink="http://www.w3.org/1999/xlink"><linearGradient id="a" gradientUnits="userSpaceOnUse" x1="248" x2="248" y1="496" y2="0"><stop offset="0" stop-color="#9f2fff"/><stop offset="1" stop-color="#0bb1d3"/></linearGradient><path d="m384 64.40625v-64.40625h-384v432h336v24c0 22.054688 17.945312 40 40 40s40-17.945312 40-40v-120h-16v-34.414062c54.703125-11.152344 96-59.632813 96-117.585938 0-63.472656-49.558594-115.449219-112-119.59375zm-48 271.59375v80h-320v-400h352v48.40625c-62.441406 4.144531-112 56.121094-112 119.59375 0 57.953125 41.296875 106.433594 96 117.585938v34.414062zm64 120c0 13.230469-10.769531 24-24 24s-24-10.769531-24-24v-104h48zm-16-120h-16v-32.40625c2.65625.175781 5.296875.40625 8 .40625s5.34375-.230469 8-.40625zm-8-48c-57.34375 0-104-46.65625-104-104s46.65625-104 104-104 104 46.65625 104 104-46.65625 104-104 104zm0-192c-48.519531 0-88 39.480469-88 88s39.480469 88 88 88 88-39.480469 88-88-39.480469-88-88-88zm0 160c-39.695312 0-72-32.296875-72-72s32.304688-72 72-72 72 32.296875 72 72-32.304688 72-72 72zm-8 200c0-4.414062 3.585938-8 8-8s8 3.585938 8 8-3.585938 8-8 8-8-3.585938-8-8zm32.839844-315.574219 14.3125 7.160157-44.046875 88.09375-31.539063-21.023438 8.875-13.3125 16.460938 10.976562zm-257.457032 126.652344-14.765624-6.15625-11.28125 27.078125h-85.335938v112h128v-112h-25.335938zm.617188 36.921875v80h-96v-80h62.671875l-17.457031 41.894531-15.550782-15.550781-11.3125 11.3125 32.449219 32.449219 29.199219-70.105469zm-.617188-188.921875-14.765624-6.15625-11.28125 27.078125h-85.335938v112h128v-112h-25.335938zm.617188 36.921875v80h-96v-80h62.671875l-17.457031 41.894531-15.550782-15.550781-11.3125 11.3125 32.449219 32.449219 29.199219-70.105469zm96-72h-16v-16h16zm-32 0h-176v-16h176zm-32 208h96v16h-96zm0 32h96v16h-96zm0 32h96v16h-96zm0 32h96v16h-96zm64-232h-64v-16h64zm0 32h-64v-16h64zm0 32h-64v-16h64zm-64 16h64v16h-64zm64-184h-208v-16h208zm0 0" fill="url(#a)"/></svg>