<?xml version="1.0" encoding="UTF-8"?>
<svg xmlns="http://www.w3.org/2000/svg" xmlns:xlink="http://www.w3.org/1999/xlink" width="64pt" height="64pt" viewBox="0 0 64 64" version="1.1">
<g id="surface10935141">
<path style=" stroke:none;fill-rule:nonzero;fill:rgb(98.039216%,93.72549%,87.058824%);fill-opacity:1;" d="M 22.238281 4.941406 L 51 4.941406 C 52.65625 4.941406 54 6.28125 54 7.941406 L 54 55.941406 C 54 57.597656 52.65625 58.941406 51 58.941406 L 13 58.941406 C 11.34375 58.941406 10 57.597656 10 55.941406 L 10 17.179688 C 10 16.386719 10.316406 15.621094 10.878906 15.058594 L 20.121094 5.820312 C 20.683594 5.257812 21.445312 4.941406 22.238281 4.941406 Z M 22.238281 4.941406 "/>
<path style=" stroke:none;fill-rule:nonzero;fill:rgb(100%,96.862745%,94.117647%);fill-opacity:1;" d="M 10 59 L 9.851562 49.539062 L 53.339844 6.058594 L 54 29 L 24 59 Z M 9.851562 39.148438 L 44.058594 4.941406 L 49.808594 5.191406 L 10 45 Z M 9.851562 33.148438 L 38 5 L 41 5 L 9.851562 36.148438 Z M 9.851562 33.148438 "/>
<path style=" stroke:none;fill-rule:nonzero;fill:rgb(100%,100%,100%);fill-opacity:1;" d="M 44.5 13 L 45.738281 15.261719 L 48 16.5 L 45.738281 17.738281 L 44.5 20 L 43.261719 17.738281 L 41 16.5 L 43.261719 15.261719 Z M 29.421875 11 L 30.269531 12.558594 L 31.839844 13.421875 L 30.269531 14.269531 L 29.421875 15.839844 L 28.558594 14.269531 L 27 13.421875 L 28.558594 12.558594 Z M 15.648438 42 L 16.230469 43.058594 L 17.300781 43.648438 L 16.230469 44.230469 L 15.648438 45.300781 L 15.058594 44.230469 L 14 43.648438 L 15.058594 43.058594 Z M 15.648438 42 "/>
<path style=" stroke:none;fill-rule:nonzero;fill:rgb(73.333333%,87.058824%,97.647059%);fill-opacity:1;" d="M 22 5 L 22 17 L 10 17 Z M 22 5 "/>
<path style=" stroke:none;fill-rule:nonzero;fill:rgb(55.294118%,42.352941%,62.352941%);fill-opacity:1;" d="M 52 4 L 22.660156 4 C 21.332031 3.996094 20.058594 4.523438 19.121094 5.460938 L 10.460938 14.121094 C 9.523438 15.058594 8.996094 16.332031 9 17.660156 L 9 57 C 9 58.65625 10.34375 60 12 60 L 52 60 C 53.65625 60 55 58.65625 55 57 L 55 7 C 55 5.34375 53.65625 4 52 4 Z M 20.539062 6.878906 C 20.679688 6.738281 20.835938 6.609375 21 6.5 L 21 15 C 21 15.550781 20.550781 16 20 16 L 11.5 16 C 11.609375 15.835938 11.738281 15.679688 11.878906 15.539062 Z M 53 57 C 53 57.550781 52.550781 58 52 58 L 12 58 C 11.449219 58 11 57.550781 11 57 L 11 18 L 20 18 C 21.65625 18 23 16.65625 23 15 L 23 6 L 52 6 C 52.550781 6 53 6.449219 53 7 Z M 53 57 "/>
<path style=" stroke:none;fill-rule:nonzero;fill:rgb(55.294118%,42.352941%,62.352941%);fill-opacity:1;" d="M 14 50 C 13.449219 50 13 50.449219 13 51 L 13 53 C 13 53.550781 13.449219 54 14 54 C 14.550781 54 15 53.550781 15 53 L 15 51 C 15 50.449219 14.550781 50 14 50 Z M 19 50 C 18.449219 50 18 50.449219 18 51 L 18 53 C 18 53.550781 18.449219 54 19 54 C 19.550781 54 20 53.550781 20 53 L 20 51 C 20 50.449219 19.550781 50 19 50 Z M 24 50 C 23.449219 50 23 50.449219 23 51 L 23 53 C 23 53.550781 23.449219 54 24 54 C 24.550781 54 25 53.550781 25 53 L 25 51 C 25 50.449219 24.550781 50 24 50 Z M 29 50 C 28.449219 50 28 50.449219 28 51 L 28 53 C 28 53.550781 28.449219 54 29 54 C 29.550781 54 30 53.550781 30 53 L 30 51 C 30 50.449219 29.550781 50 29 50 Z M 34 50 C 33.449219 50 33 50.449219 33 51 L 33 53 C 33 53.550781 33.449219 54 34 54 C 34.550781 54 35 53.550781 35 53 L 35 51 C 35 50.449219 34.550781 50 34 50 Z M 39 50 C 38.449219 50 38 50.449219 38 51 L 38 53 C 38 53.550781 38.449219 54 39 54 C 39.550781 54 40 53.550781 40 53 L 40 51 C 40 50.449219 39.550781 50 39 50 Z M 44 50 C 43.449219 50 43 50.449219 43 51 L 43 53 C 43 53.550781 43.449219 54 44 54 C 44.550781 54 45 53.550781 45 53 L 45 51 C 45 50.449219 44.550781 50 44 50 Z M 49 50 C 48.449219 50 48 50.449219 48 51 L 48 53 C 48 53.550781 48.449219 54 49 54 C 49.550781 54 50 53.550781 50 53 L 50 51 C 50 50.449219 49.550781 50 49 50 Z M 49 50 "/>
<path style=" stroke:none;fill-rule:nonzero;fill:rgb(0%,0%,0%);fill-opacity:1;" d="M 31.351562 37.292969 L 31.351562 38.609375 L 23.03125 38.609375 L 23.03125 37.449219 L 27.425781 32.566406 C 28.078125 31.828125 28.527344 31.226562 28.773438 30.765625 C 29.023438 30.300781 29.144531 29.824219 29.144531 29.332031 C 29.144531 28.667969 28.945312 28.125 28.542969 27.699219 C 28.140625 27.277344 27.605469 27.0625 26.941406 27.0625 C 26.136719 27.0625 25.511719 27.292969 25.066406 27.75 C 24.625 28.207031 24.402344 28.839844 24.402344 29.652344 L 22.785156 29.652344 C 22.785156 28.484375 23.164062 27.539062 23.914062 26.820312 C 24.667969 26.097656 25.675781 25.738281 26.941406 25.738281 C 28.117188 25.738281 29.050781 26.046875 29.738281 26.667969 C 30.425781 27.285156 30.769531 28.109375 30.769531 29.140625 C 30.769531 30.390625 29.972656 31.878906 28.375 33.605469 L 24.976562 37.292969 Z M 41.214844 33.859375 L 41.214844 33.996094 C 41.214844 35.4375 40.882812 36.597656 40.21875 37.472656 C 39.558594 38.347656 38.667969 38.785156 37.550781 38.785156 C 36.359375 38.785156 35.4375 38.363281 34.785156 37.519531 L 34.707031 38.609375 L 33.222656 38.609375 L 33.222656 25.214844 L 34.839844 25.214844 L 34.839844 30.210938 C 35.492188 29.402344 36.390625 29 37.53125 29 C 38.679688 29 39.578125 29.433594 40.234375 30.296875 C 40.886719 31.164062 41.214844 32.351562 41.214844 33.859375 Z M 39.601562 33.8125 C 39.601562 32.714844 39.390625 31.867188 38.964844 31.269531 C 38.542969 30.667969 37.929688 30.367188 37.132812 30.367188 C 36.070312 30.367188 35.304688 30.863281 34.839844 31.851562 L 34.839844 35.929688 C 35.332031 36.921875 36.101562 37.414062 37.148438 37.414062 C 37.921875 37.414062 38.523438 37.117188 38.953125 36.519531 C 39.386719 35.917969 39.601562 35.015625 39.601562 33.8125 Z M 39.601562 33.8125 "/>
</g>
</svg>
