<svg height="408pt" viewBox="-44 0 408 408.2" width="408pt" xmlns="http://www.w3.org/2000/svg"><path d="m319.300781 40v328.199219c.003907 22.09375-17.90625 40.007812-40 40h-239.199219c-22.09375.007812-40.007812-17.90625-40-40v-278.898438h54.898438c9.019531.007813 17.671875-3.574219 24.050781-9.949219 6.378907-6.378906 9.957031-15.03125 9.949219-24.050781v-55.300781h190.398438c22.0625.0390625 39.917968 17.941406 39.902343 40zm0 0" fill="#00efd1"/><path d="m88.898438 0v55.300781c.007812 9.019531-3.570313 17.671875-9.949219 24.050781-6.378907 6.375-15.03125 9.957032-24.050781 9.949219h-54.796876zm0 0" fill="#00acea"/></svg>