<svg xmlns="http://www.w3.org/2000/svg" height="512pt" version="1.1" viewBox="-44 0 512 512.00001" width="512pt">
<g id="surface1">
<path d="M 414.1875 119.535156 L 414.1875 366.96875 C 414.1875 391.75 394.097656 411.84375 369.3125 411.84375 L 145.746094 411.84375 C 120.960938 411.84375 100.871094 391.75 100.871094 366.96875 L 100.871094 55.382812 C 100.871094 30.597656 120.960938 10.503906 145.746094 10.503906 L 310.464844 10.503906 L 310.464844 84.855469 C 310.464844 104.03125 325.964844 119.535156 345.140625 119.535156 Z M 348.507812 267.832031 L 348.507812 236.113281 C 348.507812 219.792969 335.351562 206.839844 319.234375 206.839844 L 309.136719 206.839844 C 295.574219 206.839844 284.25 216.019531 280.683594 228.359375 L 280.582031 228.566406 C 275.582031 224.6875 269.257812 222.34375 262.527344 222.34375 L 252.429688 222.34375 C 245.597656 222.34375 239.375 224.585938 234.480469 228.464844 L 234.277344 228.15625 C 230.707031 215.816406 219.386719 206.839844 206.023438 206.839844 L 195.925781 206.839844 C 179.609375 206.839844 166.65625 219.996094 166.65625 236.113281 L 166.65625 267.832031 L 223.160156 267.832031 L 223.160156 283.335938 L 291.699219 283.335938 L 291.699219 267.832031 Z M 328.003906 189.195312 C 331.574219 185.625 333.820312 180.628906 333.820312 175.121094 C 333.820312 169.613281 331.574219 164.613281 327.902344 161.046875 C 324.230469 157.476562 319.335938 155.230469 313.828125 155.230469 C 308.320312 155.230469 303.324219 157.476562 299.753906 161.148438 C 296.183594 164.71875 293.941406 169.714844 293.941406 175.222656 C 293.941406 186.339844 302.917969 195.109375 313.828125 195.109375 C 319.4375 194.90625 324.4375 192.765625 328.003906 189.195312 Z M 277.316406 190.316406 C 277.316406 184.808594 275.074219 179.8125 271.503906 176.242188 C 267.933594 172.671875 262.9375 170.429688 257.429688 170.429688 C 251.921875 170.429688 246.921875 172.671875 243.351562 176.34375 C 239.785156 179.914062 237.539062 184.910156 237.539062 190.417969 C 237.539062 201.535156 246.515625 210.308594 257.429688 210.308594 C 262.832031 210.308594 267.832031 208.0625 271.503906 204.492188 C 275.070312 200.925781 277.316406 195.925781 277.316406 190.316406 Z M 220.8125 175.121094 C 220.8125 169.613281 218.570312 164.613281 215 161.046875 C 211.429688 157.476562 206.433594 155.230469 201.027344 155.230469 C 195.519531 155.230469 190.519531 157.476562 186.953125 161.148438 C 183.382812 164.71875 181.136719 169.714844 181.136719 175.222656 C 181.136719 186.339844 190.113281 195.109375 201.027344 195.109375 C 206.433594 195.109375 211.429688 192.96875 215 189.296875 C 218.464844 185.625 220.710938 180.628906 220.8125 175.121094 Z M 220.8125 175.121094 " style=" stroke:none;fill-rule:nonzero;fill:rgb(0%,67.45098%,91.764706%);fill-opacity:1;" />
<path d="M 310.464844 10.503906 L 414.1875 119.535156 L 345.140625 119.535156 C 325.964844 119.535156 310.464844 104.03125 310.464844 84.859375 Z M 310.464844 10.503906 " style=" stroke:none;fill-rule:nonzero;fill:rgb(0%,93.72549%,81.960784%);fill-opacity:1;" />
<path d="M 145.746094 411.742188 L 369.3125 411.742188 C 369.3125 436.527344 349.21875 456.621094 324.4375 456.621094 L 100.871094 456.621094 C 76.085938 456.621094 55.992188 436.527344 55.992188 411.742188 L 55.992188 100.257812 C 55.992188 75.472656 76.085938 55.382812 100.871094 55.382812 L 100.871094 366.867188 C 100.871094 391.648438 120.960938 411.742188 145.746094 411.742188 Z M 145.746094 411.742188 " style=" stroke:none;fill-rule:nonzero;fill:rgb(99.607843%,85.882353%,25.490196%);fill-opacity:1;" />
<path d="M 348.507812 236.214844 L 348.507812 267.933594 L 291.695312 267.933594 L 291.695312 251.714844 C 291.695312 242.332031 287.3125 233.96875 280.476562 228.667969 L 280.578125 228.460938 C 284.148438 216.121094 295.46875 206.941406 309.035156 206.941406 L 319.132812 206.941406 C 335.246094 206.941406 348.507812 219.894531 348.507812 236.214844 Z M 348.507812 236.214844 " style=" stroke:none;fill-rule:nonzero;fill:rgb(0%,67.45098%,91.764706%);fill-opacity:1;" />
<path d="M 333.820312 175.121094 C 333.820312 180.628906 331.675781 185.625 328.003906 189.195312 C 324.4375 192.765625 319.4375 195.007812 313.929688 195.007812 C 303.019531 195.007812 294.042969 186.238281 294.042969 175.121094 C 294.042969 169.714844 296.183594 164.71875 299.855469 161.046875 C 303.425781 157.476562 308.421875 155.128906 313.929688 155.128906 C 319.335938 155.128906 324.335938 157.375 328.003906 160.945312 C 331.675781 164.511719 333.820312 169.511719 333.820312 175.121094 Z M 333.820312 175.121094 " style=" stroke:none;fill-rule:nonzero;fill:rgb(0%,67.45098%,91.764706%);fill-opacity:1;" />
<path d="M 100.871094 456.617188 L 323.417969 456.617188 C 323.417969 481.402344 303.324219 501.496094 278.539062 501.496094 L 54.972656 501.496094 C 30.1875 501.496094 10.097656 481.402344 10.097656 456.617188 L 10.097656 145.132812 C 10.097656 120.351562 30.1875 100.257812 54.972656 100.257812 L 55.992188 100.257812 L 55.992188 411.742188 C 55.992188 436.527344 76.085938 456.617188 100.871094 456.617188 Z M 100.871094 456.617188 " style=" stroke:none;fill-rule:nonzero;fill:rgb(0%,93.72549%,81.960784%);fill-opacity:1;" />
<path d="M 291.695312 267.832031 L 291.695312 283.332031 L 223.054688 283.332031 L 223.054688 251.613281 C 223.054688 242.230469 227.441406 233.867188 234.378906 228.460938 C 239.375 224.585938 245.597656 222.34375 252.328125 222.34375 L 262.425781 222.34375 C 269.257812 222.34375 275.582031 224.6875 280.476562 228.5625 C 287.308594 233.867188 291.695312 242.230469 291.695312 251.613281 Z M 291.695312 267.832031 " style=" stroke:none;fill-rule:nonzero;fill:rgb(0%,67.45098%,91.764706%);fill-opacity:1;" />
<path d="M 271.398438 176.242188 C 274.96875 179.8125 277.214844 184.808594 277.214844 190.316406 C 277.214844 195.824219 274.96875 200.824219 271.398438 204.390625 C 267.832031 207.960938 262.832031 210.207031 257.324219 210.207031 C 246.414062 210.207031 237.4375 201.433594 237.4375 190.316406 C 237.4375 184.910156 239.679688 179.914062 243.25 176.242188 C 246.820312 172.671875 251.816406 170.328125 257.324219 170.328125 C 262.832031 170.429688 267.832031 172.671875 271.398438 176.242188 Z M 271.398438 176.242188 " style=" stroke:none;fill-rule:nonzero;fill:rgb(0%,67.45098%,91.764706%);fill-opacity:1;" />
<path d="M 234.171875 228.257812 L 234.378906 228.5625 C 227.441406 233.867188 223.058594 242.332031 223.058594 251.714844 L 223.058594 267.933594 L 166.554688 267.933594 L 166.554688 236.214844 C 166.554688 220.097656 179.507812 206.941406 195.824219 206.941406 L 205.921875 206.941406 C 219.28125 206.941406 230.605469 215.917969 234.171875 228.257812 Z M 234.171875 228.257812 " style=" stroke:none;fill-rule:nonzero;fill:rgb(0%,67.45098%,91.764706%);fill-opacity:1;" />
<path d="M 214.898438 160.941406 C 218.464844 164.511719 220.710938 169.511719 220.710938 175.019531 C 220.609375 180.523438 218.363281 185.523438 214.792969 189.09375 C 211.226562 192.660156 206.328125 194.90625 200.820312 194.90625 C 189.910156 194.90625 180.933594 186.132812 180.933594 175.019531 C 180.933594 169.613281 183.074219 164.613281 186.746094 160.941406 C 190.316406 157.375 195.3125 155.027344 200.820312 155.027344 C 206.328125 155.230469 211.328125 157.375 214.898438 160.941406 Z M 214.898438 160.941406 " style=" stroke:none;fill-rule:nonzero;fill:rgb(0%,67.45098%,91.764706%);fill-opacity:1;" />
<path d="M 317.808594 3.265625 C 315.867188 1.222656 313.21875 0 310.464844 0 L 145.746094 0 C 118.617188 0 95.972656 19.886719 91.488281 45.792969 C 68.640625 49.773438 50.691406 67.824219 46.710938 90.570312 C 20.296875 94.648438 0 117.597656 0 145.132812 L 0 456.617188 C 0 487.011719 24.582031 512 54.972656 512 L 278.539062 512 C 305.667969 512 328.210938 492.214844 332.800781 466.308594 C 356.15625 462.738281 374.617188 444.378906 378.695312 421.125 C 404.601562 416.636719 424.289062 393.996094 424.289062 366.761719 L 424.289062 119.433594 C 424.289062 116.78125 423.371094 114.230469 421.535156 112.292969 Z M 320.253906 36.003906 L 390.425781 109.132812 L 345.140625 109.132812 C 331.679688 109.132812 320.253906 98.320312 320.253906 84.753906 Z M 278.539062 491.601562 L 54.972656 491.601562 C 35.796875 491.601562 20.398438 475.792969 20.398438 456.617188 L 20.398438 145.132812 C 20.398438 129.222656 30.597656 115.761719 45.894531 111.679688 L 45.894531 411.742188 C 45.894531 442.136719 70.476562 467.125 100.871094 467.125 L 311.6875 467.125 C 307.300781 481.402344 294.144531 491.601562 278.539062 491.601562 Z M 324.4375 446.726562 L 100.871094 446.726562 C 81.796875 446.726562 66.292969 430.917969 66.292969 411.742188 L 66.292969 100.257812 C 66.292969 84.652344 76.492188 71.496094 90.773438 67.109375 L 90.773438 366.867188 C 90.773438 397.257812 115.351562 422.246094 145.746094 422.246094 L 357.582031 422.246094 C 353.199219 436.527344 340.042969 446.726562 324.4375 446.726562 Z M 369.3125 401.847656 L 145.746094 401.847656 C 126.671875 401.847656 111.171875 386.039062 111.171875 366.867188 L 111.171875 55.382812 C 111.171875 36.308594 126.570312 20.398438 145.746094 20.398438 L 299.855469 20.398438 L 299.855469 84.753906 C 299.855469 109.539062 320.355469 129.53125 345.140625 129.53125 L 403.886719 129.53125 L 403.886719 366.867188 C 403.886719 386.039062 388.488281 401.847656 369.3125 401.847656 Z M 369.3125 401.847656 " style=" stroke:none;fill-rule:nonzero;fill:rgb(3.137255%,21.960784%,38.823529%);fill-opacity:1;" />
<path d="M 341.46875 336.574219 L 173.589844 336.574219 C 167.980469 336.574219 163.390625 341.164062 163.390625 346.773438 C 163.390625 352.382812 167.980469 356.972656 173.589844 356.972656 L 341.570312 356.972656 C 347.179688 356.972656 351.769531 352.382812 351.769531 346.773438 C 351.769531 341.164062 347.179688 336.574219 341.46875 336.574219 Z M 341.46875 336.574219 " style=" stroke:none;fill-rule:nonzero;fill:rgb(3.137255%,21.960784%,38.823529%);fill-opacity:1;" />
<path d="M 332.492188 198.988281 C 333.511719 198.171875 334.429688 197.355469 335.347656 196.4375 C 341.0625 190.828125 344.121094 183.179688 344.121094 175.121094 C 344.121094 167.0625 340.960938 159.414062 335.246094 153.804688 C 329.535156 148.195312 321.988281 145.035156 314.03125 145.035156 C 305.976562 145.035156 298.429688 148.195312 292.714844 153.90625 C 287.105469 159.617188 283.945312 167.164062 283.945312 175.121094 C 283.945312 175.425781 283.945312 175.734375 283.945312 176.039062 C 282.515625 173.488281 280.785156 171.144531 278.742188 169 C 273.03125 163.390625 265.484375 160.230469 257.527344 160.230469 C 249.472656 160.230469 241.820312 163.390625 236.210938 169.101562 C 234.171875 171.144531 232.441406 173.488281 231.113281 176.039062 C 231.113281 175.734375 231.113281 175.527344 231.113281 175.222656 C 231.113281 175.121094 231.113281 175.121094 231.113281 175.019531 C 231.113281 166.960938 227.953125 159.3125 222.238281 153.703125 C 216.527344 148.09375 208.980469 144.929688 201.027344 144.929688 C 192.96875 144.929688 185.421875 148.09375 179.710938 153.804688 C 174.101562 159.515625 170.9375 167.0625 170.9375 175.019531 C 170.9375 184.707031 175.425781 193.375 182.566406 198.886719 C 167.265625 204.289062 156.148438 218.976562 156.148438 236.113281 L 156.148438 267.832031 C 156.148438 273.441406 161.042969 278.4375 166.652344 278.4375 L 213.164062 278.4375 L 213.164062 283.332031 C 213.164062 288.941406 217.445312 293.738281 223.054688 293.738281 L 291.695312 293.738281 C 297.304688 293.738281 301.894531 289.046875 301.894531 283.332031 L 301.894531 278.4375 L 348.507812 278.4375 C 354.117188 278.4375 359.011719 273.542969 359.011719 267.832031 L 359.011719 236.113281 C 359.011719 218.976562 347.792969 204.390625 332.492188 198.988281 Z M 307.097656 168.289062 C 308.933594 166.453125 311.382812 165.433594 313.929688 165.433594 C 316.480469 165.433594 318.929688 166.453125 320.765625 168.289062 C 322.601562 170.121094 323.621094 172.570312 323.621094 175.121094 C 323.621094 177.773438 322.601562 180.21875 320.867188 181.953125 C 319.03125 183.789062 316.582031 184.707031 313.929688 184.707031 C 308.628906 184.707031 304.242188 180.320312 304.242188 175.019531 C 304.242188 172.46875 305.261719 170.121094 307.097656 168.289062 Z M 295.777344 199.089844 C 290.878906 200.824219 286.292969 203.578125 282.414062 207.144531 C 285.679688 202.25 287.515625 196.4375 287.515625 190.417969 C 287.515625 190.113281 287.515625 189.808594 287.515625 189.398438 C 289.554688 193.171875 292.410156 196.4375 295.777344 199.089844 Z M 238.964844 214.488281 C 238.761719 214.183594 238.558594 213.878906 238.253906 213.46875 C 238.558594 213.777344 238.964844 214.082031 239.273438 214.285156 C 239.171875 214.386719 239.070312 214.488281 238.964844 214.488281 Z M 275.988281 214.589844 C 275.785156 214.488281 275.683594 214.488281 275.480469 214.386719 C 275.988281 214.082031 276.398438 213.671875 276.90625 213.265625 C 276.601562 213.671875 276.296875 214.183594 275.988281 214.589844 Z M 250.59375 183.484375 C 252.429688 181.648438 254.878906 180.628906 257.425781 180.628906 C 259.976562 180.628906 262.425781 181.648438 264.261719 183.484375 C 266.097656 185.320312 267.117188 187.769531 267.117188 190.316406 C 267.117188 192.867188 266.097656 195.3125 264.261719 197.148438 C 262.425781 198.984375 259.976562 200.003906 257.425781 200.003906 C 252.125 200.003906 247.738281 195.621094 247.738281 190.316406 C 247.738281 187.769531 248.757812 185.320312 250.59375 183.484375 Z M 227.339844 189.296875 C 227.339844 189.707031 227.339844 190.011719 227.339844 190.417969 C 227.339844 196.4375 229.175781 202.148438 232.234375 206.839844 C 228.359375 203.476562 223.972656 200.722656 219.078125 198.988281 C 220.097656 198.171875 221.117188 197.355469 222.035156 196.4375 C 224.179688 194.292969 226.015625 191.847656 227.339844 189.296875 Z M 194.089844 168.289062 C 195.925781 166.453125 198.375 165.433594 200.921875 165.433594 C 203.472656 165.433594 205.921875 166.453125 207.757812 168.289062 C 209.59375 170.121094 210.613281 172.46875 210.613281 175.019531 C 210.511719 177.671875 209.488281 180.117188 207.65625 182.054688 C 205.820312 183.890625 203.472656 184.808594 200.921875 184.808594 C 195.621094 184.808594 191.234375 180.425781 191.234375 175.121094 C 191.234375 172.46875 192.253906 170.121094 194.089844 168.289062 Z M 176.445312 258.039062 L 176.445312 236.214844 C 176.445312 225.707031 185.320312 217.242188 195.925781 217.242188 L 206.023438 217.242188 C 212.753906 217.242188 218.976562 220.710938 222.445312 226.320312 C 216.425781 233.359375 213.265625 242.230469 213.265625 251.71875 L 213.265625 258.039062 Z M 281.496094 273.339844 L 233.5625 273.339844 L 233.5625 251.714844 C 233.5625 245.800781 236.109375 240.191406 240.800781 236.621094 C 244.167969 233.96875 248.042969 232.644531 252.429688 232.644531 L 262.527344 232.644531 C 266.910156 232.644531 270.890625 234.070312 274.359375 236.722656 C 278.945312 240.394531 281.597656 245.902344 281.597656 251.816406 L 281.597656 273.339844 Z M 338.613281 258.039062 L 301.894531 258.039062 L 301.894531 251.714844 C 301.894531 242.230469 298.632812 233.460938 292.714844 226.421875 C 296.183594 220.8125 302.40625 217.34375 309.136719 217.34375 L 319.234375 217.34375 C 329.738281 217.34375 338.714844 225.8125 338.714844 236.316406 L 338.714844 258.039062 Z M 338.613281 258.039062 " style=" stroke:none;fill-rule:nonzero;fill:rgb(3.137255%,21.960784%,38.823529%);fill-opacity:1;" />
</g>
</svg>