<?xml version="1.0" encoding="iso-8859-1"?>
<!-- Generator: Adobe Illustrator 19.0.0, SVG Export Plug-In . SVG Version: 6.00 Build 0)  -->
<svg version="1.1" id="Capa_1" xmlns="http://www.w3.org/2000/svg" xmlns:xlink="http://www.w3.org/1999/xlink" x="0px" y="0px"
	 viewBox="0 0 512 512" style="enable-background:new 0 0 512 512;" xml:space="preserve">
<circle style="fill:#52BBEF;" cx="256" cy="267" r="245"/>
<g>
	<path style="fill:#FFFFFF;" d="M144.647,186c0.064,1.189,0.529,2.36,1.433,3.264l5.657,5.657c1.945,1.945,5.126,1.945,7.071,0
		l5.657-5.657c0.903-0.903,1.369-2.075,1.433-3.264H144.647z"/>
	<path style="fill:#FFFFFF;" d="M106.69,186c-0.22,1.512,0.232,3.106,1.389,4.264l2.657,2.657c1.945,1.945,5.126,1.945,7.071,0
		l2.657-2.657c1.158-1.157,1.609-2.751,1.389-4.264H106.69z"/>
	<path style="fill:#FFFFFF;" d="M140.464,198.464c1.945,1.945,1.945,5.126,0,7.071l-2.657,2.657c-1.945,1.945-5.126,1.945-7.071,0
		l-2.657-2.657c-1.945-1.945-1.945-5.126,0-7.071l2.657-2.657c1.945-1.945,5.126-1.945,7.071,0L140.464,198.464z"/>
	<path style="fill:#FFFFFF;" d="M219.192,221.464c1.945,1.945,1.945,5.126,0,7.071l-2.657,2.657c-1.945,1.945-5.126,1.945-7.071,0
		l-2.657-2.657c-1.945-1.945-1.945-5.126,0-7.071l2.657-2.657c1.945-1.945,5.126-1.945,7.071,0L219.192,221.464z"/>
	<path style="fill:#FFFFFF;" d="M74.464,210.192c1.945,1.945,1.945,5.126,0,7.071l-2.657,2.657c-1.945,1.945-5.126,1.945-7.071,0
		l-2.657-2.657c-1.945-1.945-1.945-5.126,0-7.071l2.657-2.657c1.945-1.945,5.126-1.945,7.071,0L74.464,210.192z"/>
</g>
<path style="fill:#1A2B63;" d="M352.242,51.527c0.615,1.375,1.119,4.75,1.119,7.5v4.935h49.027V5c0-2.75-2.25-5-5-5h-275.09
	c-2.75,0-5,2.25-5,5v58.962h49.027v-4.935c0-2.75,1.125-8.265,2.5-8.881c1.375-0.615,4.75-1.119,7.5-1.119H343.36
	C346.111,49.027,351.627,50.152,352.242,51.527z"/>
<path style="fill:#FFCA51;" d="M132.299,20v43.962h19.027v-4.935c0-2.66,0.433-5.904,1.188-8.903
	c1.738-6.908,5.07-11.379,10.185-13.669c4-1.79,9.662-2.427,13.626-2.427H304V15H137.299C134.538,15,132.299,17.239,132.299,20z"/>
<path style="fill:#FFAF10;" d="M148,15h-10.701c-2.761,0-5,2.239-5,5v43.962H143V20C143,17.239,145.239,15,148,15z"/>
<path style="fill:#2E4C89;" d="M352.266,35.216c6.909,1.74,11.381,5.072,13.669,10.186c1.789,3.999,2.427,9.66,2.427,13.625v4.935
	h19.027V20c0-2.761-2.238-5-5-5H304v19.027h39.361C346.022,34.027,349.267,34.46,352.266,35.216z"/>
<path style="fill:#445EA0;" d="M139.916,90c12.82,0,24.815,3.688,35,10.038V67c0-2.75-2.25-5-5-5h-60c-2.75,0-5,2.25-5,5v33.038
	C115.102,93.688,127.097,90,139.916,90z"/>
<g>
	<path style="fill:#2E4C89;" d="M115,67c0-2.75,2.25-5,5-5h-10.084c-2.75,0-5,2.25-5,5v33.038c3.193-1.991,6.565-3.72,10.084-5.155
		V67z"/>
	<path style="fill:#2E4C89;" d="M111.5,396c-7.67,0-14.87-2.795-20.5-7.499V418h24v-22.194C113.843,395.934,112.675,396,111.5,396z"
		/>
	<path style="fill:#2E4C89;" d="M165.5,396c-1.175,0-2.343-0.067-3.5-0.195V418h24v-29.499C180.37,393.205,173.17,396,165.5,396z"/>
</g>
<path style="fill:#FFFFFF;" d="M165.5,397c-9.459,0-18.48-4.077-24.75-11.185c-0.569-0.646-1.389-1.016-2.25-1.016
	s-1.68,0.37-2.25,1.016C129.979,392.924,120.958,397,111.5,397c-14.661,0-27.708-9.841-31.728-23.932
	c-0.375-1.314-1.574-2.177-2.883-2.177c-0.245,0-0.493,0.03-0.74,0.093C73.494,371.658,70.752,372,68,372c-18.196,0-33-14.804-33-33
	c0-10.441,5.029-20.379,13.454-26.585c0.768-0.565,1.221-1.462,1.221-2.415c0-0.954-0.453-1.85-1.221-2.415
	C40.029,301.379,35,291.441,35,281c0-18.196,14.804-33,33-33c2.395,0,4.812,0.267,7.186,0.794c0.216,0.048,0.434,0.071,0.65,0.071
	c0.744,0,1.471-0.277,2.03-0.792c0.722-0.664,1.074-1.639,0.943-2.61c-0.206-1.518-0.31-3.02-0.31-4.464c0-18.196,14.804-33,33-33
	c9.458,0,18.479,4.077,24.75,11.185c0.57,0.646,1.389,1.016,2.25,1.016s1.681-0.37,2.25-1.016C147.02,212.077,156.041,208,165.5,208
	c18.196,0,33,14.804,33,33c0,1.443-0.104,2.945-0.309,4.464c-0.132,0.972,0.221,1.947,0.942,2.61c0.56,0.514,1.286,0.791,2.03,0.791
	c0.217,0,0.434-0.023,0.65-0.071c2.373-0.527,4.79-0.794,7.186-0.794c18.196,0,33,14.804,33,33c0,10.441-5.029,20.379-13.453,26.585
	c-0.768,0.565-1.221,1.462-1.221,2.415s0.453,1.85,1.221,2.415C236.971,318.621,242,328.559,242,339c0,18.196-14.804,33-33,33
	c-2.753,0-5.495-0.342-8.149-1.016c-0.247-0.063-0.496-0.093-0.74-0.093c-1.31,0-2.508,0.862-2.883,2.178
	C193.208,387.16,180.161,397,165.5,397z"/>
<g>
	<path style="fill:#2E4C89;" d="M177.5,275c-2.482,0-4.84,0.315-6.98,0.874c0.093,0.26,0.196,0.518,0.275,0.781l5.793,19.318
		c0.304,0.009,0.603,0.027,0.911,0.027c9.665,0,17.5-4.701,17.5-10.5S187.165,275,177.5,275z"/>
	<path style="fill:#2E4C89;" d="M100.411,295.973l5.794-19.318c0.079-0.264,0.182-0.521,0.275-0.781
		c-2.14-0.559-4.498-0.874-6.98-0.874c-9.665,0-17.5,4.701-17.5,10.5S89.835,296,99.5,296
		C99.808,296,100.107,295.982,100.411,295.973z"/>
</g>
<path style="fill:#1A2B63;" d="M152.445,262c8.25,0,16.939,6.465,19.309,14.368l9.271,30.914c2.37,7.902-0.995,18.543-7.478,23.646
	l-23.261,18.31c-6.483,5.103-17.09,5.103-23.573,0l-23.261-18.31c-6.483-5.103-9.848-15.743-7.478-23.646l9.271-30.914
	c2.37-7.902,11.059-14.368,19.309-14.368H152.445z"/>
<g>
	<circle style="fill:#FFFFFF;" cx="122.75" cy="302.5" r="7.5"/>
	<circle style="fill:#FFFFFF;" cx="154.25" cy="302.5" r="7.5"/>
</g>
<g>
	<path style="fill:#2E4C89;" d="M346.5,396c-7.67,0-14.87-2.795-20.5-7.499V418h24v-22.194C348.844,395.934,347.676,396,346.5,396z"
		/>
	<path style="fill:#2E4C89;" d="M400.5,396c-1.176,0-2.344-0.067-3.5-0.195V418h24v-29.499C415.37,393.205,408.17,396,400.5,396z"/>
</g>
<path style="fill:#FFFFFF;" d="M400.5,397c-9.459,0-18.479-4.077-24.75-11.185c-0.569-0.646-1.389-1.016-2.25-1.016
	s-1.68,0.37-2.25,1.016C364.979,392.924,355.959,397,346.5,397c-14.661,0-27.708-9.841-31.728-23.932
	c-0.375-1.314-1.573-2.177-2.883-2.177c-0.244,0-0.492,0.03-0.74,0.093C308.494,371.658,305.752,372,303,372
	c-18.196,0-33-14.804-33-33c0-10.441,5.029-20.379,13.453-26.585c0.768-0.565,1.221-1.462,1.221-2.415
	c0-0.954-0.453-1.85-1.221-2.415C275.029,301.379,270,291.441,270,281c0-18.196,14.804-33,33-33c2.395,0,4.813,0.267,7.185,0.794
	c0.217,0.048,0.434,0.071,0.65,0.071c0.744,0,1.471-0.277,2.031-0.792c0.722-0.664,1.074-1.639,0.942-2.61
	c-0.206-1.518-0.31-3.02-0.31-4.464c0-18.196,14.804-33,33-33c9.459,0,18.479,4.077,24.75,11.185c0.57,0.646,1.389,1.016,2.25,1.016
	s1.681-0.37,2.25-1.016C382.021,212.077,391.041,208,400.5,208c18.196,0,33,14.804,33,33c0,1.443-0.103,2.945-0.309,4.464
	c-0.132,0.972,0.221,1.947,0.942,2.61c0.56,0.514,1.286,0.791,2.03,0.791c0.217,0,0.435-0.023,0.65-0.071
	c2.373-0.527,4.79-0.794,7.185-0.794c18.196,0,33,14.804,33,33c0,10.441-5.029,20.379-13.453,26.585
	c-0.768,0.565-1.221,1.462-1.221,2.415s0.453,1.85,1.221,2.415C471.971,318.621,477,328.559,477,339c0,18.196-14.804,33-33,33
	c-2.753,0-5.495-0.342-8.149-1.016c-0.247-0.063-0.496-0.093-0.74-0.093c-1.31,0-2.508,0.862-2.883,2.178
	C428.208,387.16,415.161,397,400.5,397z"/>
<g>
	<path style="fill:#2E4C89;" d="M412.5,275c-2.482,0-4.84,0.315-6.979,0.874c0.094,0.26,0.196,0.518,0.275,0.781l5.794,19.318
		c0.303,0.009,0.603,0.027,0.91,0.027c9.665,0,17.5-4.701,17.5-10.5S422.165,275,412.5,275z"/>
	<path style="fill:#2E4C89;" d="M335.41,295.973l5.794-19.318c0.079-0.264,0.182-0.521,0.275-0.781
		c-2.14-0.559-4.497-0.874-6.979-0.874c-9.665,0-17.5,4.701-17.5,10.5s7.835,10.5,17.5,10.5
		C334.808,296,335.107,295.982,335.41,295.973z"/>
</g>
<path style="fill:#1A2B63;" d="M387.445,262c8.25,0,16.939,6.465,19.309,14.368l9.271,30.914c2.369,7.902-0.995,18.543-7.477,23.646
	l-23.262,18.31c-6.482,5.103-17.09,5.103-23.572,0l-23.262-18.31c-6.482-5.103-9.847-15.743-7.477-23.646l9.271-30.914
	c2.369-7.902,11.059-14.368,19.309-14.368H387.445z"/>
<g>
	<circle style="fill:#FFFFFF;" cx="357.75" cy="302.5" r="7.5"/>
	<circle style="fill:#FFFFFF;" cx="389.25" cy="302.5" r="7.5"/>
</g>
<path id="SVGCleanerId_0" style="fill:#999CAD;" d="M62.193,416.875C107.007,474.739,177.147,512,256,512
	s148.993-37.261,193.807-95.125H62.193z"/>
<g>
	<path id="SVGCleanerId_0_1_" style="fill:#999CAD;" d="M62.193,416.875C107.007,474.739,177.147,512,256,512
		s148.993-37.261,193.807-95.125H62.193z"/>
</g>
<path style="fill:#FFAF10;" d="M81.425,438.875h349.15c6.835-6.941,13.258-14.287,19.231-22H62.193
	C68.167,424.588,74.59,431.934,81.425,438.875z"/>
<path style="fill:#2E4C89;" d="M207.404,156c-0.27-37.048-30.376-67-67.487-67S72.7,118.952,72.43,156H207.404z"/>
<path style="fill:#293D7C;" d="M150.202,89.78c-3.354-0.513-6.788-0.78-10.286-0.78c-37.112,0-67.217,29.952-67.487,67H93
	C93.245,122.443,117.967,94.709,150.202,89.78z"/>
<path style="fill:#28A5A5;" d="M161.916,156v-14c0-2.75-2.25-5-5-5h-34c-2.75,0-5,2.25-5,5v14H161.916z"/>
<path style="fill:#0F9390;" d="M133,137h-10.084c-2.75,0-5,2.25-5,5v14H128v-14C128,139.25,130.25,137,133,137z"/>
<path style="fill:#FFAF10;" d="M219.916,182c0,2.75-2.25,5-5,5h-150c-2.75,0-5-2.25-5-5v-22c0-2.75,2.25-5,5-5h150
	c2.75,0,5,2.25,5,5V182z"/>
<path style="fill:#EF9614;" d="M70,182v-22c0-2.75,2.25-5,5-5H64.916c-2.75,0-5,2.25-5,5v22c0,2.75,2.25,5,5,5H75
	C72.25,187,70,184.75,70,182z"/>
<g>
	<circle style="fill:#445EA0;" cx="82.72" cy="170.97" r="8.03"/>
	<circle style="fill:#445EA0;" cx="106.89" cy="170.97" r="8.03"/>
	<circle style="fill:#445EA0;" cx="197.11" cy="170.97" r="8.03"/>
	<path style="fill:#445EA0;" d="M378.25,90c12.82,0,24.815,3.688,35,10.038V67c0-2.75-2.25-5-5-5h-60c-2.75,0-5,2.25-5,5v33.038
		C353.435,93.688,365.43,90,378.25,90z"/>
</g>
<g>
	<path style="fill:#2E4C89;" d="M354,67c0-2.75,2.25-5,5-5h-10.75c-2.75,0-5,2.25-5,5v33.038c3.394-2.116,6.991-3.928,10.75-5.415
		V67z"/>
	<path style="fill:#2E4C89;" d="M445.737,156c-0.271-37.048-30.376-67-67.487-67s-67.217,29.952-67.487,67H445.737z"/>
</g>
<path style="fill:#293D7C;" d="M388.535,89.78c-3.354-0.513-6.788-0.78-10.285-0.78c-37.111,0-67.217,29.952-67.487,67h20.571
	C331.578,122.443,356.301,94.709,388.535,89.78z"/>
<path style="fill:#28A5A5;" d="M400.25,156v-14c0-2.75-2.25-5-5-5h-34c-2.75,0-5,2.25-5,5v14H400.25z"/>
<path style="fill:#0F9390;" d="M371.334,137H361.25c-2.75,0-5,2.25-5,5v14h10.084v-14C366.334,139.25,368.584,137,371.334,137z"/>
<path style="fill:#FFAF10;" d="M458.25,182c0,2.75-2.25,5-5,5h-150c-2.75,0-5-2.25-5-5v-22c0-2.75,2.25-5,5-5h150c2.75,0,5,2.25,5,5
	V182z"/>
<path style="fill:#EF9614;" d="M309,182v-22c0-2.75,2.25-5,5-5h-10.75c-2.75,0-5,2.25-5,5v22c0,2.75,2.25,5,5,5H314
	C311.25,187,309,184.75,309,182z"/>
<g>
	<circle style="fill:#445EA0;" cx="321.06" cy="170.97" r="8.03"/>
	<circle style="fill:#445EA0;" cx="345.22" cy="170.97" r="8.03"/>
	<circle style="fill:#445EA0;" cx="435.44" cy="170.97" r="8.03"/>
</g>
<path style="fill:#C3DDF4;" d="M241.748,472.498c0,12.426-10.073,22.499-22.499,22.499l0,0c-12.425,0-22.498-10.073-22.498-22.499
	l0,0c0-12.425,10.073-22.498,22.498-22.498l0,0C231.675,450,241.748,460.073,241.748,472.498L241.748,472.498z"/>
<path style="fill:#FFFFFF;" d="M219.249,479.997c-4.134,0-7.498-3.364-7.498-7.499c0-4.134,3.364-7.498,7.498-7.498
	c4.135,0,7.499,3.364,7.499,7.498C226.748,476.633,223.384,479.997,219.249,479.997z"/>
<path style="fill:#C3DDF4;" d="M315.249,472.498c0,12.426-10.072,22.499-22.498,22.499l0,0c-12.426,0-22.498-10.073-22.498-22.499
	l0,0c0-12.425,10.072-22.498,22.498-22.498l0,0C305.177,450,315.249,460.073,315.249,472.498L315.249,472.498z"/>
<path style="fill:#FFFFFF;" d="M292.751,479.997c-4.135,0-7.498-3.364-7.498-7.499c0-4.134,3.363-7.498,7.498-7.498
	c4.135,0,7.498,3.364,7.498,7.498C300.249,476.633,296.886,479.997,292.751,479.997z"/>
<path style="fill:#C3DDF4;" d="M365.996,450c-12.426,0-22.498,10.073-22.498,22.498c0,8.04,4.22,15.091,10.564,19.069
	c12.006-5.252,23.508-11.439,34.417-18.468c0.006-0.201,0.016-0.4,0.016-0.602C388.494,460.073,378.422,450,365.996,450z"/>
<path style="fill:#FFFFFF;" d="M365.996,479.997c-4.135,0-7.498-3.364-7.498-7.499c0-4.134,3.363-7.498,7.498-7.498
	s7.498,3.364,7.498,7.498C373.494,476.633,370.131,479.997,365.996,479.997z"/>
<path style="fill:#C3DDF4;" d="M146.004,450c-12.426,0-22.498,10.073-22.498,22.498c0,0.202,0.01,0.401,0.015,0.602
	c10.91,7.029,22.412,13.216,34.418,18.468c6.343-3.979,10.563-11.029,10.563-19.069C168.502,460.073,158.43,450,146.004,450z"/>
<path style="fill:#FFFFFF;" d="M146.004,479.997c-4.135,0-7.498-3.364-7.498-7.499c0-4.134,3.363-7.498,7.498-7.498
	s7.498,3.364,7.498,7.498C153.502,476.633,150.139,479.997,146.004,479.997z"/>
<g>
	<path style="fill:#2E4C89;" d="M151.416,84.5h-23c-4.142,0-7.5-3.358-7.5-7.5s3.358-7.5,7.5-7.5h23c4.142,0,7.5,3.358,7.5,7.5
		S155.559,84.5,151.416,84.5z"/>
	<path style="fill:#2E4C89;" d="M389.75,84.5h-23c-4.143,0-7.5-3.358-7.5-7.5s3.357-7.5,7.5-7.5h23c4.143,0,7.5,3.358,7.5,7.5
		S393.893,84.5,389.75,84.5z"/>
</g>
<g>
</g>
<g>
</g>
<g>
</g>
<g>
</g>
<g>
</g>
<g>
</g>
<g>
</g>
<g>
</g>
<g>
</g>
<g>
</g>
<g>
</g>
<g>
</g>
<g>
</g>
<g>
</g>
<g>
</g>
</svg>
