<svg height="512" viewBox="0 0 60 52" width="512" xmlns="http://www.w3.org/2000/svg"><g id="Page-1" fill="none" fill-rule="evenodd"><g id="029---Roller" fill-rule="nonzero"><path id="Shape" d="m59 37c.0008772 6.5479133-4.5369843 12.2217981-10.9249999 13.6600004-6.3880156 1.4382024-12.9196287-1.743493-15.7250001-7.6600004-.6077076-1.2627577-1.0158923-2.6121283-1.21-4h9.28c.9470789 2.1700304 3.2863701 3.3782749 5.6041239 2.8945316 2.3177538-.4837434 3.9784518-2.5268344 3.9784518-4.8945316s-1.660698-4.4107882-3.9784518-4.8945316c-2.3177538-.4837433-4.657045.7245012-5.6041239 2.8945316h-9.28c1.0048469-6.8836449 6.9034063-11.9906227 13.86-12 3.7130309 0 7.2739856 1.4749958 9.8994949 4.1005051s4.1005051 6.186464 4.1005051 9.8994949z" fill="#607d8b"/><path id="Shape" d="m45 23c-.5010891.0011142-1.0017755.0284851-1.5.082 7.0972618.7742467 12.4750593 6.7649866 12.4817287 13.904352.0066695 7.1393654-5.3599259 13.1401424-12.4557287 13.927648 5.1638376.5743632 10.221071-1.7582553 13.1362803-6.0590303 2.9152094-4.300775 3.2088856-9.8622922.7628306-14.446169-2.4460549-4.5838769-7.2295008-7.4361328-12.4251109-7.4088007z" fill="#37474f"/><path id="Shape" d="m17 43c-.0019117 4.0225934-2.9904767 7.4181889-6.9802571 7.9309399-3.98978045.5127509-7.73982533-2.0168248-8.75881138-5.9082164-1.01898606-3.8913916 1.01002437-7.9342504 4.73906848-9.4427235.95410032-.3820695 1.97224354-.5789105 3-.58 4.418278 0 8 3.581722 8 8z" fill="#607d8b"/><path id="Shape" d="m31.14 39c.1941077 1.3878717.6022924 2.7372423 1.21 4h-15.35c0-4.418278-3.581722-8-8-8-1.02775646.0010895-2.04589968.1979305-3 .58v-2.58c.0032948-1.1032019.89679813-1.9967052 2-2h24.35c-.6032386 1.2644926-1.011211 2.6131615-1.21 4h-6.14c-1.1032019.0032948-1.9967052.8967981-2 2 .0081672 1.1011688.8988312 1.9918328 2 2z" fill="#ff9801"/><g fill="#f57c00"><path id="Shape" d="m25 35h-3c-1.1032019.0032948-1.9967052.8967981-2 2 .0081672 1.1011688.8988312 1.9918328 2 2h3c-1.1011688-.0081672-1.9918328-.8988312-2-2 .0032948-1.1032019.8967981-1.9967052 2-2z"/><path id="Shape" d="m31.14 35c.198789-1.3868385.6067614-2.7355074 1.21-4h-3c-.6032386 1.2644926-1.011211 2.6131615-1.21 4z"/><path id="Shape" d="m28.14 39c.1941077 1.3878717.6022924 2.7372423 1.21 4h3c-.6077076-1.2627577-1.0158923-2.6121283-1.21-4z"/><path id="Shape" d="m6 35v.58c.48502113-.1923941.98729874-.3380546 1.5-.435-.4943347-.0953475-.99655514-.1438955-1.5-.145z"/></g><path id="Shape" d="m35 20v7.21c-1.0876833 1.1073973-1.9832763 2.3882643-2.65 3.79h-23.35v-26c0-2.209139 1.790861-4 4-4h7v17c.0032948 1.1032019.8967981 1.9967052 2 2z" fill="#ff5722"/><path id="Shape" d="m19 20h3c-1.1032019-.0032948-1.9967052-.8967981-2-2v-17h-3v17c.0032948 1.1032019.8967981 1.9967052 2 2z" fill="#d84315"/><path id="Shape" d="m32 20v7.21c-1.0876833 1.1073973-1.9832763 2.3882643-2.65 3.79h3c.6667237-1.4017357 1.5623167-2.6826027 2.65-3.79v-7.21z" fill="#d84315"/><path id="Shape" d="m35 9v11h-13c-1.1032019-.0032948-1.9967052-.8967981-2-2v-17h7c4.418278 0 8 3.581722 8 8z" fill="#02a9f4"/><path id="Shape" d="m27 1h-3c4.418278 0 8 3.581722 8 8v11h3v-11c0-4.418278-3.581722-8-8-8z" fill="#0377bc"/><path id="Shape" d="m45 42c-1.9871759-.0010238-3.7851298-1.1787229-4.58-3h-15.42c-1.1011688-.0081672-1.9918328-.8988312-2-2 .0032948-1.1032019.8967981-1.9967052 2-2h15.42c.9990218-2.2890456 3.5339463-3.4898219 5.9379826-2.8127814 2.4040363.6770404 3.9397623 3.0242198 3.5973908 5.4981956-.3423714 2.4739758-2.4578201 4.3158722-4.9553734 4.3145858z" fill="#ffdc00"/><path id="Shape" d="m49.89 35.92c-.2986352-1.3675579-1.1593577-2.5461367-2.3711589-3.2468045-1.2118012-.7006677-2.6626408-.8586422-3.9968411-.4351955 2.0800321.6588726 3.4911681 2.5922705 3.4845265 4.774151s-1.4295218 4.1066517-3.5135265 4.752849c1.704421.5432047 3.569188.1344439 4.8900999-1.0719202 1.3209118-1.206364 1.8966898-3.0265072 1.5099001-4.7730798z" fill="#fec108"/><circle id="Oval" cx="9" cy="43" fill="#7f8e94" r="2"/><path id="Shape" d="m24 7c-.4043959-.00008635-.7689341-.2437275-.923678-.61734544s-.0692299-.80366031.216678-1.08965456l1-1c.3923789-.37897221 1.0160848-.37355237 1.4018186.01218142.3857338.3857338.3911536 1.00943969.0121814 1.40181858l-1 1c-.1874927.18754937-.4418052.29294336-.707.293z" fill="#f5f5f5"/><path id="Shape" d="m25 11c-.4043959-.0000863-.7689341-.2437275-.923678-.6173454-.1547439-.373618-.0692299-.80366035.216678-1.0896546l4-4c.3923789-.37897221 1.0160848-.37355237 1.4018186.01218142.3857338.3857338.3911536 1.00943969.0121814 1.40181858l-4 4c-.1874927.1875494-.4418052.2929434-.707.293z" fill="#f5f5f5"/><path id="Shape" d="m45 22c-3.2502888.006605-6.4098595 1.0724336-9 3.036v-2.436c7.2786356-4.569571 16.8243389-2.9760433 22.224 3.71.2210431.2898487.5822917.4364606.9428129.3826384.3605211-.0538222.6631971-.2995514.7899458-.641322.1267486-.3417705.0574891-.7254354-.1807587-1.0013164-5.7421456-7.1089019-15.7365111-9.1135759-23.776-4.769v-11.281c-.0055111-4.96827817-4.0317218-8.99448887-9-9h-14c-2.7600532.00330612-4.99669388 2.23994685-5 5v25c-1.65685425 0-3 1.3431458-3 3v1.95c-3.86092588 1.9175246-5.81859836 6.3046563-4.66707636 10.4588886s5.08843955 6.9074279 9.3855816 6.5635974c4.29714206-.3438306 7.74618606-3.6880048 8.22249476-7.972486h13.807c3.4329643 6.4974924 11.0688006 9.5497318 18.0346628 7.2089169 6.9658623-2.340815 11.2089355-9.3848544 10.0214818-16.6369303-1.1874536-7.2520759-7.4554956-12.5750272-14.8041446-12.5719866zm-11-13v10h-12c-.5522847 0-1-.4477153-1-1v-16h6c3.8641657.00440864 6.9955914 3.13583434 7 7zm-24-4c0-1.65685425 1.3431458-3 3-3h6v16c0 1.6568542 1.3431458 3 3 3h12v2h-4c-.5522847 0-1 .4477153-1 1s.4477153 1 1 1h4v1.843c-.8837912.9507144-1.6407518 2.011871-2.252 3.157h-10.748v-6c0-.5522847-.4477153-1-1-1s-1 .4477153-1 1v6h-9zm-1 45c-3.86599325 0-7-3.1340068-7-7s3.13400675-7 7-7c3.8659932 0 7 3.1340068 7 7-.0044086 3.8641657-3.1358343 6.9955914-7 7zm8.941-8c-.2766279-2.5500647-1.6320693-4.8595829-3.7235569-6.3445181-2.0914876-1.4849351-4.71876616-2.0031081-7.2174431-1.4234819v-1.232c0-.5522847.44771525-1 1-1h22.864c-.2307193.6528016-.4148479 1.3211451-.551 2h-5.313c-1.6568542 0-3 1.3431458-3 3s1.3431458 3 3 3h5.313c.1361521.6788549.3202807 1.3471984.551 2zm7.059-4c-.5522847 0-1-.4477153-1-1s.4477153-1 1-1h15.422c.3974352-.0002048.757026-.2357446.916-.6.7576631-1.7360243 2.6290961-2.70262 4.4832991-2.3156253s3.1827615 2.0214675 3.1827615 3.9156253-1.3285585 3.5286306-3.1827615 3.9156253-3.725636-.579601-4.4832991-2.3156253c-.158974-.3642554-.5185648-.5997952-.916-.6zm20 12c-6.0163741-.0237395-11.2392076-4.151809-12.652-10h7.461c1.357817 2.3518081 4.1259656 3.4984128 6.7490667 2.795555 2.6231011-.7028579 4.4470857-3.0799209 4.4470857-5.795555s-1.8239846-5.0926971-4.4470857-5.795555c-2.6231011-.7028578-5.3912497.4437469-6.7490667 2.795555h-7.461c1.5665422-6.6051211 7.9514659-10.8929408 14.6582531-9.8438054s11.4772603 7.0819816 10.951862 13.8499677c-.5253984 6.7679861-6.1697665 11.9923289-12.9581151 11.9938377z" fill="#000"/><path id="Shape" d="m9 40c-1.65685425 0-3 1.3431458-3 3s1.34314575 3 3 3c1.6568542 0 3-1.3431458 3-3s-1.3431458-3-3-3zm0 4c-.55228475 0-1-.4477153-1-1s.44771525-1 1-1 1 .4477153 1 1-.44771525 1-1 1z" fill="#000"/></g></g></svg>