<svg id="Layer_1" enable-background="new 0 0 256 256" height="512" viewBox="0 0 256 256" width="512" xmlns="http://www.w3.org/2000/svg"><path d="m218.653 252h-181.306v-205.667l42.333-42.333h138.973z" fill="#f4efed"/><path d="m170.08 96.189c3.356 0 6.076 2.72 6.076 6.076v34.182h.916c3.251 0 5.782 2.996 4.991 6.248-.558 2.295-2.724 3.84-5.086 3.84h-.82v6.742c0 2.88-2.359 5.369-5.237 5.268-2.748-.097-4.849-2.262-4.849-5.04v-6.969h-28.705-.09-.092c-1.1 0-2.201-.275-3.118-1.1-2.293-1.743-2.567-4.86-.826-7.061l32.108-39.916c1.151-1.436 2.892-2.27 4.732-2.27zm-4.01 17.608-18.25 22.651h18.25z" fill="#fcc24c"/><path d="m110.217 143.417h-22.283l-4.494 11.921c-.825 2.018-2.751 3.21-4.768 3.21-.642 0-1.192-.092-1.743-.275-2.66-1.008-3.943-3.943-3.026-6.603l20.267-54.014c.825-2.017 2.843-3.301 4.861-3.21 2.109-.092 4.035 1.192 4.86 3.21l20.267 54.014c.917 2.659-.367 5.594-3.026 6.603-.458.183-1.1.275-1.742.275-2.018 0-3.944-1.192-4.677-3.21zm-3.759-10.088-7.428-19.716-7.428 19.716z" fill="#fcc24c"/><path d="m37.347 46.333v205.667h10v-215.667z" fill="#fff"/><path d="m208.653 4h10v248h-10z" fill="#d6d1cf"/><path d="m218.652 254h-181.305c-1.104 0-2-.896-2-2v-205.667c0-.53.211-1.039.586-1.414l42.334-42.333c.375-.375.883-.586 1.414-.586h138.972c1.104 0 2 .896 2 2v248c-.001 1.104-.896 2-2.001 2zm-179.305-4h177.305v-244h-136.143l-41.162 41.162z" fill="#690589"/><path d="m45.347 86.013c-1.104 0-2-.896-2-2v-12c0-1.104.896-2 2-2s2 .896 2 2v12c0 1.105-.895 2-2 2z" fill="#690589"/><path d="m79.68 4v42.333h-42.333z" fill="#526faa"/><g fill="#690589"><path d="m79.681 48.333h-42.334c-.809 0-1.538-.487-1.848-1.235-.31-.747-.139-1.607.434-2.179l42.334-42.333c.571-.573 1.433-.744 2.179-.434.748.31 1.235 1.039 1.235 1.848v42.333c0 1.105-.896 2-2 2zm-37.505-4h35.505v-35.504z"/><path d="m119.388 160.548c-2.938 0-5.572-1.819-6.557-4.527l-3.998-10.604h-19.516l-4.005 10.627c-1.126 2.756-3.725 4.504-6.64 4.504-.848 0-1.603-.12-2.375-.378-3.723-1.41-5.571-5.417-4.284-9.151l20.285-54.065c1.136-2.776 3.87-4.593 6.734-4.508 2.885-.074 5.58 1.692 6.71 4.454l20.288 54.069c1.305 3.785-.543 7.793-4.19 9.175-.83.332-1.795.404-2.452.404zm-31.454-19.131h22.284c.833 0 1.578.516 1.872 1.294l4.494 11.921c.426 1.172 1.524 1.916 2.805 1.916.529 0 .885-.086.999-.132 1.647-.625 2.457-2.417 1.879-4.095l-20.248-53.963c-.49-1.196-1.629-1.974-2.901-1.914-.059.003-.119.002-.178 0-1.206-.057-2.429.773-2.918 1.969l-20.245 53.959c-.56 1.626.25 3.418 1.863 4.03.282.092.624.146 1.033.146 1.284 0 2.429-.772 2.917-1.967l4.473-11.87c.293-.778 1.038-1.294 1.871-1.294zm18.524-6.088h-14.856c-.657 0-1.271-.322-1.645-.862s-.458-1.229-.227-1.843l7.428-19.716c.293-.779 1.039-1.295 1.872-1.295s1.578.516 1.872 1.295l7.428 19.716c.231.614.146 1.303-.227 1.843-.374.54-.988.862-1.645.862zm-11.966-4h9.075l-4.538-12.043z"/><path d="m171.091 160.548c-.08 0-.161-.001-.242-.004-3.865-.136-6.779-3.163-6.779-7.039v-4.969h-26.887c-1.735 0-3.213-.524-4.394-1.558-1.466-1.14-2.396-2.757-2.625-4.564-.237-1.878.298-3.754 1.506-5.281l32.117-39.929c1.541-1.916 3.835-3.014 6.293-3.014 4.453 0 8.076 3.623 8.076 8.076v32.262c1.793.27 3.413 1.205 4.554 2.656 1.335 1.699 1.808 3.88 1.296 5.984-.677 2.784-3.001 4.829-5.85 5.275v4.834c0 1.982-.822 3.912-2.256 5.296-1.325 1.279-3.024 1.975-4.809 1.975zm-1.011-62.359c-1.24 0-2.398.555-3.176 1.521l-32.107 39.916c-.526.666-.766 1.481-.664 2.286.067.536.321 1.307 1.142 1.93.043.033.085.068.126.105.446.401 1.013.588 1.782.588h28.887c1.104 0 2 .896 2 2v6.969c0 1.703 1.229 2.982 2.92 3.042.808.023 1.537-.275 2.133-.851.657-.634 1.034-1.516 1.034-2.418v-6.742c0-1.104.896-2 2-2h.82c1.495 0 2.817-.972 3.143-2.312.223-.917.026-1.829-.555-2.568-.604-.768-1.512-1.208-2.492-1.208h-.916c-1.104 0-2-.896-2-2v-34.182c-.001-2.247-1.829-4.076-4.077-4.076zm-4.011 40.258h-18.249c-.771 0-1.472-.442-1.804-1.137-.333-.695-.237-1.519.246-2.118l18.249-22.651c.533-.66 1.425-.912 2.223-.631.8.282 1.335 1.038 1.335 1.886v22.651c0 1.105-.895 2-2 2zm-14.069-4h12.069v-14.98z"/></g></svg>