<svg xmlns="http://www.w3.org/2000/svg" height="512pt" version="1.1" viewBox="-48 0 512 512.00002" width="512pt">
<g id="surface1">
<path d="M 409.09375 122.605469 L 409.09375 467.835938 C 409.09375 488.03125 392.730469 504.394531 372.535156 504.394531 L 44.164062 504.394531 C 23.96875 504.394531 7.605469 488.03125 7.605469 467.835938 L 7.605469 44.164062 C 7.605469 23.96875 23.96875 7.605469 44.164062 7.605469 L 294.089844 7.605469 Z M 409.09375 122.605469 " style=" stroke:none;fill-rule:nonzero;fill:rgb(90.196078%,90.196078%,90.196078%);fill-opacity:1;" />
<path d="M 368.539062 122.605469 L 368.539062 463.839844 L 48.160156 463.839844 L 48.160156 48.15625 L 294.089844 48.15625 " style=" stroke:none;fill-rule:nonzero;fill:rgb(28.627451%,74.117647%,56.470588%);fill-opacity:1;" />
<path d="M 409.09375 122.605469 L 330.652344 122.605469 C 310.453125 122.605469 294.089844 106.242188 294.089844 86.046875 L 294.089844 7.605469 " style=" stroke:none;fill-rule:nonzero;fill:rgb(80%,80%,80%);fill-opacity:1;" />
<path d="M 208.347656 256 L 97.703125 318.574219 L 208.347656 381.148438 L 318.996094 318.574219 Z M 208.347656 256 " style=" stroke:none;fill-rule:nonzero;fill:rgb(100%,81.568627%,38.039216%);fill-opacity:1;" />
<path d="M 208.347656 193.425781 L 97.703125 256 L 208.347656 318.574219 L 318.996094 256 Z M 208.347656 193.425781 " style=" stroke:none;fill-rule:nonzero;fill:rgb(34.509804%,76.470588%,90.980392%);fill-opacity:1;" />
<path d="M 208.347656 130.847656 L 97.703125 193.425781 L 208.347656 256 L 318.996094 193.425781 Z M 208.347656 130.847656 " style=" stroke:none;fill-rule:nonzero;fill:rgb(98.039216%,43.921569%,69.803922%);fill-opacity:1;" />
<path d="M 263.675781 287.285156 L 208.347656 318.574219 L 153.03125 287.285156 L 208.347656 256 Z M 263.675781 287.285156 " style=" stroke:none;fill-rule:nonzero;fill:rgb(14.117647%,19.215686%,25.882353%);fill-opacity:1;" />
<path d="M 263.675781 224.710938 L 208.347656 256 L 153.03125 224.710938 L 208.347656 193.421875 Z M 263.675781 224.710938 " style=" stroke:none;fill-rule:nonzero;fill:rgb(100%,100%,100%);fill-opacity:1;" />
<path d="M 414.46875 117.230469 L 299.46875 2.226562 C 298.039062 0.800781 296.105469 0 294.089844 0 L 44.164062 0 C 19.8125 0 0 19.8125 0 44.164062 L 0 467.835938 C 0 492.1875 19.8125 512 44.164062 512 L 72.589844 512 C 76.789062 512 80.195312 508.59375 80.195312 504.394531 C 80.195312 500.195312 76.789062 496.792969 72.589844 496.792969 L 44.164062 496.792969 C 28.199219 496.792969 15.207031 483.800781 15.207031 467.835938 L 15.207031 44.164062 C 15.207031 28.199219 28.199219 15.207031 44.164062 15.207031 L 286.488281 15.207031 L 286.488281 40.554688 L 48.160156 40.554688 C 43.960938 40.554688 40.554688 43.957031 40.554688 48.15625 L 40.554688 463.839844 C 40.554688 468.039062 43.960938 471.445312 48.160156 471.445312 L 368.539062 471.445312 C 372.738281 471.445312 376.144531 468.039062 376.144531 463.839844 L 376.144531 208.8125 C 376.144531 204.613281 372.738281 201.207031 368.539062 201.207031 C 364.339844 201.207031 360.933594 204.613281 360.933594 208.8125 L 360.933594 456.238281 L 55.761719 456.238281 L 55.761719 55.761719 L 286.488281 55.761719 L 286.488281 86.046875 C 286.488281 110.398438 306.296875 130.210938 330.652344 130.210938 L 360.933594 130.210938 L 360.933594 183.464844 C 360.933594 187.664062 364.339844 191.066406 368.539062 191.066406 C 372.738281 191.066406 376.144531 187.664062 376.144531 183.464844 L 376.144531 130.210938 L 401.488281 130.210938 L 401.488281 467.835938 C 401.488281 483.800781 388.5 496.792969 372.53125 496.792969 L 97.9375 496.792969 C 93.738281 496.792969 90.335938 500.195312 90.335938 504.394531 C 90.335938 508.59375 93.738281 512 97.9375 512 L 372.535156 512 C 396.886719 512 416.699219 492.1875 416.699219 467.835938 L 416.699219 122.605469 C 416.695312 120.589844 415.894531 118.65625 414.46875 117.230469 Z M 301.695312 86.046875 L 301.695312 25.960938 L 390.734375 115.003906 L 368.558594 115.003906 C 368.554688 115.003906 368.546875 115 368.539062 115 C 368.535156 115 368.527344 115.003906 368.519531 115.003906 L 330.652344 115.003906 C 314.683594 115.003906 301.695312 102.011719 301.695312 86.046875 Z M 301.695312 86.046875 " style=" stroke:none;fill-rule:nonzero;fill:rgb(0%,0%,0%);fill-opacity:1;" />
<path d="M 326.597656 193.421875 C 326.597656 190.683594 325.125 188.152344 322.738281 186.804688 L 212.089844 124.230469 C 209.765625 122.917969 206.925781 122.917969 204.605469 124.230469 L 93.957031 186.804688 C 91.574219 188.15625 90.097656 190.683594 90.097656 193.421875 C 90.097656 196.164062 91.574219 198.695312 93.957031 200.042969 L 137.578125 224.710938 L 93.957031 249.378906 C 91.574219 250.730469 90.097656 253.257812 90.097656 256 C 90.097656 258.738281 91.574219 261.269531 93.957031 262.617188 L 137.578125 287.285156 L 93.957031 311.957031 C 91.574219 313.304688 90.097656 315.835938 90.097656 318.574219 C 90.097656 321.316406 91.574219 323.84375 93.957031 325.191406 L 204.605469 387.765625 C 205.765625 388.425781 207.054688 388.753906 208.347656 388.753906 C 209.636719 388.753906 210.929688 388.425781 212.089844 387.765625 L 322.738281 325.191406 C 325.125 323.84375 326.597656 321.316406 326.597656 318.574219 C 326.597656 315.835938 325.125 313.304688 322.738281 311.957031 L 279.117188 287.285156 L 322.738281 262.617188 C 325.125 261.269531 326.597656 258.738281 326.597656 256 C 326.597656 253.257812 325.125 250.730469 322.738281 249.378906 L 279.117188 224.710938 L 322.738281 200.042969 C 325.125 198.695312 326.597656 196.164062 326.597656 193.421875 Z M 113.148438 256 L 153.023438 233.445312 L 192.902344 256 L 153.023438 278.550781 Z M 208.347656 264.734375 L 248.226562 287.285156 L 208.347656 309.839844 L 168.472656 287.285156 Z M 208.347656 247.261719 L 168.472656 224.710938 L 208.347656 202.160156 L 248.226562 224.710938 Z M 303.546875 318.574219 L 208.347656 372.414062 L 113.148438 318.574219 L 153.023438 296.023438 L 204.605469 325.191406 C 205.765625 325.851562 207.058594 326.179688 208.347656 326.179688 C 209.640625 326.179688 210.929688 325.851562 212.089844 325.191406 L 263.671875 296.023438 Z M 303.546875 256 L 263.671875 278.550781 L 223.796875 256 L 263.671875 233.445312 Z M 263.671875 215.976562 L 212.089844 186.804688 C 209.769531 185.492188 206.929688 185.492188 204.605469 186.804688 L 153.023438 215.976562 L 113.148438 193.421875 L 208.347656 139.585938 L 303.546875 193.421875 Z M 263.671875 215.976562 " style=" stroke:none;fill-rule:nonzero;fill:rgb(0%,0%,0%);fill-opacity:1;" />
</g>
</svg>