<svg id="Layer_1" enable-background="new 0 0 128 128" height="512" viewBox="0 0 128 128" width="512" xmlns="http://www.w3.org/2000/svg"><g><g><path d="m116 104.99v-77.98c0-3.309-2.691-6-6-6h-88c-3.309 0-6 2.691-6 6v77.98c0 3.309 2.691 6 6 6h88c3.309 0 6-2.691 6-6z" fill="#e6e7e8"/></g><g><g><g><g><g><g><g><path d="m111 23.01v10.78h-98v-10.78c0-2.76 2.24-5 5-5h88c2.77 0 5 2.24 5 5z" fill="#0089ef"/></g><g><path d="m103.041 23.289c-1.287 0-2.33 1.043-2.33 2.33s1.043 2.33 2.33 2.33 2.33-1.043 2.33-2.33-1.044-2.33-2.33-2.33z" fill="#fa759e"/><circle cx="93.565" cy="25.619" fill="#ffd7e5" r="2.33"/><circle cx="84.089" cy="25.619" fill="#d4fbff" r="2.33"/></g><g><path d="m106 18.01h-88c-2.76 0-5 2.24-5 5v3c0-2.76 2.24-5 5-5h88c2.77 0 5 2.24 5 5v-3c0-2.76-2.23-5-5-5z" fill="#fff"/></g><path d="m111 33.79v67.2c0 2.76-2.23 5-5 5h-88c-2.76 0-5-2.24-5-5v-67.2z" fill="#d4fbff"/></g></g></g></g></g><g><path d="m52.246 79.698v.056c0 2.344-2.401 3.92-4.552 2.988l-18.352-7.954c-1.709-.741-2.815-2.425-2.815-4.288v-.051c0-1.863 1.106-3.547 2.815-4.288l18.352-7.954c2.151-.932 4.552.644 4.552 2.988v.089c0 1.347-.829 2.555-2.086 3.039l-15.835 6.1 15.857 6.243c1.246.491 2.064 1.693 2.064 3.032z" fill="#fa759e"/><path d="m94.665 74.79-18.354 7.991c-2.151.937-4.557-.64-4.557-2.986v-.045c0-1.339.82-2.542 2.067-3.032l15.906-6.245-15.891-6.149c-1.255-.485-2.082-1.692-2.082-3.037 0-2.341 2.397-3.918 4.547-2.99l18.35 7.917c1.713.739 2.822 2.426 2.822 4.291-.001 1.86-1.103 3.543-2.808 4.285z" fill="#fa759e"/><g><path d="m66.315 50.341c-1.274 0-2.386.864-2.7 2.099l-8.582 33.735c-.448 1.761.883 3.473 2.7 3.473 1.274 0 2.386-.864 2.7-2.099l8.582-33.735c.449-1.761-.882-3.473-2.7-3.473z" fill="#fa759e"/><g fill="#3a2c60"><path d="m35.212 19.01h3.879c.552 0 1-.448 1-1s-.448-1-1-1h-3.879c-.552 0-1 .448-1 1s.448 1 1 1z"/><path d="m106 17.01h-62.909c-.552 0-1 .448-1 1s.448 1 1 1h62.909c2.206 0 4 1.794 4 4v9.78h-96v-9.78c0-2.206 1.794-4 4-4h13.212c.552 0 1-.448 1-1s-.448-1-1-1h-13.212c-3.309 0-6 2.691-6 6v77.98c0 3.309 2.691 6 6 6h88c3.309 0 6-2.691 6-6v-77.98c0-3.309-2.691-6-6-6zm4 83.98c0 2.206-1.794 4-4 4h-88c-2.206 0-4-1.794-4-4v-66.2h96z"/><path d="m28.945 75.706 18.352 7.954c.545.236 1.122.353 1.695.353.816 0 1.627-.236 2.333-.7 1.203-.79 1.921-2.12 1.921-3.559v-.056c0-1.761-1.059-3.316-2.697-3.961l-13.468-5.302 13.439-5.177c1.631-.628 2.727-2.225 2.727-4.062 0-1.439-.718-2.769-1.921-3.559-1.203-.789-2.708-.92-4.028-.347l-18.352 7.954c-2.076.9-3.417 2.943-3.417 5.256-.002 2.263 1.34 4.306 3.416 5.206zm.795-8.627 18.353-7.954c.294-.127.6-.191.904-.191.429 0 .853.126 1.231.375.647.425 1.019 1.112 1.019 1.976 0 .926-.581 1.773-1.445 2.106l-15.835 6.1c-.385.148-.639.517-.641.929-.001.413.25.783.634.935l15.857 6.243c.869.342 1.43 1.166 1.43 2.1v.056c0 .774-.371 1.462-1.018 1.887s-1.425.492-2.136.184l-18.353-7.954c-1.344-.583-2.212-1.906-2.212-3.421-.001-1.466.868-2.789 2.212-3.371z"/><path d="m70.754 79.795c0 1.44.719 2.771 1.924 3.561.706.463 1.516.698 2.331.698.576 0 1.154-.118 1.701-.355l18.354-7.991c2.07-.902 3.408-2.944 3.408-5.202 0-2.267-1.345-4.312-3.426-5.209l-18.35-7.917c-1.32-.57-2.825-.438-4.025.352-1.201.79-1.918 2.119-1.918 3.557 0 1.745 1.093 3.34 2.721 3.97l13.498 5.223-13.518 5.307c-1.64.643-2.7 2.199-2.7 4.006zm3.432-2.145 15.906-6.245c.384-.15.636-.521.635-.933s-.255-.781-.639-.93l-15.891-6.148c-.863-.334-1.443-1.18-1.443-2.105 0-.773.371-1.46 1.017-1.886.379-.249.804-.375 1.233-.375.302 0 .607.063.901.189l18.35 7.917c1.347.582 2.218 1.905 2.218 3.373 0 1.462-.866 2.784-2.207 3.368l-18.354 7.991c-.709.311-1.49.244-2.137-.182-.648-.425-1.02-1.113-1.02-1.932-.001-.936.561-1.76 1.431-2.102z"/><path d="m57.733 90.649c1.733 0 3.242-1.173 3.669-2.853l8.583-33.735c.29-1.141.042-2.328-.68-3.257-.723-.929-1.812-1.462-2.989-1.462-1.733 0-3.242 1.173-3.669 2.853l-8.583 33.735c-.29 1.141-.042 2.328.68 3.257s1.812 1.462 2.989 1.462zm-1.731-4.227 8.583-33.735c.202-.792.913-1.346 1.731-1.346.555 0 1.069.251 1.41.69s.458.999.321 1.537l-8.583 33.735c-.201.792-.913 1.346-1.731 1.346-.555 0-1.069-.251-1.41-.69s-.458-.998-.321-1.537z"/></g></g></g></g></g></svg>