<?xml version="1.0" encoding="iso-8859-1"?>
<!-- Generator: Adobe Illustrator 19.0.0, SVG Export Plug-In . SVG Version: 6.00 Build 0)  -->
<svg version="1.1" id="Capa_1" xmlns="http://www.w3.org/2000/svg" xmlns:xlink="http://www.w3.org/1999/xlink" x="0px" y="0px"
	 viewBox="0 0 512 512" style="enable-background:new 0 0 512 512;" xml:space="preserve">
<linearGradient id="SVGID_1_" gradientUnits="userSpaceOnUse" x1="256.2436" y1="513.6834" x2="256.2436" y2="1.6834" gradientTransform="matrix(0.9992 0 0 -0.9992 -0.0391 513.4777)">
	<stop  offset="0" style="stop-color:#2AF598"/>
	<stop  offset="1" style="stop-color:#009EFD"/>
</linearGradient>
<path style="fill:url(#SVGID_1_);" d="M194.05,275.984H76.045l54.278,54.894l-28.42,28.102L0,255.92l101.982-101.982l28.261,28.261
	l-53.815,53.815H194.05V275.984z M410.019,153.939l-28.261,28.261l53.815,53.815H317.951v39.968h118.005l-54.278,54.894
	l28.42,28.102L512,255.92L410.019,153.939z M511.796,145.089V60.156c0-33.058-26.895-59.952-59.952-59.952H60.157
	c-33.058,0-59.952,26.895-59.952,59.952v84.932h39.968V60.156c0-11.019,8.965-19.984,19.984-19.984h175.86v431.655H60.157
	c-11.019,0-19.984-8.965-19.984-19.984v-85.931H0.205v85.931c0,33.058,26.895,59.952,59.952,59.952h391.687
	c33.058,0,59.952-26.895,59.952-59.952v-85.931h-39.968v85.931c0,11.019-8.965,19.984-19.984,19.984h-175.86V40.172h175.86
	c11.019,0,19.984,8.965,19.984,19.984v84.932L511.796,145.089L511.796,145.089z"/>
<g>
</g>
<g>
</g>
<g>
</g>
<g>
</g>
<g>
</g>
<g>
</g>
<g>
</g>
<g>
</g>
<g>
</g>
<g>
</g>
<g>
</g>
<g>
</g>
<g>
</g>
<g>
</g>
<g>
</g>
</svg>
