<?xml version="1.0" encoding="iso-8859-1"?>
<!-- Generator: Adobe Illustrator 19.0.0, SVG Export Plug-In . SVG Version: 6.00 Build 0)  -->
<svg version="1.1" id="Capa_1" xmlns="http://www.w3.org/2000/svg" xmlns:xlink="http://www.w3.org/1999/xlink" x="0px" y="0px"
	 viewBox="0 0 464 464" style="enable-background:new 0 0 464 464;" xml:space="preserve">
<path style="fill:#00F2A9;" d="M420.474,124.8l-42.4-20.8v352l59.2-296C440.474,145.6,433.274,131.2,420.474,124.8z"/>
<g>
	<path style="fill:#322153;" d="M423.674,85.6l-38.4-19.2c-2.4-19.2-19.2-34.4-39.2-34.4h-184.8c-4-18.4-20-32-39.2-32h-32
		c-19.2,0-36,14.4-39.2,32.8c-18.4,3.2-32.8,20-32.8,39.2v352c0,22.4,17.6,40,40,40h288c21.6,0,40-16.8,40-38.4l0,0l59.2-296
		C448.474,112,439.674,93.6,423.674,85.6z M90.074,16h32c10.4,0,19.2,6.4,22.4,16h-76.8C70.874,22.4,79.674,16,90.074,16z
		 M370.074,424c0,13.6-10.4,24-24,24h-88v-24c0-4.8-3.2-8-8-8s-8,3.2-8,8v24h-16v-56c0-4.8-3.2-8-8-8s-8,3.2-8,8v56h-16v-24
		c0-4.8-3.2-8-8-8s-8,3.2-8,8v24h-80v-24c0-4.8-3.2-8-8-8s-8,3.2-8,8v24h-24c-13.6,0-24-10.4-24-24V72c0-13.6,10.4-24,24-24h88v152
		c0,13.6-10.4,24-24,24s-24-10.4-24-24V72c0-4.8-3.2-8-8-8s-8,3.2-8,8v128c0,22.4,17.6,40,40,40s40-17.6,40-40V48h184
		c13.6,0,24,10.4,24,24V424z M429.274,126.4l-43.2,216.8V84.8l30.4,15.2C426.074,104.8,431.674,116,429.274,126.4z"/>
	<path style="fill:#322153;" d="M314.074,96h-96c-4.8,0-8,3.2-8,8s3.2,8,8,8h96c4.8,0,8-3.2,8-8S318.874,96,314.074,96z"/>
	<path style="fill:#322153;" d="M314.074,160h-96c-4.8,0-8,3.2-8,8s3.2,8,8,8h96c4.8,0,8-3.2,8-8S318.874,160,314.074,160z"/>
	<path style="fill:#322153;" d="M218.074,240h32c4.8,0,8-3.2,8-8s-3.2-8-8-8h-32c-4.8,0-8,3.2-8,8
		C210.074,236.8,213.274,240,218.074,240z"/>
	<path style="fill:#322153;" d="M314.074,224h-32c-4.8,0-8,3.2-8,8c0,4.8,3.2,8,8,8h32c4.8,0,8-3.2,8-8S318.874,224,314.074,224z"/>
	<path style="fill:#322153;" d="M186.074,320h-96c-4.8,0-8,3.2-8,8s3.2,8,8,8h96c4.8,0,8-3.2,8-8S190.874,320,186.074,320z"/>
	<path style="fill:#322153;" d="M314.074,320h-96c-4.8,0-8,3.2-8,8s3.2,8,8,8h96c4.8,0,8-3.2,8-8S318.874,320,314.074,320z"/>
	<path style="fill:#322153;" d="M314.074,192h-96c-4.8,0-8,3.2-8,8s3.2,8,8,8h96c4.8,0,8-3.2,8-8S318.874,192,314.074,192z"/>
	<path style="fill:#322153;" d="M258.074,296c0-4.8-3.2-8-8-8h-160c-4.8,0-8,3.2-8,8s3.2,8,8,8h160
		C254.874,304,258.074,300.8,258.074,296z"/>
	<path style="fill:#322153;" d="M314.074,288h-32c-4.8,0-8,3.2-8,8s3.2,8,8,8h32c4.8,0,8-3.2,8-8S318.874,288,314.074,288z"/>
	<path style="fill:#322153;" d="M218.074,144h32c4.8,0,8-3.2,8-8s-3.2-8-8-8h-32c-4.8,0-8,3.2-8,8S213.274,144,218.074,144z"/>
	<path style="fill:#322153;" d="M314.074,128h-32c-4.8,0-8,3.2-8,8s3.2,8,8,8h32c4.8,0,8-3.2,8-8S318.874,128,314.074,128z"/>
	<path style="fill:#322153;" d="M314.074,256h-96c-4.8,0-8,3.2-8,8s3.2,8,8,8h96c4.8,0,8-3.2,8-8S318.874,256,314.074,256z"/>
</g>
<g>
</g>
<g>
</g>
<g>
</g>
<g>
</g>
<g>
</g>
<g>
</g>
<g>
</g>
<g>
</g>
<g>
</g>
<g>
</g>
<g>
</g>
<g>
</g>
<g>
</g>
<g>
</g>
<g>
</g>
</svg>
