<svg id="icons" enable-background="new 0 0 64 64" height="512" viewBox="0 0 64 64" width="512" xmlns="http://www.w3.org/2000/svg"><path d="m55 25.51h-45-.99v33.99h53.99v-33.99z" fill="#fff"/><path d="m55 6.5v3h-28.99l-2.4-3z" fill="#94c1ff"/><path d="m55 17.51v7.99.01h-45v-8.01-13h12l1.61 2 2.4 3h28.99z" fill="#d7e9ff"/><path d="m63 25.51h-8v-.01-7.99z" fill="#94c1ff"/><path d="m10 17.5v8.01h-.99-.01l-8-8.01z" fill="#94c1ff"/><path d="m9.01 25.51v33.99h-.01l-8-8v-34l8 8.01z" fill="#d7e9ff"/><path d="m35.98 30.5c6.63 0 12 5.37 12 12 0 6.62-5.37 12-12 12-6.631 0-12-5.38-12-12 0-6.63 5.37-12 12-12z" fill="#94c1ff"/><g fill="#116fff"><path d="m62.999 60.499h-53.992c-.553 0-1-.447-1-1v-33.993c0-.552.447-1 1-1h53.992c.553 0 1 .448 1 1v33.993c0 .553-.447 1-1 1zm-52.992-2h51.992v-31.993h-51.992z"/><path d="m62.999 26.506c-.256 0-.512-.098-.707-.293l-8.004-8.002c-.391-.39-.391-1.023 0-1.414s1.023-.391 1.414 0l8.004 8.002c.391.39.391 1.023 0 1.414-.195.195-.451.293-.707.293z"/><path d="m9.005 26.506c-.256 0-.512-.098-.707-.293l-8.004-8.002c-.391-.39-.391-1.023 0-1.414s1.023-.391 1.414 0l8.004 8.002c.391.39.391 1.023 0 1.414-.195.195-.451.293-.707.293z"/><path d="m9.005 60.5c-.256 0-.512-.098-.707-.293l-8.004-8.003c-.391-.391-.391-1.023 0-1.414s1.023-.391 1.414 0l8.004 8.003c.391.391.391 1.023 0 1.414-.195.195-.451.293-.707.293z"/><path d="m10 18.504h-8.999c-.553 0-1-.448-1-1s.447-1 1-1h8.999c.553 0 1 .448 1 1s-.447 1-1 1z"/><path d="m1.001 52.497c-.553 0-1-.447-1-1v-33.993c0-.552.447-1 1-1s1 .448 1 1v33.993c0 .553-.447 1-1 1z"/><path d="m10 26.506c-.553 0-1-.448-1-1v-21.006c0-.552.447-1 1-1s1 .448 1 1v21.006c0 .552-.447 1-1 1z"/><path d="m55 10.503h-28.993c-.304 0-.591-.138-.781-.375l-3.702-4.628h-11.524c-.553 0-1-.448-1-1s.447-1 1-1h12.005c.304 0 .591.138.781.375l3.701 4.627h28.513c.553 0 1 .448 1 1s-.447 1.001-1 1.001z"/><path d="m55 26.501c-.553 0-1-.448-1-1v-15.998c0-.552.447-1 1-1s1 .448 1 1v15.998c0 .552-.447 1-1 1z"/><path d="m55 7.503h-31.394c-.553 0-1-.448-1-1s.447-1 1-1h31.394c.553 0 1 .448 1 1s-.447 1-1 1z"/><path d="m55 10.503c-.553 0-1-.448-1-1v-3c0-.552.447-1 1-1s1 .448 1 1v3c0 .552-.447 1-1 1z"/><path d="m35.982 55.496c-7.168 0-13-5.832-13-13s5.832-13 13-13 13 5.832 13 13-5.832 13-13 13zm0-24c-6.065 0-11 4.935-11 11s4.935 11 11 11 11-4.935 11-11-4.934-11-11-11z"/><path d="m36 41.497h-1.998c-.553 0-1-.447-1-1s.447-1 1-1h1.998c.553 0 1 .447 1 1s-.447 1-1 1z"/><path d="m36 48.495c-.553 0-1-.447-1-1v-6.998c0-.553.447-1 1-1s1 .447 1 1v6.998c0 .553-.447 1-1 1z"/><path d="m37.998 48.495h-3.996c-.553 0-1-.447-1-1s.447-1 1-1h3.996c.553 0 1 .447 1 1s-.447 1-1 1z"/><path d="m36.03 38.497c-.553 0-1.005-.447-1.005-1s.442-1 .994-1h.011c.552 0 1 .447 1 1s-.448 1-1 1z"/></g></svg>