<svg id="Capa_1" enable-background="new 0 0 512.145 512.145" height="512" viewBox="0 0 512.145 512.145" width="512" xmlns="http://www.w3.org/2000/svg"><path d="m359.539 352.067v-254.608h-103.467l-10.666 105.274 10.666 170.667z" fill="#36cff5"/><path d="m256.072 97.459h-103.466v254.608l103.466 21.333z" fill="#74e0f6"/><path d="m256.072 414.674h103.467v-62.607h-103.467l-10.666 32z" fill="#444"/><path d="m152.606 352.067h103.467v62.607h-103.467z" fill="#5a5a5a"/><path d="m293.405 217.734v-30h-37.333l-10.666 15 10.666 15z" fill="#efe2dd"/><path d="m218.739 187.734h37.333v30h-37.333z" fill="#fff"/><path d="m293.405 281.734v-30h-37.333l-10.666 15 10.666 15z" fill="#efe2dd"/><path d="m218.739 251.734h37.333v30h-37.333z" fill="#fff"/><path d="m328.031 41.96c43.762 14.699 81.599 42.221 108.927 78.748l-28.415-6.409-6.602 29.265 76.488 17.252 17.252-76.488-29.266-6.601-5.594 24.801c-30.946-41.279-73.749-72.384-123.238-89.007-26.688-8.965-54.156-13.418-81.512-13.443l-10.667 10.655 10.667 19.359c24.151.023 48.4 3.954 71.96 11.868z" fill="#fdae02"/><path d="m502.952 188.118-28.922 7.972c11.957 43.383 10.671 88.96-3.721 131.806-19.221 57.225-59.576 103.539-113.632 130.413-31.799 15.809-66.101 23.766-100.605 23.734l-10.666 19.357 10.667 10.664c.079 0 .158.002.237.002 39.002-.001 77.778-9.026 113.724-26.896 61.23-30.44 106.943-82.903 128.716-147.724 16.299-48.527 17.752-100.164 4.202-149.328z" fill="#fdae02"/><g fill="#fdcb02"><path d="m13.396 174.686c-16.3 48.529-17.753 100.165-4.203 149.329l28.922-7.972c-11.957-43.382-10.671-88.96 3.721-131.805 19.221-57.225 59.576-103.54 113.632-130.412 31.799-15.808 66.101-23.766 100.605-23.733v-30.015c-39.085-.036-77.94 8.977-113.961 26.884-61.231 30.44-106.944 82.903-128.716 147.724z"/><path d="m184.113 470.174c-43.762-14.699-81.599-42.222-108.927-78.748l28.415 6.409 6.602-29.265-76.488-17.252-17.252 76.488 29.266 6.601 5.593-24.801c30.946 41.279 73.749 72.383 123.239 89.007 26.691 8.965 54.154 13.427 81.512 13.452v-30.023c-24.15-.023-48.399-3.954-71.96-11.868z"/></g></svg>