<svg height="480pt" viewBox="0 0 480.01574 480" width="480pt" xmlns="http://www.w3.org/2000/svg"><path d="m96.015625 40.007812v432h320v-432zm0 0" fill="#348fd9"/><path d="m400.015625 96.007812-56-56h-248v416h304zm0 0" fill="#3086cd"/><path d="m64.015625 440.007812h320v-360l-72-72h-248zm0 0" fill="#60d1e0"/><path d="m384.015625 80.007812h-72v-72zm0 0" fill="#9fe4ed"/><path d="m384.015625 176.007812-264 264h264zm0 0" fill="#5ac6d4"/><path d="m352.015625 408.007812h-160c-4.417969 0-8-3.582031-8-8v-64c0-4.417968 3.582031-8 8-8h160c4.417969 0 8 3.582032 8 8v64c0 4.417969-3.582031 8-8 8zm-152-16h144v-48h-144zm0 0" fill="#348fd9"/><path d="m216.015625 360.007812h32v16h-32zm0 0" fill="#348fd9"/><path d="m264.015625 360.007812h64v16h-64zm0 0" fill="#348fd9"/><path d="m248.015625 264.007812 47.996094-47.996093 112 112-47.996094 47.996093zm0 0" fill="#e0e0de"/><path d="m424.015625 144.007812c-26.507813 0-48 21.492188-48 48v4l-72 76 40 40 76-72h4c26.511719 0 48-21.492187 48-48 0-26.507812-21.488281-48-48-48zm0 0" fill="#95573a"/><path d="m224.019531 288.003906 24-24 112 112-24 24zm0 0" fill="#ebebe9"/><path d="m443.679688 148.246094c-33.144532 83.816406-84.929688 123.832031-119.574219 143.851562l19.910156 19.910156 76-72h4c22.609375-.027343 42.136719-15.832031 46.875-37.941406s-6.597656-44.527344-27.210937-53.820312zm0 0" fill="#8f4d2e"/><path d="m254.96875 83.207031c2.503906-5.207031 1.445312-11.425781-2.640625-15.511719-4.085937-4.085937-10.304687-5.144531-15.511719-2.640624-1.921875-5.433594-7.058594-9.070313-12.824218-9.070313-5.765626 0-10.90625 3.636719-12.824219 9.070313-5.203125-2.46875-11.398438-1.394532-15.464844 2.683593s-5.125 10.273438-2.640625 15.46875c-5.433594 1.921875-9.070312 7.058594-9.070312 12.824219s3.636718 10.90625 9.070312 12.824219c-2.46875 5.203125-1.394531 11.398437 2.683594 15.464843 4.078125 4.066407 10.273437 5.125 15.46875 2.640626 1.921875 5.433593 7.058594 9.070312 12.824218 9.070312 5.765626 0 10.90625-3.636719 12.824219-9.070312 5.203125 2.46875 11.398438 1.394531 15.464844-2.683594s5.125-10.273438 2.640625-15.46875c5.402344-1.941406 9.003906-7.0625 9.003906-12.800782 0-5.738281-3.601562-10.859374-9.003906-12.800781zm0 0" fill="#ffb531"/><path d="m200.015625 144.007812c.023437-32.289062-17.648437-61.992187-46.035156-77.378906-28.390625-15.382812-62.925781-13.972656-89.964844 3.675782v147.40625c27.039063 17.648437 61.574219 19.058593 89.964844 3.675781 28.386719-15.386719 46.058593-45.089844 46.035156-77.378907zm0 0" fill="#5ac6d4"/><path d="m328.015625 80.007812h56v16h-56zm0 0" fill="#5ac6d4"/><g fill="#3fb7c7"><path d="m152.015625 232.007812h80v16h-80zm0 0"/><path d="m104.015625 264.007812h96v16h-96zm0 0"/><path d="m104.015625 200.007812h168v16h-168zm0 0"/><path d="m104.015625 296.007812h48v16h-48zm0 0"/><path d="m104.015625 328.007812h64v16h-64zm0 0"/><path d="m104.015625 360.007812h64v16h-64zm0 0"/><path d="m104.015625 392.007812h64v16h-64zm0 0"/><path d="m104.015625 232.007812h32v16h-32zm0 0"/><path d="m168.015625 296.007812h32v16h-32zm0 0"/><path d="m168.015625 160.007812h32v16h-32zm0 0"/><path d="m216.015625 160.007812h64v16h-64zm0 0"/></g><path d="m184.015625 128.007812c0 48.601563-39.398437 88-88 88s-88-39.398437-88-88c0-48.601562 39.398437-88 88-88s88 39.398438 88 88zm0 0" fill="#7eb457"/><path d="m64.015625 176.007812c-2.121094 0-4.15625-.84375-5.65625-2.34375l-24-24 11.3125-11.3125 18.34375 18.34375 74.34375-74.34375 11.3125 11.3125-80 80c-1.5 1.5-3.535156 2.34375-5.65625 2.34375zm0 0" fill="#ffb531"/><path d="m198.191406 126.136719c-1.1875-5.765625-2.957031-11.394531-5.28125-16.800781-2.683594 6.132812-.429687 13.308593 5.28125 16.800781zm0 0" fill="#f98500"/><path d="m192.511719 108.527344c-2.261719-5.121094-5.003907-10.015625-8.191407-14.617188-1.0625 6.195313 2.351563 12.289063 8.191407 14.617188zm0 0" fill="#f98500"/><path d="m424.015625 120.007812v-80c0-4.417968-3.582031-8-8-8h-32v16h24v72zm0 0"/><path d="m56.015625 240.007812v200c0 4.417969 3.582031 8 8 8h320c4.417969 0 8-3.582031 8-8v-56h-16v48h-304v-192zm0 0"/><path d="m315.328125.808594c-.25-.113282-.488281-.175782-.746094-.265625-.667969-.230469-1.363281-.367188-2.070312-.414063-.175781-.0312498-.328125-.1210935-.496094-.1210935h-248c-4.417969 0-8 3.5820315-8 7.9999995v16h16v-8h232v64c0 4.417969 3.582031 8 8 8h64v40h16v-48c0-.167968-.085937-.320312-.097656-.496093-.042969-.707031-.183594-1.402344-.414063-2.070313-.089844-.257812-.152344-.496094-.265625-.746094-.386719-.871093-.929687-1.664062-1.597656-2.34375l-72-72c-.675781-.644531-1.457031-1.167968-2.3125-1.542968zm49.375 71.199218h-44.6875v-44.6875zm0 0"/><path d="m184.015625 336.007812v64c0 4.417969 3.582031 8 8 8h104v-16h-96v-48h40v-16h-48c-4.417969 0-8 3.582032-8 8zm0 0"/><path d="m216.015625 360.007812h48v16h-48zm0 0"/><path d="m424.015625 136.007812c-30.910156.039063-55.960937 25.089844-56 56v.800782l-40.800781 43.070312-25.542969-25.542968c-3.125-3.125-8.1875-3.125-11.3125 0l-72 72c-3.121094 3.125-3.121094 8.1875 0 11.3125l112 112c3.125 3.121093 8.1875 3.121093 11.3125 0l24-24 42.34375-42.328126v124.6875h-312v16h320c4.417969 0 8-3.582031 8-8v-192h-16v36.6875l-27.886719-27.886718 43.085938-40.800782h.800781c30.929687 0 56-25.070312 56-56 0-30.929687-25.070313-56-56-56zm-88 252.6875-100.6875-100.6875 12.6875-12.6875 100.6875 100.6875zm60.6875-60.6875-36.6875 36.6875-100.6875-100.6875 36.6875-36.6875 20.191406 20.191407-18 18.992187c-3.007812 3.152344-2.9375 8.128906.152344 11.199219l40 40c3.0625 3.0625 8.007813 3.128906 11.152344.152344l19-18zm27.3125-96h-4c-2.046875 0-4.015625.785157-5.503906 2.191407l-70.34375 66.609375-28.953125-28.953125 66.640625-70.34375c1.398437-1.492188 2.167969-3.460938 2.160156-5.503907v-4c0-22.089843 17.910156-40 40-40s40 17.910157 40 40c0 22.089844-17.910156 40-40 40zm0 0"/><path d="m152.015625 232.007812h80v16h-80zm0 0"/><path d="m104.015625 264.007812h96v16h-96zm0 0"/><path d="m176.015625 200.007812h96v16h-96zm0 0"/><path d="m104.015625 296.007812h48v16h-48zm0 0"/><path d="m104.015625 328.007812h64v16h-64zm0 0"/><path d="m104.015625 360.007812h64v16h-64zm0 0"/><path d="m104.015625 392.007812h64v16h-64zm0 0"/><path d="m104.015625 232.007812h32v16h-32zm0 0"/><path d="m168.015625 296.007812h32v16h-32zm0 0"/><path d="m200.015625 160.007812h80v16h-80zm0 0"/><path d="m96.015625 224.007812c51.667969-.058593 94.023437-41.003906 95.832031-92.640624 4.320313 3.617187 9.902344 5.363281 15.511719 4.847656 4.121094 4.9375 10.222656 7.792968 16.65625 7.792968s12.535156-2.855468 16.65625-7.792968c6.40625.574218 12.734375-1.722656 17.28125-6.269532 4.546875-4.546874 6.84375-10.875 6.269531-17.28125 4.941406-4.121093 7.792969-10.222656 7.792969-16.65625 0-6.433593-2.851563-12.535156-7.792969-16.65625.574219-6.40625-1.722656-12.734374-6.269531-17.28125-4.546875-4.546874-10.875-6.84375-17.28125-6.269531-4.121094-4.9375-10.222656-7.792969-16.65625-7.792969s-12.535156 2.855469-16.65625 7.792969c-6.40625-.574219-12.734375 1.722657-17.28125 6.269531-4.546875 4.546876-6.84375 10.875-6.269531 17.28125-1.183594.976563-2.257813 2.082032-3.199219 3.296876-22.195313-41.398438-71.082031-60.65625-115.546875-45.519532-44.464844 15.140625-71.449219 60.226563-63.773438 106.566406 7.675782 46.339844 47.757813 80.320313 94.726563 80.3125zm99.726563-133.28125c2.132812-.757812 3.84375-2.382812 4.710937-4.472656.863281-2.089844.804687-4.449218-.164063-6.492187-1.039062-2.148438-.605468-4.714844 1.078126-6.402344 1.6875-1.683594 4.253906-2.117187 6.402343-1.078125 2.042969.96875 4.402344 1.027344 6.492188.164062 2.089843-.867187 3.714843-2.578124 4.472656-4.710937.792969-2.238281 2.90625-3.734375 5.28125-3.734375s4.488281 1.496094 5.28125 3.734375c.757813 2.132813 2.382813 3.84375 4.472656 4.710937 2.089844.863282 4.449219.804688 6.496094-.164062 2.144531-1.039062 4.710937-.605469 6.398437 1.078125 1.683594 1.6875 2.117188 4.253906 1.078126 6.402344-.96875 2.042969-1.027344 4.402343-.164063 6.492187.867187 2.089844 2.578125 3.714844 4.710937 4.472656 2.238282.792969 3.734376 2.90625 3.734376 5.28125s-1.496094 4.488282-3.734376 5.28125c-2.132812.757813-3.84375 2.382813-4.710937 4.472657-.863281 2.089843-.804687 4.449219.164063 6.496093 1.105468 2.136719.65625 4.75-1.101563 6.398438-1.65625 1.742188-4.257813 2.1875-6.402344 1.105469-2.042969-.972657-4.402343-1.03125-6.492187-.164063-2.089844.863282-3.714844 2.574219-4.472656 4.707032-.792969 2.238281-2.910157 3.734374-5.28125 3.734374-2.375 0-4.488282-1.496093-5.28125-3.734374-.757813-2.136719-2.386719-3.847657-4.480469-4.710938-.972657-.398438-2.011719-.605469-3.0625-.609375-1.1875.003906-2.359375.277344-3.425781.800781-2.144532 1.035156-4.710938.601563-6.398438-1.082031-1.683594-1.6875-2.117188-4.253906-1.078125-6.398437.96875-2.042969 1.027344-4.402344.164063-6.492188-.867188-2.09375-2.578126-3.71875-4.710938-4.476562-2.238281-.789063-3.734375-2.90625-3.734375-5.28125 0-2.371094 1.496094-4.488282 3.734375-5.277344zm-99.726563-42.71875c44.183594 0 80 35.816407 80 80 0 44.183594-35.816406 80-80 80s-80-35.816406-80-80c.046875-44.164062 35.835937-79.953124 80-80zm0 0"/><path d="m58.359375 173.664062c3.125 3.121094 8.1875 3.121094 11.3125 0l80-80-11.3125-11.3125-74.34375 74.34375-18.34375-18.34375-11.3125 11.3125zm0 0"/></svg>