<svg id="Capa_1" enable-background="new 0 0 512 512" height="512" viewBox="0 0 512 512" width="512" xmlns="http://www.w3.org/2000/svg"><g><g><path d="m490.01 198.27v266.35c0 22.03-17.85 39.88-39.87 39.88h-327.6c-18.82 0-34.59-13.04-38.78-30.58l-.16-22.8-.13-19.23-.8-116.55v-267.96c0-22.03 17.85-39.88 39.87-39.88h176.7c15.88 0 67.31 43.85 112.77 90.03 41.48 42.15 78 86.24 78 100.74z" fill="#ddeafb"/><path d="m287.36 215.86v183.98c0 17.7-14.34 32.05-32.04 32.05h-171.851l-.8-116.55v-131.53h172.65c17.701 0 32.041 14.35 32.041 32.05z" fill="#bed8fb"/><path d="m490.006 198.27v97.57c0-.11-.01-.22-.01-.34-3-119.72-100.52-125.26-132.41-157.15l54.42-40.82c41.48 42.15 78 86.24 78 100.74z" fill="#cbe2ff"/><path d="m299.231 7.5h-97.57c.11 0 .22.01.34.01 119.72 3 125.26 100.52 157.15 132.41l40.82-54.42c-42.15-41.48-86.24-78-100.74-78z" fill="#cbe2ff"/><path d="m490.005 198.276v16.868c0-35.514-28.798-64.312-64.312-64.312h-39.143c-22.019 0-39.877-17.858-39.877-39.877v-39.143c0-35.514-28.798-64.312-64.312-64.312h16.868c30.373 0 59.512 12.068 80.989 33.545l76.242 76.242c21.477 21.476 33.545 50.615 33.545 80.989z" fill="#bed8fb"/><path d="m276.602 401.246h-183.989c-17.697 0-32.043-14.346-32.043-32.043v-183.989c0-17.697 14.346-32.043 32.043-32.043h183.989c17.697 0 32.043 14.346 32.043 32.043v183.989c0 17.696-14.346 32.043-32.043 32.043z" fill="#f1d333"/></g><g><path d="m497.505 198.276c0-32.598-12.693-63.244-35.741-86.292l-76.242-76.242c-23.048-23.049-53.694-35.742-86.292-35.742h-16.868-159.832c-26.162 0-47.37 21.208-47.37 47.37v102.372c-11.818 5.839-20.313 17.407-21.837 31.056-21.974 3.487-38.827 22.56-38.827 45.5 0 22.851 16.725 41.861 38.575 45.455v97.449c0 15.785 9.3 29.433 22.705 35.769l.441 64.077c.038 5.485 1.154 10.936 3.493 15.898 7.69 16.311 24.151 27.054 42.82 27.054h327.6c26.162 0 47.37-21.208 47.37-47.37v-156.416c0-4.107-3.165-7.688-7.27-7.811-4.247-.127-7.73 3.278-7.73 7.497v156.72c0 17.883-14.497 32.38-32.38 32.38h-327.59c-.462 0-.921-.01-1.379-.029-16.774-.699-29.844-14.883-29.96-31.671l-.39-56.601c.601.027 1.205.046 1.812.046h8.191c4.107 0 7.688-3.164 7.811-7.269.128-4.247-3.278-7.731-7.497-7.731h-8.506c-13.555 0-24.543-10.988-24.543-24.543v-173.978h116.453c8.567 0 15.95 6.57 16.372 15.127.451 9.147-6.86 16.732-15.91 16.732h-77.75c-4.107 0-7.688 3.164-7.811 7.269-.128 4.247 3.278 7.731 7.497 7.731h77.406c16.83 0 31.074-13.171 31.574-29.993.519-17.48-13.55-31.866-30.916-31.866h-116.403c2.312-11.149 12.209-19.554 24.032-19.554h183.988c13.555 0 24.543 10.988 24.543 24.543v183.989c0 13.555-10.988 24.543-24.543 24.543h-145.168c-4.107 0-7.688 3.164-7.811 7.269-.128 4.247 3.278 7.731 7.497 7.731h145.483c21.839 0 39.543-17.704 39.543-39.543v-183.988c0-21.839-17.704-39.543-39.543-39.543h-183.989c-.825 0-1.641.034-2.454.084v-98.375c0-17.883 14.497-32.38 32.38-32.38h159.822c31.376 0 56.812 25.435 56.812 56.812v39.143c0 26.166 21.211 47.377 47.377 47.377h39.144c31.249 0 56.68 25.361 56.806 56.581v62.672c0 4.107 3.165 7.688 7.27 7.811 4.247.127 7.73-3.278 7.73-7.497v-62.64c.001-.039.006-.077.006-.116v-16.867zm-468.01 28.023c0-14.549 10.052-26.789 23.575-30.154v60.308c-13.523-3.365-23.575-15.605-23.575-30.154zm396.199-82.967h-39.143c-17.854 0-32.378-14.524-32.378-32.377v-39.143c0-20.268-8.438-38.6-21.987-51.669 15.941 5.136 30.545 14.021 42.729 26.205l76.242 76.242c12.185 12.184 21.069 26.787 26.205 42.729-13.07-13.549-31.401-21.987-51.668-21.987z"/><path d="m102.286 280.405h164.642c4.143 0 7.5-3.358 7.5-7.5s-3.357-7.5-7.5-7.5h-164.642c-4.142 0-7.5 3.358-7.5 7.5s3.358 7.5 7.5 7.5z"/><path d="m102.286 320.3h164.642c4.143 0 7.5-3.358 7.5-7.5s-3.357-7.5-7.5-7.5h-164.642c-4.142 0-7.5 3.358-7.5 7.5s3.358 7.5 7.5 7.5z"/><path d="m102.286 360.195h164.642c4.143 0 7.5-3.358 7.5-7.5s-3.357-7.5-7.5-7.5h-164.642c-4.142 0-7.5 3.358-7.5 7.5s3.358 7.5 7.5 7.5z"/></g></g></svg>