<svg height="512pt" viewBox="0 0 512 511" width="512pt" xmlns="http://www.w3.org/2000/svg"><path d="m486.398438 462.1875-24.308594 24.710938-61.023438-60.621094 24.3125-24.710938zm0 0" fill="#d4e1f4"/><path d="m494.933594 482.632812c-.003906 3.394532-1.355469 6.648438-3.753906 9.046876-5.070313 4.925781-13.152344 4.886718-18.175782-.085938l-6.742187-6.65625 18.089843-18.089844 6.828126 6.742188c2.398437 2.394531 3.75 5.648437 3.753906 9.042968zm0 0" fill="#d4e1f4"/><path d="m17.066406 9.035156h128c4.714844 0 8.535156 3.820313 8.535156 8.53125v17.066406c0 4.714844-3.820312 8.535157-8.535156 8.535157h-128c-4.710937 0-8.53125-3.820313-8.53125-8.535157v-17.066406c0-4.710937 3.820313-8.53125 8.53125-8.53125zm0 0" fill="#e3e7f2"/><path d="m256 77.300781h128c4.710938 0 8.535156 3.820313 8.535156 8.53125v17.066407c0 4.714843-3.824218 8.535156-8.535156 8.535156h-128c-4.710938 0-8.535156-3.820313-8.535156-8.535156v-17.066407c0-4.710937 3.824218-8.53125 8.535156-8.53125zm0 0" fill="#e3e7f2"/><path d="m196.265625 9.035156h68.269531c4.710938 0 8.53125 3.820313 8.53125 8.53125v17.066406c0 4.714844-3.820312 8.535157-8.53125 8.535157h-68.269531c-4.710937 0-8.53125-3.820313-8.53125-8.535157v-17.066406c0-4.710937 3.820313-8.53125 8.53125-8.53125zm0 0" fill="#e3e7f2"/><path d="m136.535156 77.300781h68.265625c4.710938 0 8.53125 3.820313 8.53125 8.53125v17.066407c0 4.714843-3.820312 8.535156-8.53125 8.535156h-68.265625c-4.714844 0-8.535156-3.820313-8.535156-8.535156v-17.066407c0-4.710937 3.820312-8.53125 8.535156-8.53125zm0 0" fill="#e3e7f2"/><path d="m17.066406 77.300781h68.265625c4.714844 0 8.535157 3.820313 8.535157 8.53125v17.066407c0 4.714843-3.820313 8.535156-8.535157 8.535156h-68.265625c-4.710937 0-8.53125-3.820313-8.53125-8.535156v-17.066407c0-4.710937 3.820313-8.53125 8.53125-8.53125zm0 0" fill="#e3e7f2"/><path d="m315.734375 9.035156h34.132813c4.710937 0 8.53125 3.820313 8.53125 8.53125v17.066406c0 4.714844-3.820313 8.535157-8.53125 8.535157h-34.132813c-4.714844 0-8.535156-3.820313-8.535156-8.535157v-17.066406c0-4.710937 3.820312-8.53125 8.535156-8.53125zm0 0" fill="#e3e7f2"/><path d="m435.199219 77.300781h59.734375c4.710937 0 8.53125 3.820313 8.53125 8.53125v17.066407c0 4.714843-3.820313 8.535156-8.53125 8.535156h-59.734375c-4.710938 0-8.53125-3.820313-8.53125-8.535156v-17.066407c0-4.710937 3.820312-8.53125 8.53125-8.53125zm0 0" fill="#e3e7f2"/><path d="m401.066406 9.035156h93.867188c4.710937 0 8.53125 3.820313 8.53125 8.53125v17.066406c0 4.714844-3.820313 8.535157-8.53125 8.535157h-93.867188c-4.710937 0-8.53125-3.820313-8.53125-8.535157v-17.066406c0-4.710937 3.820313-8.53125 8.53125-8.53125zm0 0" fill="#e3e7f2"/><path d="m128 350.367188h-102.398438c-9.425781 0-17.066406-7.640626-17.066406-17.066407v-85.335937c0-9.425782 7.640625-17.066406 17.066406-17.066406h460.796876c9.425781 0 17.066406 7.640624 17.066406 17.066406v85.335937c0 9.425781-7.640625 17.066407-17.066406 17.066407zm0 0" fill="#d4e1f4"/><path d="m119.757812 350.367188h-95.335937c-9.09375-.339844-16.199219-7.972657-15.886719-17.066407v-85.335937c-.3125-9.09375 6.792969-16.726563 15.886719-17.066406h429.023437c9.09375.339843 16.199219 7.972656 15.886719 17.066406v85.335937c.3125 9.09375-6.792969 16.726563-15.886719 17.066407zm0 0" fill="#e3e7f2"/><path d="m426.667969 290.632812c0 75.40625-61.128907 136.535157-136.535157 136.535157s-136.53125-61.128907-136.53125-136.535157 61.125-136.53125 136.53125-136.53125 136.535157 61.125 136.535157 136.53125zm0 0" fill="#e3e7f2"/><path d="m392.535156 290.632812c0 56.554688-45.847656 102.402344-102.402344 102.402344-56.554687 0-102.398437-45.847656-102.398437-102.402344 0-56.554687 45.84375-102.398437 102.398437-102.398437 56.554688 0 102.402344 45.84375 102.402344 102.398437zm0 0" fill="#d4e1f4"/><path d="m358.398438 290.632812c0 47.128907-38.203126 85.332032-85.332032 85.332032s-85.332031-38.203125-85.332031-85.332032c0-47.128906 38.203125-85.332031 85.332031-85.332031s85.332032 38.203125 85.332032 85.332031zm0 0" fill="#e3e7f2"/><path d="m17.066406 43.167969h25.601563c-4.714844 0-8.535157-3.820313-8.535157-8.535157v-17.066406c0-4.710937 3.820313-8.53125 8.535157-8.53125h-25.601563c-4.710937 0-8.53125 3.820313-8.53125 8.53125v17.066406c0 4.714844 3.820313 8.535157 8.53125 8.535157zm0 0" fill="#fff"/><path d="m24.421875 350.367188h25.601563c-9.09375-.339844-16.203126-7.972657-15.890626-17.066407v-85.335937c-.3125-9.09375 6.796876-16.726563 15.890626-17.066406h-25.601563c-9.09375.339843-16.199219 7.972656-15.886719 17.066406v85.335937c-.3125 9.09375 6.792969 16.726563 15.886719 17.066407zm0 0" fill="#fff"/><path d="m17.066406 111.433594h25.601563c-4.714844 0-8.535157-3.820313-8.535157-8.535156v-17.066407c0-4.710937 3.820313-8.53125 8.535157-8.53125h-25.601563c-4.710937 0-8.53125 3.820313-8.53125 8.53125v17.066407c0 4.714843 3.820313 8.535156 8.53125 8.535156zm0 0" fill="#fff"/><path d="m290.132812 162.632812c-70.625.164063-127.835937 57.375-128 128h-17.066406c.164063-80.050781 65.015625-144.902343 145.066406-145.066406zm0 0" fill="#fff"/><g fill="#428dff"><path d="m486.398438 222.367188h-34.132813c-4.710937 0-8.53125 3.820312-8.53125 8.53125 0 4.714843 3.820313 8.535156 8.53125 8.535156h34.132813c4.714843 0 8.535156 3.820312 8.535156 8.53125v85.335937c0 4.710938-3.820313 8.53125-8.535156 8.53125h-34.132813c-4.710937 0-8.53125 3.820313-8.53125 8.535157 0 4.710937 3.820313 8.53125 8.53125 8.53125h34.132813c14.140624 0 25.601562-11.460938 25.601562-25.597657v-85.335937c0-14.136719-11.460938-25.597656-25.601562-25.597656zm0 0"/><path d="m25.601562 358.898438h102.398438c4.710938 0 8.535156-3.820313 8.535156-8.53125 0-4.714844-3.824218-8.535157-8.535156-8.535157h-102.398438c-4.714843 0-8.535156-3.820312-8.535156-8.53125v-85.335937c0-4.710938 3.820313-8.53125 8.535156-8.53125h102.398438c4.710938 0 8.535156-3.820313 8.535156-8.535156 0-4.710938-3.824218-8.53125-8.535156-8.53125h-68.265625v-8.535157c0-4.710937-3.820313-8.53125-8.535156-8.53125-4.710938 0-8.53125 3.820313-8.53125 8.53125v8.535157h-17.066407c-14.140624 0-25.601562 11.460937-25.601562 25.597656v85.335937c0 14.136719 11.460938 25.597657 25.601562 25.597657zm0 0"/><path d="m216.335938 168.785156c-.257813 1.101563-.292969 2.242188-.101563 3.355469.160156 1.101563.546875 2.160156 1.136719 3.105469 1.238281 1.878906 3.097656 3.257812 5.253906 3.898437 2.078125.53125 4.28125.222657 6.136719-.851562 1.882812-1.007813 3.3125-2.691407 4.003906-4.710938l.332031-1.578125c.070313-.566406.070313-1.140625 0-1.707031.007813-.542969-.0625-1.082031-.207031-1.605469-.15625-.546875-.347656-1.085937-.570313-1.613281-.984374-2.050781-2.75-3.621094-4.898437-4.367187-1.128906-.324219-2.304687-.433594-3.472656-.316407-3.617188.347657-6.644531 2.890625-7.613281 6.390625zm0 0"/><path d="m290.132812 401.566406c61.265626 0 110.933594-49.667968 110.933594-110.933594 0-61.265624-49.667968-110.933593-110.933594-110.933593-61.265624 0-110.933593 49.667969-110.933593 110.933593.070312 61.238282 49.695312 110.863282 110.933593 110.933594zm0-204.800781c51.839844 0 93.867188 42.027344 93.867188 93.867187 0 51.839844-42.027344 93.867188-93.867188 93.867188-51.839843 0-93.867187-42.027344-93.867187-93.867188.0625-51.816406 42.050781-93.804687 93.867187-93.867187zm0 0"/><path d="m42.667969 265.035156v51.199219c0 4.710937 3.820312 8.53125 8.53125 8.53125 4.714843 0 8.535156-3.820313 8.535156-8.53125v-51.199219c0-4.714844-3.820313-8.535156-8.535156-8.535156-4.710938 0-8.53125 3.820312-8.53125 8.535156zm0 0"/><path d="m432.640625 392.488281c-3.34375-3.269531-8.691406-3.238281-12 .066407l-8.257813 8.253906-13.808593-13.808594c-.050781-.058594-.128907-.066406-.1875-.128906 38.070312-42.609375 47.527343-103.625 24.136719-155.761719-23.386719-52.136719-75.25-85.644531-132.390626-85.542969-12.089843.109375-24.121093 1.667969-35.839843 4.640625-2.269531.480469-4.234375 1.898438-5.398438 3.90625-1.164062 2.007813-1.421875 4.417969-.710937 6.625 1.441406 4.3125 5.867187 6.875 10.324218 5.972657 10.34375-2.609376 20.960938-3.976563 31.625-4.078126 60.90625-.152343 113.527344 42.539063 125.933594 102.167969 12.402344 59.628907-18.824218 119.761719-74.742187 143.914063-55.914063 24.148437-121.101563 5.660156-156.007813-44.253906-34.90625-49.910157-29.910156-117.484376 11.957032-161.722657 1.753906-2.011719 3.65625-3.886719 5.691406-5.613281 3.214844-3.257812 3.4375-8.425781.511718-11.945312-1.492187-1.765626-3.652343-2.828126-5.960937-2.925782s-4.554687.773438-6.191406 2.402344c-2.292969 1.96875-4.445313 4.097656-6.441407 6.367188-53.300781 56.355468-52.757812 144.695312 1.234376 200.390624 53.988281 55.695313 142.269531 58.988282 200.253906 7.464844.0625.058594.070312.136719.128906.1875l13.808594 13.808594-9.847656 9.847656c-1.613282 1.613282-2.515626 3.804688-2.5 6.085938.015624 2.28125.941406 4.460937 2.574218 6.054687l70.476563 68.890625c11.683593 11.644532 30.597656 11.613282 42.242187-.070312 11.644532-11.679688 11.613282-30.59375-.070312-42.238282zm-5.898437 18.097657 49.714843 48.640624-18.097656 18.097657-49.714844-48.597657zm64.453124 81.066406c-2.414062 2.410156-5.6875 3.757812-9.097656 3.746094-3.414062-.015626-6.675781-1.390626-9.070312-3.820313l-2.464844-2.398437 18.097656-18.101563 2.5625 2.476563c4.988282 4.996093 4.988282 13.09375 0 18.089843zm0 0"/><path d="m222.761719 268.847656 34.132812 68.265625c1.496094 3.058594 4.683594 4.917969 8.082031 4.710938 3.394532-.175781 6.359376-2.347657 7.550782-5.527344l17.605468-46.960937 17.605469 46.933593c1.191407 3.183594 4.15625 5.355469 7.550781 5.53125h.445313c3.25.015625 6.226563-1.8125 7.679687-4.71875l34.132813-68.269531c2.105469-4.21875.394531-9.34375-3.824219-11.449219-4.21875-2.109375-9.34375-.394531-11.449218 3.820313l-25.421876 50.78125-18.722656-49.933594c-1.246094-3.339844-4.433594-5.554688-7.996094-5.554688s-6.75 2.214844-7.996093 5.554688l-18.722657 49.933594-25.335937-50.746094c-2.105469-4.21875-7.230469-5.929688-11.449219-3.824219-4.21875 2.109375-5.929687 7.234375-3.824218 11.453125zm0 0"/><path d="m17.066406 51.699219h128c9.425782 0 17.066406-7.640625 17.066406-17.066407v-17.066406c0-9.425781-7.640624-17.066406-17.066406-17.066406h-128c-9.425781 0-17.066406 7.640625-17.066406 17.066406v17.066406c0 9.425782 7.640625 17.066407 17.066406 17.066407zm0-34.132813h128v17.066406h-128zm0 0"/><path d="m384 119.964844c9.425781 0 17.066406-7.640625 17.066406-17.066406v-17.066407c0-9.425781-7.640625-17.066406-17.066406-17.066406h-128c-9.425781 0-17.066406 7.640625-17.066406 17.066406v17.066407c0 9.425781 7.640625 17.066406 17.066406 17.066406zm-128-34.132813h128v17.066407h-128zm0 0"/><path d="m196.265625 51.699219h68.269531c9.425782 0 17.066406-7.640625 17.066406-17.066407v-17.066406c0-9.425781-7.640624-17.066406-17.066406-17.066406h-68.269531c-9.425781 0-17.066406 7.640625-17.066406 17.066406v17.066406c0 9.425782 7.640625 17.066407 17.066406 17.066407zm0-34.132813h68.269531v17.066406h-68.269531zm0 0"/><path d="m204.800781 68.765625h-68.265625c-9.425781 0-17.070312 7.640625-17.070312 17.066406v17.066407c0 9.425781 7.644531 17.066406 17.070312 17.066406h68.265625c9.425781 0 17.066407-7.640625 17.066407-17.066406v-17.066407c0-9.425781-7.640626-17.066406-17.066407-17.066406zm-68.265625 34.132813v-17.066407h68.265625v17.066407zm0 0"/><path d="m17.066406 119.964844h25.601563v8.535156c0 4.710938 3.820312 8.535156 8.53125 8.535156 4.714843 0 8.535156-3.824218 8.535156-8.535156v-8.535156h25.597656c9.425781 0 17.066407-7.640625 17.066407-17.066406v-17.066407c0-9.425781-7.640626-17.066406-17.066407-17.066406h-68.265625c-9.425781 0-17.066406 7.640625-17.066406 17.066406v17.066407c0 9.425781 7.640625 17.066406 17.066406 17.066406zm0-34.132813h68.265625v17.066407h-68.265625zm0 0"/><path d="m315.734375 51.699219h34.132813c9.425781 0 17.066406-7.640625 17.066406-17.066407v-17.066406c0-9.425781-7.640625-17.066406-17.066406-17.066406h-34.132813c-9.425781 0-17.066406 7.640625-17.066406 17.066406v17.066406c0 9.425782 7.640625 17.066407 17.066406 17.066407zm0-34.132813h34.132813v17.066406h-34.132813zm0 0"/><path d="m494.933594 68.765625h-59.734375c-9.425781 0-17.066407 7.640625-17.066407 17.066406v17.066407c0 9.425781 7.640626 17.066406 17.066407 17.066406h59.734375c9.425781 0 17.066406-7.640625 17.066406-17.066406v-17.066407c0-9.425781-7.640625-17.066406-17.066406-17.066406zm-59.734375 34.132813v-17.066407h59.734375v17.066407zm0 0"/><path d="m494.933594.5h-93.867188c-9.425781 0-17.066406 7.640625-17.066406 17.066406v17.066406c0 9.425782 7.640625 17.066407 17.066406 17.066407h93.867188c9.425781 0 17.066406-7.640625 17.066406-17.066407v-17.066406c0-9.425781-7.640625-17.066406-17.066406-17.066406zm-93.867188 34.132812v-17.066406h93.867188v17.066406zm0 0"/><path d="m51.199219 154.101562c-4.710938 0-8.53125 3.820313-8.53125 8.53125v17.066407c0 4.714843 3.820312 8.535156 8.53125 8.535156 4.714843 0 8.535156-3.820313 8.535156-8.535156v-17.066407c0-4.710937-3.820313-8.53125-8.535156-8.53125zm0 0"/></g></svg>