<svg height="511pt" viewBox="-25 1 511 511.99999" width="511pt" xmlns="http://www.w3.org/2000/svg"><path d="m440.871094 504.5h-419.566406c-7.347657 0-13.304688-5.957031-13.304688-13.304688v-463.738281c0-11.019531 8.933594-19.957031 19.957031-19.957031h406.261719c11.023438 0 19.957031 8.9375 19.957031 19.957031v463.738281c0 7.347657-5.957031 13.304688-13.304687 13.304688zm0 0" fill="#e3f4ff"/><path d="m454.179688 27.464844v463.734375c0 7.34375-5.960938 13.304687-13.304688 13.304687h-41.699219c7.359375 0 13.304688-5.960937 13.304688-13.304687v-463.734375c0-11.03125-8.929688-19.960938-19.957031-19.960938h41.699218c11.015625 0 19.957032 8.929688 19.957032 19.960938zm0 0" fill="#bddff4"/><path d="m454.179688 27.464844v66.710937h-446.183594v-66.710937c0-11.03125 8.941406-19.960938 19.957031-19.960938h406.269531c11.015625 0 19.957032 8.929688 19.957032 19.960938zm0 0" fill="#a7c7d3"/><path d="m454.179688 27.464844v66.710937h-41.699219v-66.710937c0-11.03125-8.929688-19.960938-19.957031-19.960938h41.699218c11.015625 0 19.957032 8.929688 19.957032 19.960938zm0 0" fill="#89b4c9"/><path d="m256.390625 344.492188-60.585937 60.585937c-31.09375 31.089844-81.679688 31.089844-112.769532 0-31.09375-31.089844-31.09375-81.679687 0-112.769531l60.585938-60.585938c31.089844-31.089844 81.679687-31.089844 112.769531 0s31.089844 81.679688 0 112.769532zm-148.359375-27.1875c-17.308594 17.308593-17.308594 45.46875 0 62.773437 17.308594 17.308594 45.464844 17.308594 62.773438 0l60.585937-60.585937c17.308594-17.304688 17.308594-45.464844 0-62.773438-17.304687-17.304688-45.464844-17.304688-62.773437 0zm0 0" fill="#27e6fc"/><path d="m266.371094 190.074219-28.082032 28.082031c6.5 3.546875 12.605469 8.074219 18.097657 13.566406 3.125 3.121094 5.929687 6.4375 8.417969 9.917969l26.566406-26.566406c17.300781-17.304688 45.46875-17.304688 62.773437 0 17.300781 17.304687 17.300781 45.46875 0 62.773437l-60.585937 60.585938c-17.308594 17.308594-45.46875 17.300781-62.773438 0-17.304687-17.304688-17.308594-45.464844 0-62.773438l8.40625-8.40625c-2.011718-3.789062-4.613281-7.34375-7.800781-10.535156-5.769531-5.769531-12.75-9.613281-20.125-11.535156l-5.476563 5.476562c-31.09375 31.089844-31.09375 81.675782 0 112.769532 31.089844 31.089843 81.675782 31.089843 112.769532 0l60.582031-60.585938c31.09375-31.089844 31.09375-81.675781 0-112.769531-31.089844-31.089844-81.679687-31.089844-112.769531 0zm0 0" fill="#fd6096"/><path d="m454.175781 374.171875c4.140625 0 7.5-3.359375 7.5-7.5v-339.214844c0-15.140625-12.316406-27.457031-27.457031-27.457031h-406.261719c-15.140625 0-27.457031 12.316406-27.457031 27.457031v463.738281c0 11.46875 9.332031 20.804688 20.804688 20.804688h419.566406c11.472656 0 20.804687-9.332031 20.804687-20.804688v-91.863281c0-4.140625-3.355469-7.5-7.5-7.5-4.140625 0-7.5 3.359375-7.5 7.5v91.863281c0 3.199219-2.601562 5.804688-5.804687 5.804688h-419.566406c-3.199219 0-5.804688-2.605469-5.804688-5.804688v-389.515624h431.175781v264.992187c0 4.140625 3.359375 7.5 7.5 7.5zm-438.675781-287.492187v-59.222657c0-6.867187 5.589844-12.457031 12.457031-12.457031h406.261719c6.867188 0 12.457031 5.589844 12.457031 12.457031v59.222657zm0 0"/><path d="m77.84375 465.988281c-4.140625 0-7.5 3.355469-7.5 7.5 0 4.140625 3.359375 7.5 7.5 7.5h304.824219c4.140625 0 7.5-3.359375 7.5-7.5 0-4.144531-3.359375-7.5-7.5-7.5zm0 0"/><path d="m382.667969 131.503906c4.140625 0 7.5-3.359375 7.5-7.5 0-4.144531-3.359375-7.5-7.5-7.5h-304.824219c-4.140625 0-7.5 3.355469-7.5 7.5 0 4.140625 3.359375 7.5 7.5 7.5zm0 0"/><path d="m81.070312 35.695312c-2.929687-2.925781-7.679687-2.925781-10.605468 0l-3.449219 3.449219-3.445313-3.449219c-2.929687-2.925781-7.679687-2.925781-10.605468 0-2.929688 2.929688-2.929688 7.679688 0 10.609376l3.445312 3.445312-3.445312 3.449219c-2.929688 2.925781-2.929688 7.675781 0 10.605469 1.464844 1.464843 3.382812 2.195312 5.300781 2.195312s3.839844-.730469 5.304687-2.195312l3.445313-3.449219 3.449219 3.449219c1.464844 1.464843 3.382812 2.195312 5.300781 2.195312s3.839844-.730469 5.304687-2.195312c2.929688-2.929688 2.929688-7.679688 0-10.605469l-3.449218-3.449219 3.449218-3.445312c2.929688-2.929688 2.929688-7.679688 0-10.609376zm0 0"/><path d="m382.746094 35.84375c-2.847656-3.007812-7.597656-3.140625-10.605469-.292969l-9.511719 9c-1.496094 1.417969-2.34375 3.386719-2.34375 5.449219s.847656 4.03125 2.34375 5.449219l9.511719 9c1.449219 1.371093 3.304687 2.050781 5.152344 2.050781 1.992187 0 3.976562-.785156 5.449219-2.34375 2.847656-3.007812 2.71875-7.757812-.292969-10.605469l-3.753907-3.550781 3.757813-3.550781c3.007813-2.847657 3.136719-7.59375.292969-10.605469zm0 0"/><path d="m409.355469 35.84375c-2.847657-3.007812-7.59375-3.140625-10.601563-.292969l-9.511718 9c-1.496094 1.417969-2.34375 3.386719-2.34375 5.449219s.847656 4.03125 2.34375 5.449219l9.511718 9c1.449219 1.371093 3.300782 2.050781 5.152344 2.050781 1.988281 0 3.972656-.785156 5.449219-2.34375 2.847656-3.007812 2.714843-7.757812-.292969-10.605469l-3.753906-3.550781 3.753906-3.550781c3.011719-2.847657 3.140625-7.59375.292969-10.605469zm0 0"/><path d="m384.445312 184.773438c-16.453124-16.457032-38.363281-25.515626-61.6875-25.515626-23.328124 0-45.234374 9.058594-61.691406 25.515626l-24.257812 24.253906c-4.808594-2.234375-9.824219-4.042969-14.992188-5.371094-4.011718-1.03125-8.101562 1.390625-9.128906 5.402344-1.03125 4.011718 1.386719 8.097656 5.398438 9.128906 12.460937 3.195312 23.871093 9.710938 33 18.835938 28.164062 28.167968 28.164062 74 0 102.164062l-2.25 2.25c-4.726563-1.824219-9.066407-4.621094-12.75-8.304688-1.304688-1.308593-2.5-2.691406-3.578126-4.148437l4.1875-4.1875c9.785157-9.785156 15.175782-22.816406 15.175782-36.6875 0-13.875-5.390625-26.90625-15.175782-36.691406-20.230468-20.230469-53.148437-20.230469-73.378906 0l-60.585937 60.585937c-20.230469 20.230469-20.230469 53.148438 0 73.378906 10.113281 10.117188 23.402343 15.171876 36.6875 15.171876 13.289062 0 26.574219-5.054688 36.691406-15.171876l20.644531-20.644531c1.203125 1.363281 2.433594 2.703125 3.730469 3.996094 3.589844 3.59375 7.429687 6.78125 11.445313 9.613281l-21.429688 21.425782c-13.621094 13.621093-31.761719 21.121093-51.082031 21.121093-19.320313 0-37.460938-7.5-51.082031-21.121093-13.617188-13.617188-21.121094-31.757813-21.121094-51.078126 0-19.320312 7.503906-37.460937 21.121094-51.082031l60.585937-60.585937c10.390625-10.390625 23.519531-17.28125 37.960937-19.925782 4.074219-.746093 6.773438-4.65625 6.027344-8.730468-.746094-4.074219-4.65625-6.769532-8.730468-6.023438-17.449219 3.195313-33.3125 11.519532-45.863282 24.074219l-60.585937 60.582031c-16.457031 16.457032-25.515625 38.363282-25.515625 61.691406 0 23.324219 9.058594 45.234376 25.515625 61.6875 16.453125 16.453126 38.359375 25.515626 61.6875 25.515626s45.234375-9.0625 61.6875-25.515626l24.242187-24.242187c11.636719 5.40625 24.226563 8.109375 36.820313 8.105469 22.339843 0 44.683593-8.503906 61.691406-25.511719l60.582031-60.582031c34.015625-34.019532 34.015625-89.363282.003906-123.378906zm-158.359374 129.417968-.082032.082032c-.460937-2.355469-.699218-4.773438-.699218-7.226563 0-9.867187 3.828124-19.128906 10.78125-26.085937l.082031-.082032c.464843 2.355469.703125 4.773438.703125 7.226563 0 9.867187-3.828125 19.132812-10.785156 26.085937zm-60.582032 60.585938c-14.386718 14.378906-37.785156 14.382812-52.167968 0-6.957032-6.957032-10.785157-16.21875-10.785157-26.085938 0-9.863281 3.832031-19.128906 10.785157-26.082031l60.585937-60.585937c5.714844-5.714844 12.996094-9.316407 20.886719-10.417969-12.847656 15.566406-19.84375 34.957031-19.84375 55.441406 0 16.328125 4.457031 31.953125 12.761718 45.503906zm208.332032-77.234375-60.585938 60.585937c-28.164062 28.164063-73.996094 28.164063-102.160156 0-13.621094-13.621094-21.121094-31.761718-21.121094-51.082031s7.5-37.460937 21.121094-51.082031l2.246094-2.25c4.730468 1.824218 9.066406 4.625 12.75 8.308594 1.304687 1.304687 2.5 2.6875 3.582031 4.144531l-4.1875 4.1875c-9.789063 9.789062-15.179688 22.816406-15.179688 36.6875 0 13.875 5.390625 26.90625 15.179688 36.691406 9.785156 9.789063 22.816406 15.175781 36.6875 15.175781 13.875 0 26.90625-5.386718 36.691406-15.175781l11.792969-11.792969c2.929687-2.929687 2.929687-7.675781 0-10.605468-2.929688-2.929688-7.679688-2.929688-10.605469 0l-11.792969 11.792968c-5.722656 5.71875-13.007812 9.320313-20.902344 10.421875 23.832032-28.90625 26.183594-69.671875 7.078126-100.933593l22.242187-22.242188c6.953125-6.953125 16.21875-10.78125 26.082031-10.78125 9.867188 0 19.132813 3.828125 26.085938 10.78125s10.78125 16.21875 10.78125 26.085938c0 9.863281-3.828125 19.128906-10.78125 26.082031l-26.855469 26.855469c-2.929687 2.925781-2.929687 7.675781 0 10.605468 1.464844 1.464844 3.382813 2.195313 5.300781 2.195313 1.921875 0 3.839844-.730469 5.304688-2.195313l26.855468-26.855468c9.785157-9.785157 15.175782-22.816407 15.175782-36.6875 0-13.875-5.390625-26.90625-15.175782-36.691407-9.789062-9.789062-22.816406-15.175781-36.691406-15.175781s-26.902344 5.386719-36.6875 15.175781l-20.644531 20.644531c-1.199219-1.359374-2.433594-2.699218-3.730469-3.996093-3.542968-3.542969-7.375-6.757813-11.4375-9.621094l21.417969-21.417969c13.621094-13.621094 31.761719-21.121094 51.082031-21.121094 19.320313 0 37.460938 7.5 51.082032 21.121094 28.167968 28.167969 28.167968 73.996094 0 102.164063zm0 0"/></svg>