<svg height="512pt" viewBox="-96 0 512 512" width="512pt" xmlns="http://www.w3.org/2000/svg"><path d="m184.195312 212.292969h-62.4375v-164.421875c0-5.75 4.65625-10.40625 10.40625-10.40625h41.625c5.746094 0 10.40625 4.65625 10.40625 10.40625zm0 0" fill="#8db0ff"/><path d="m168.585938 37.464844v149.851562c0 5.746094-4.660157 10.40625-10.40625 10.40625h-36.421876v14.570313h62.4375v-164.421875c0-5.75-4.660156-10.40625-10.40625-10.40625zm0 0" fill="#669af7"/><path d="m121.757812 212.292969h62.4375v37.464843h-62.4375zm0 0" fill="#8db0ff"/><path d="m168.585938 212.292969h15.609374v37.464843h-15.609374zm0 0" fill="#669af7"/><path d="m171.707031 37.464844h-37.460937v-27.058594c0-5.746094 4.65625-10.40625 10.40625-10.40625h16.648437c5.746094 0 10.40625 4.660156 10.40625 10.40625zm0 0" fill="#ffd664"/><path d="m158.179688 0v37.464844h13.527343v-27.058594c0-5.746094-4.65625-10.40625-10.40625-10.40625zm0 0" fill="#f9c646"/><path d="m121.757812 69.722656h62.4375v35.382813h-62.4375zm0 0" fill="#ffd664"/><path d="m168.585938 69.722656v13.53125c0 5.746094-4.660157 10.40625-10.40625 10.40625h-36.421876v11.445313h62.4375v-35.382813zm0 0" fill="#f9c646"/><path d="m30.179688 59.316406h62.4375v190.441406h-62.4375zm0 0" fill="#ffd664"/><path d="m77.007812 59.316406v165.464844c0 5.746094-4.65625 10.40625-10.40625 10.40625h-36.421874v14.570312h62.4375v-190.441406zm0 0" fill="#f9c646"/><path d="m61.398438 257.5625c-4.308594 0-7.804688-3.496094-7.804688-7.804688v-190.441406c0-4.308594 3.496094-7.804687 7.804688-7.804687 4.3125 0 7.804687 3.496093 7.804687 7.804687v190.441406c0 4.308594-3.492187 7.804688-7.804687 7.804688zm0 0" fill="#636363"/><path d="m92.617188 59.316406h-62.4375v-43.707031c0-8.621094 6.988281-15.609375 15.609374-15.609375h31.222657c8.621093 0 15.609375 6.988281 15.609375 15.609375v43.707031zm0 0" fill="#ff6969"/><path d="m77.007812 0v59.316406h15.609376v-43.707031c0-8.621094-6.988282-15.609375-15.609376-15.609375zm0 0" fill="#ea4747"/><path d="m278.46875 83.320312c-.960938-4.875-5.238281-8.394531-10.210938-8.394531h-34.921874c-4.972657 0-9.246094 3.519531-10.207032 8.394531l-11.875 60.289063h79.089844zm0 0" fill="#636363"/><path d="m268.257812 74.925781h-10.175781l13.527344 68.683594h18.734375l-11.875-60.289063c-.960938-4.875-5.238281-8.394531-10.210938-8.394531zm0 0" fill="#494949"/><path d="m250.796875 143.609375h-39.542969l7.28125 106.148437h64.523438l7.285156-106.148437zm0 0" fill="#7ae57d"/><path d="m250.796875 143.609375h-39.542969l1.214844 17.691406h47.996094c6.027344 0 10.796875 5.105469 10.382812 11.121094l-5.308594 77.335937h17.519532l7.285156-106.148437zm0 0" fill="#66d166"/><path d="m310.113281 291.382812h-299.707031c-5.746094 0-10.40625-4.660156-10.40625-10.40625v-20.8125c0-5.75 4.660156-10.40625 10.40625-10.40625h299.707031c5.746094 0 10.40625 4.65625 10.40625 10.40625v20.8125c0 5.746094-4.65625 10.40625-10.40625 10.40625zm0 0" fill="#ff6969"/><path d="m310.113281 249.757812h-23.933593c5.746093 0 10.40625 4.65625 10.40625 10.402344v20.816406c0 5.746094-4.660157 10.40625-10.40625 10.40625h23.933593c5.75 0 10.40625-4.660156 10.40625-10.40625v-20.816406c0-5.746094-4.65625-10.402344-10.40625-10.402344zm0 0" fill="#ea4747"/><path d="m258.082031 512h-195.640625c-22.992187 0-41.628906-18.636719-41.628906-41.625v-178.992188h278.894531v178.992188c0 22.988281-18.636719 41.625-41.625 41.625zm0 0" fill="#ff6969"/><path d="m20.8125 291.382812v20.8125h238.308594c11.496094 0 20.816406 9.316407 20.816406 20.8125v172.792969c11.863281-7.332031 19.769531-20.453125 19.769531-35.425781v-178.992188zm0 0" fill="#ea4747"/><path d="m152.976562 183.675781c-4.3125 0-7.804687-3.496093-7.804687-7.804687v-106.148438c0-4.308594 3.492187-7.804687 7.804687-7.804687 4.308594 0 7.804688 3.496093 7.804688 7.804687v106.148438c0 4.308594-3.496094 7.804687-7.804688 7.804687zm0 0" fill="#636363"/></svg>