<svg height="480pt" viewBox="-24 0 480 480.00464" width="480pt" xmlns="http://www.w3.org/2000/svg"><g fill="#9bc9ff"><path d="m264.003906 391.359375c0-2.023437.132813-4 .300782-6.007813-.132813 2.015626-.253907 4.023438-.300782 6.007813zm0 0"/><path d="m264.707031 402.078125c.207031 1.65625.472657 3.289063.800781 4.90625-.328124-1.617187-.585937-3.257813-.800781-4.90625zm0 0"/><path d="m266.050781 409.734375c.382813 1.699219.800781 3.363281 1.335938 5.007813-.496094-1.644532-.984375-3.308594-1.335938-5.007813zm0 0"/><path d="m267.332031 368.871094c-1.40625 4.828125-2.375 9.769531-2.890625 14.769531 3.96875-37.558594 33.644532-67.230469 71.199219-71.199219-5.011719.511719-9.96875 1.484375-14.804687 2.894532-25.757813 7.625-45.894532 27.777343-53.503907 53.535156zm0 0"/><path d="m270.722656 424c-1-2.257812-1.871094-4.585938-2.65625-6.953125.785156 2.367187 1.65625 4.695313 2.65625 6.953125zm0 0"/><path d="m337.425781 312.335938c1.960938-.167969 3.929688-.289063 5.921875-.304688-1.960937.015625-3.9375.136719-5.921875.304688zm0 0"/><path d="m376.003906 318.71875c-2.257812-1-4.585937-1.871094-6.953125-2.65625 2.367188.785156 4.695313 1.65625 6.953125 2.65625zm0 0"/><path d="m366.730469 315.375c-1.601563-.488281-3.296875-.941406-4.984375-1.328125 1.6875.351563 3.34375.839844 4.984375 1.328125zm0 0"/><path d="m264.097656 393.886719c.046875 1.800781.121094 3.585937.289063 5.351562-.160157-1.765625-.242188-3.550781-.289063-5.351562zm0 0"/><path d="m351.203125 312.375c-1.769531-.152344-3.542969-.230469-5.335937-.277344 1.824218.046875 3.605468.125 5.335937.277344zm0 0"/><path d="m358.976562 313.480469c-1.597656-.304688-3.246093-.570313-4.902343-.800781 1.65625.230468 3.289062.496093 4.902343.800781zm0 0"/><path d="m360.003906 8h-248v80c0 8.835938-7.164062 16-16 16h-88v304c0 8.835938 7.160156 16 16 16h246.71875c-1-2.257812-1.871094-4.585938-2.65625-6.953125-.25-.757813-.449218-1.535156-.679687-2.304687-.496094-1.644532-.953125-3.308594-1.335938-5.007813-.207031-.902344-.382812-1.824219-.558593-2.75-.316407-1.601563-.582032-3.234375-.800782-4.90625-.121094-.941406-.242187-1.886719-.320312-2.839844-.167969-1.765625-.242188-3.550781-.289063-5.351562 0-.628907-.097656-1.246094-.097656-1.886719 0-.214844 0-.425781 0-.640625 0-1.984375.136719-4 .304687-6.007813.050782-.566406.050782-1.152343.105469-1.710937.515625-5 1.484375-9.941406 2.886719-14.769531 7.617188-25.757813 27.761719-45.910156 53.519531-53.527344 4.839844-1.410156 9.796875-2.382812 14.808594-2.894531.59375-.066407 1.199219-.066407 1.800781-.113281 1.984375-.167969 4-.289063 5.921875-.304688h.652344c.640625 0 1.257813.089844 1.898437.097656 1.792969.046875 3.566407.128906 5.335938.277344.953125.089844 1.894531.210938 2.839844.328125 1.65625.210937 3.289062.472656 4.902344.800781.929687.175782 1.847656.351563 2.769531.570313 1.6875.382812 3.34375.796875 4.984375 1.328125.800781.230468 1.597656.429687 2.320312.6875 2.398438.800781 4.695313 1.65625 6.949219 2.65625v-294.777344c0-8.832031-7.152344-15.992188-15.980469-16zm0 0"/><path d="m267.386719 414.742188c.230469.800781.429687 1.546874.679687 2.304687-.25-.757813-.449218-1.535156-.679687-2.304687zm0 0"/><path d="m343.347656 312c.855469 0 1.703125.046875 2.550782.0625-.640626 0-1.257813-.09375-1.894532-.09375-.226562.03125-.433594.03125-.65625.03125zm0 0"/><path d="m264.097656 393.886719c0-.796875-.070312-1.679688-.0625-2.527344v.640625c-.03125.640625.046875 1.257812.0625 1.886719zm0 0"/><path d="m265.492188 406.984375c.175781.925781.351562 1.847656.558593 2.75-.207031-.933594-.382812-1.824219-.558593-2.75zm0 0"/><path d="m354.074219 312.703125c-.945313-.117187-1.886719-.238281-2.839844-.328125.953125.089844 1.894531.210938 2.839844.328125zm0 0"/><path d="m264.386719 399.238281c.078125.953125.199219 1.898438.320312 2.839844-.121093-.941406-.242187-1.886719-.320312-2.839844zm0 0"/><path d="m369.050781 316.0625c-.761719-.253906-1.542969-.453125-2.320312-.6875.777343.234375 1.558593.433594 2.320312.6875zm0 0"/><path d="m264.441406 383.640625c-.054687.558594-.054687 1.144531-.101562 1.710937.046875-.550781.046875-1.136718.101562-1.710937zm0 0"/><path d="m361.746094 314.046875c-.917969-.214844-1.839844-.390625-2.769532-.566406.929688.175781 1.824219.359375 2.769532.566406zm0 0"/><path d="m337.425781 312.335938c-.597656.046874-1.207031.046874-1.800781.113281.601562-.066407 1.175781-.066407 1.800781-.113281zm0 0"/></g><path d="m384.003906 313.695312v-289.695312c0-13.253906-10.746094-24-24-24h-248c-.167968 0-.3125.078125-.480468.0898438-.648438.0429682-1.285157.1640622-1.90625.3593752-.253907.078125-.503907.136719-.75.238281-.84375.347656-1.617188.832031-2.296876 1.441406l-104 96c-.710937.683594-1.285156 1.5-1.695312 2.398438-.121094.261718-.21875.527344-.304688.800781-.261718.714844-.417968 1.464844-.464843 2.222656 0 .167969-.10156275.320313-.10156275.488281v303.960938c0 13.253906 10.74218775 24 23.99999975 24h241.695313c17.304687 33.941406 54.492187 52.882812 92.121093 46.921875 37.628907-5.964844 67.140626-35.476563 73.101563-73.105469 5.964844-37.628906-12.976563-74.816406-46.917969-92.121094zm-280-287.421874v61.726562c0 4.417969-3.582031 8-8 8h-67.539062zm-80 389.726562c-4.417968 0-8-3.582031-8-8v-296h80c13.253906 0 24-10.746094 24-24v-72h240c4.417969 0 8 3.582031 8 8v283.34375c-.53125-.152344-1.089844-.199219-1.601562-.335938-2.980469-.789062-6-1.421874-9.046875-1.886718-.761719-.113282-1.511719-.257813-2.28125-.351563-3.671875-.492187-7.367188-.75-11.070313-.769531h-.679687c-3.671875.039062-7.339844.304688-10.976563.800781-1.015625.128907-2.015625.296875-3.023437.464844-2.667969.457031-5.304688 1.03125-7.90625 1.71875-.945313.238281-1.902344.34375-2.839844.617187-28.363281 8.410157-50.539063 30.605469-58.929687 58.972657-.261719.921875-.367188 1.867187-.605469 2.792969-.6875 2.601562-1.273438 5.25-1.71875 7.945312-.167969.992188-.328125 1.984375-.457031 2.984375-.527344 3.691406-.816407 7.414063-.863282 11.144531v.0625.496094c.035156 3.707031.300782 7.40625.796875 11.078125.097657.746094.234375 1.480469.34375 2.21875.472657 3.078125 1.105469 6.125 1.90625 9.136719.136719.511718.183594 1.054687.328125 1.597656zm320 48c-28.625.003906-54.53125-16.960938-65.96875-43.199219-.921875-2.082031-1.710937-4.199219-2.402344-6.34375-.292968-.921875-.535156-1.855469-.796874-2.785156-.34375-1.214844-.691407-2.398437-.96875-3.65625-.28125-1.253906-.472657-2.304687-.671876-3.457031-.199218-1.152344-.359374-2.125-.496093-3.199219-.160157-1.203125-.289063-2.414063-.386719-3.625-.078125-1.09375-.125-2.207031-.167969-3.308594-.039062-1.105469-.078125-2.402343-.0625-3.546875.015625-1.144531.105469-2.398437.183594-3.574218.066406-1.058594.105469-2.113282.214844-3.199219 3.738281-33.433594 30.097656-59.839844 63.523437-63.632813 1.152344-.128906 2.308594-.175781 3.460938-.242187 1.152344-.0625 2.175781-.152344 3.273437-.167969 1.238281 0 2.480469 0 3.71875.066406 1.050781 0 2.105469.078125 3.144531.160156 1.25.09375 2.488282.222657 3.730469.382813 1.046875.144531 2.085938.3125 3.125.488281 1.167969.207032 2.335938.414063 3.488281.679688 1.152344.265625 2.503907.640625 3.753907.992187.886719.257813 1.792969.488281 2.671875.800781 2.167968.71875 4.3125 1.511719 6.398437 2.445313 31.15625 13.6875 48.476563 47.3125 41.527344 80.625-6.949219 33.308594-36.265625 57.207031-70.292969 57.296875zm0 0" fill="#1e81ce"/><path d="m392.003906 384h-40v-40c0-4.417969-3.582031-8-8-8-4.417968 0-8 3.582031-8 8v40h-40c-4.417968 0-8 3.582031-8 8s3.582032 8 8 8h40v40c0 4.417969 3.582032 8 8 8 4.417969 0 8-3.582031 8-8v-40h40c4.417969 0 8-3.582031 8-8s-3.582031-8-8-8zm0 0" fill="#1e81ce"/><path d="m152.003906 224h160c4.417969 0 8-3.582031 8-8s-3.582031-8-8-8h-160c-4.417968 0-8 3.582031-8 8s3.582032 8 8 8zm0 0" fill="#1e81ce"/><path d="m152.003906 272h160c4.417969 0 8-3.582031 8-8s-3.582031-8-8-8h-160c-4.417968 0-8 3.582031-8 8s3.582032 8 8 8zm0 0" fill="#1e81ce"/><path d="m280.003906 312c0-4.417969-3.582031-8-8-8h-120c-4.417968 0-8 3.582031-8 8s3.582032 8 8 8h120c4.417969 0 8-3.582031 8-8zm0 0" fill="#1e81ce"/><path d="m152.003906 176h160c4.417969 0 8-3.582031 8-8s-3.582031-8-8-8h-160c-4.417968 0-8 3.582031-8 8s3.582032 8 8 8zm0 0" fill="#1e81ce"/><path d="m108.28125 128.40625-28.277344 28.28125-11.3125-11.3125c-2.007812-2.078125-4.984375-2.914062-7.78125-2.179688-2.796875.730469-4.980468 2.914063-5.714844 5.710938-.730468 2.796875.101563 5.773438 2.183594 7.78125l16.96875 16.96875c3.121094 3.121094 8.1875 3.121094 11.3125 0l33.933594-33.9375c3.03125-3.136719 2.988281-8.128906-.097656-11.214844-3.085938-3.085937-8.074219-3.128906-11.214844-.097656zm0 0" fill="#1e81ce"/><path d="m108.28125 176.40625-28.277344 28.28125-11.3125-11.3125c-2.007812-2.078125-4.984375-2.914062-7.78125-2.179688-2.796875.730469-4.980468 2.914063-5.714844 5.710938-.730468 2.796875.101563 5.773438 2.183594 7.78125l16.96875 16.96875c3.121094 3.121094 8.1875 3.121094 11.3125 0l33.933594-33.9375c3.03125-3.136719 2.988281-8.128906-.097656-11.214844-3.085938-3.085937-8.074219-3.128906-11.214844-.097656zm0 0" fill="#1e81ce"/><path d="m108.28125 224.40625-28.277344 28.28125-11.3125-11.3125c-3.140625-3.03125-8.128906-2.988281-11.214844.097656-3.085937 3.085938-3.128906 8.078125-.097656 11.214844l16.96875 16.96875c3.121094 3.121094 8.1875 3.121094 11.3125 0l33.933594-33.9375c3.03125-3.136719 2.988281-8.128906-.097656-11.214844-3.085938-3.085937-8.074219-3.128906-11.214844-.097656zm0 0" fill="#1e81ce"/><path d="m108.28125 272.40625-28.277344 28.28125-11.3125-11.3125c-3.140625-3.03125-8.128906-2.988281-11.214844.097656-3.085937 3.085938-3.128906 8.078125-.097656 11.214844l16.96875 16.96875c3.121094 3.121094 8.1875 3.121094 11.3125 0l33.933594-33.9375c3.03125-3.136719 2.988281-8.128906-.097656-11.214844-3.085938-3.085937-8.074219-3.128906-11.214844-.097656zm0 0" fill="#1e81ce"/></svg>