<svg height="512pt" viewBox="0 -21 512 512" width="512pt" xmlns="http://www.w3.org/2000/svg"><path d="m64 0h384c35.347656 0 64 28.652344 64 64v74.667969h-512v-74.667969c0-35.347656 28.652344-64 64-64zm0 0" fill="#42a5f5"/><path d="m453.332031 469.332031h-394.664062c-32.363281 0-58.667969-26.300781-58.667969-58.664062v-352c0-32.363281 26.304688-58.667969 58.667969-58.667969h394.664062c32.363281 0 58.667969 26.304688 58.667969 58.667969v352c0 32.363281-26.304688 58.664062-58.667969 58.664062zm-394.664062-437.332031c-14.699219 0-26.667969 11.96875-26.667969 26.667969v352c0 14.699219 11.96875 26.664062 26.667969 26.664062h394.664062c14.699219 0 26.667969-11.964843 26.667969-26.664062v-352c0-14.699219-11.96875-26.667969-26.667969-26.667969zm0 0"/><path d="m496 160h-480c-8.832031 0-16-7.167969-16-16s7.167969-16 16-16h480c8.832031 0 16 7.167969 16 16s-7.167969 16-16 16zm0 0"/><path d="m496 266.667969h-480c-8.832031 0-16-7.167969-16-16s7.167969-16 16-16h480c8.832031 0 16 7.167969 16 16s-7.167969 16-16 16zm0 0"/><path d="m496 373.332031h-480c-8.832031 0-16-7.167969-16-16s7.167969-16 16-16h480c8.832031 0 16 7.167969 16 16s-7.167969 16-16 16zm0 0"/><path d="m133.332031 469.332031c-8.832031 0-16-7.167969-16-16v-309.332031c0-8.832031 7.167969-16 16-16s16 7.167969 16 16v309.332031c0 8.832031-7.167969 16-16 16zm0 0"/><path d="m256 469.332031c-8.832031 0-16-7.167969-16-16v-309.332031c0-8.832031 7.167969-16 16-16s16 7.167969 16 16v309.332031c0 8.832031-7.167969 16-16 16zm0 0"/><path d="m378.667969 469.332031c-8.832031 0-16-7.167969-16-16v-309.332031c0-8.832031 7.167969-16 16-16s16 7.167969 16 16v309.332031c0 8.832031-7.167969 16-16 16zm0 0"/></svg>