<?xml version="1.0" encoding="iso-8859-1"?>
<!-- Generator: Adobe Illustrator 19.0.0, SVG Export Plug-In . SVG Version: 6.00 Build 0)  -->
<svg version="1.1" id="Layer_1" xmlns="http://www.w3.org/2000/svg" xmlns:xlink="http://www.w3.org/1999/xlink" x="0px" y="0px"
	 viewBox="0 0 512 512" style="enable-background:new 0 0 512 512;" xml:space="preserve">
<path style="fill:#1E0478;" d="M496.3,141.692c9.686,4.837,15.7,14.57,15.7,25.386c0,10.827-6.014,20.561-15.688,25.398
	c-0.012,0-0.012,0-0.012,0l-38.12,19.066l38.12,19.066c9.686,4.837,15.7,14.57,15.7,25.398c0,10.816-6.014,20.549-15.688,25.386
	l-38.132,19.066l38.12,19.066c9.674,4.825,15.688,14.558,15.7,25.374c0,10.828-6.014,20.572-15.688,25.409l-215.22,107.604
	c-7.85,3.931-16.477,5.896-25.092,5.896c-8.615,0-17.23-1.965-25.092-5.885L15.7,370.305C6.014,365.468,0,355.723,0,344.896
	c0.012-10.816,6.026-20.549,15.7-25.386l38.12-19.054L15.7,281.39C6.014,276.553,0,266.82,0,256.004
	c0-10.828,6.014-20.561,15.688-25.398l38.132-19.066L15.7,192.475C6.014,187.638,0,177.905,0,167.078
	c0-10.816,6.014-20.549,15.688-25.386l215.22-107.604c15.712-7.85,34.471-7.862,50.183-0.012L496.3,141.692z M488.462,167.089
	c0-1.13-0.353-3.178-2.695-4.355L270.57,55.131c-4.566-2.271-9.568-3.413-14.57-3.413s-10.004,1.142-14.57,3.425L26.221,162.735
	c-2.33,1.177-2.683,3.225-2.683,4.355c0,1.118,0.353,3.166,2.695,4.343L241.43,279.036c9.121,4.555,20.019,4.555,29.14-0.012
	l215.197-107.592C488.109,170.255,488.462,168.207,488.462,167.089z M488.462,256.004c0-1.13-0.353-3.178-2.695-4.355
	l-53.902-26.951l-150.773,75.381c-7.85,3.931-16.477,5.896-25.092,5.896c-8.615,0-17.23-1.965-25.092-5.885L80.135,224.699
	L26.221,251.65c-2.33,1.177-2.683,3.225-2.683,4.355c0,1.118,0.353,3.166,2.695,4.343L241.43,367.951
	c9.121,4.555,20.019,4.555,29.14-0.012l215.209-107.592C488.109,259.17,488.462,257.122,488.462,256.004z M488.462,344.908
	c0-1.118-0.353-3.178-2.683-4.331l-53.914-26.963l-150.773,75.381c-7.85,3.931-16.477,5.896-25.092,5.896
	c-8.615,0-17.23-1.965-25.092-5.885L80.135,313.614l-53.914,26.951c-2.33,1.165-2.683,3.225-2.683,4.343s0.353,3.178,2.695,4.355
	L241.43,456.866c9.121,4.555,20.019,4.555,29.14-0.012l215.209-107.592C488.109,348.085,488.462,346.026,488.462,344.908z"/>
<path style="fill:#94E7EF;" d="M485.767,162.735c2.342,1.177,2.695,3.225,2.695,4.355c0,1.118-0.353,3.166-2.695,4.343
	L270.57,279.025c-9.121,4.566-20.019,4.566-29.14,0.012L26.233,171.432c-2.342-1.177-2.695-3.225-2.695-4.343
	c0-1.13,0.353-3.178,2.683-4.355L241.43,55.142c4.566-2.283,9.568-3.425,14.57-3.425c5.002,0,10.004,1.142,14.57,3.413
	L485.767,162.735z"/>
<path style="fill:#9B8CCC;" d="M485.767,251.65c2.342,1.177,2.695,3.225,2.695,4.355c0,1.118-0.353,3.166-2.683,4.343L270.57,367.94
	c-9.121,4.566-20.019,4.566-29.14,0.012L26.233,260.347c-2.342-1.177-2.695-3.225-2.695-4.343c0-1.13,0.353-3.178,2.683-4.355
	l53.914-26.951l150.773,75.392c7.862,3.919,16.477,5.884,25.092,5.884c8.615,0,17.242-1.965,25.092-5.896l150.773-75.381
	L485.767,251.65z"/>
<path style="fill:#6F7CCD;" d="M485.779,340.577c2.33,1.153,2.683,3.213,2.683,4.331s-0.353,3.178-2.683,4.355L270.57,456.855
	c-9.121,4.566-20.019,4.566-29.14,0.012L26.233,349.262c-2.342-1.177-2.695-3.236-2.695-4.355s0.353-3.178,2.683-4.343
	l53.914-26.951l150.773,75.392c7.862,3.919,16.477,5.885,25.092,5.885c8.615,0,17.242-1.965,25.092-5.896l150.773-75.381
	L485.779,340.577z"/>
<g>
</g>
<g>
</g>
<g>
</g>
<g>
</g>
<g>
</g>
<g>
</g>
<g>
</g>
<g>
</g>
<g>
</g>
<g>
</g>
<g>
</g>
<g>
</g>
<g>
</g>
<g>
</g>
<g>
</g>
</svg>
