<?xml version="1.0" encoding="iso-8859-1"?>
<!-- Generator: Adobe Illustrator 19.0.0, SVG Export Plug-In . SVG Version: 6.00 Build 0)  -->
<svg version="1.1" id="Capa_1" xmlns="http://www.w3.org/2000/svg" xmlns:xlink="http://www.w3.org/1999/xlink" x="0px" y="0px"
	 viewBox="0 0 512 512" style="enable-background:new 0 0 512 512;" xml:space="preserve">
<path style="fill:#2196F3;" d="M10.667,21.333h256c5.891,0,10.667,4.776,10.667,10.667v256c0,5.891-4.776,10.667-10.667,10.667h-256
	C4.776,298.667,0,293.891,0,288V32C0,26.109,4.776,21.333,10.667,21.333z"/>
<path style="fill:#FAFAFA;" d="M233.536,240.555l-42.667-85.333c-1.533-3.067-4.446-5.21-7.829-5.76
	c-3.389-0.585-6.85,0.531-9.259,2.987l-32.192,32.213l-36.053-72.107c-1.861-3.929-5.975-6.28-10.304-5.888
	c-4.293,0.311-7.978,3.172-9.344,7.253l-42.667,128c-1.885,5.581,1.111,11.634,6.692,13.519c1.102,0.372,2.257,0.562,3.42,0.561H224
	c5.891,0,10.667-4.776,10.666-10.667C234.666,243.674,234.279,242.038,233.536,240.555z"/>
<circle style="fill:#FFC107;" cx="192" cy="106.667" r="42.667"/>
<g>
	<path style="fill:#607D8B;" d="M501.333,298.667H330.667c-5.891,0-10.667-4.776-10.667-10.667c0-5.891,4.776-10.667,10.667-10.667
		h170.667c5.891,0,10.667,4.776,10.667,10.667C512,293.891,507.224,298.667,501.333,298.667z"/>
	<path style="fill:#607D8B;" d="M501.333,362.667H10.667C4.776,362.667,0,357.891,0,352c0-5.891,4.776-10.667,10.667-10.667h490.667
		c5.891,0,10.667,4.776,10.667,10.667C512,357.891,507.224,362.667,501.333,362.667z"/>
	<path style="fill:#607D8B;" d="M501.333,426.667H10.667C4.776,426.667,0,421.891,0,416c0-5.891,4.776-10.667,10.667-10.667h490.667
		c5.891,0,10.667,4.776,10.667,10.667C512,421.891,507.224,426.667,501.333,426.667z"/>
	<path style="fill:#607D8B;" d="M501.333,490.667H10.667C4.776,490.667,0,485.891,0,480c0-5.891,4.776-10.667,10.667-10.667h490.667
		c5.891,0,10.667,4.776,10.667,10.667C512,485.891,507.224,490.667,501.333,490.667z"/>
</g>
<path d="M266.667,298.667h-256C4.776,298.667,0,293.891,0,288V32c0-5.891,4.776-10.667,10.667-10.667h256
	c5.891,0,10.667,4.776,10.667,10.667v256C277.333,293.891,272.558,298.667,266.667,298.667z M21.333,277.333H256V42.667H21.333
	V277.333z"/>
<path d="M224,256H53.333c-5.891-0.004-10.663-4.784-10.659-10.675c0.001-1.143,0.185-2.278,0.547-3.363l42.667-128
	c1.352-4.098,5.04-6.978,9.344-7.296c4.324-0.395,8.437,1.946,10.304,5.867l36.053,72.085l32.192-32.171
	c2.409-2.455,5.869-3.572,9.259-2.987c3.384,0.55,6.297,2.693,7.829,5.76l42.667,85.333c2.639,5.267,0.509,11.676-4.758,14.315
	C227.295,255.613,225.659,256,224,256z M68.139,234.667h138.667l-28.395-56.661l-32.192,32.213
	c-4.172,4.159-10.926,4.149-15.085-0.023c-0.803-0.805-1.472-1.734-1.982-2.751l-31.168-62.379L68.139,234.667z"/>
<path d="M192,149.333c-23.564,0-42.667-19.103-42.667-42.667S168.436,64,192,64s42.667,19.103,42.667,42.667
	S215.564,149.333,192,149.333z M192,85.333c-11.782,0-21.333,9.551-21.333,21.333S180.218,128,192,128
	c11.782,0,21.333-9.551,21.333-21.333S203.782,85.333,192,85.333z"/>
<path d="M501.333,298.667H330.667c-5.891,0-10.667-4.776-10.667-10.667c0-5.891,4.776-10.667,10.667-10.667h170.667
	c5.891,0,10.667,4.776,10.667,10.667C512,293.891,507.224,298.667,501.333,298.667z"/>
<path d="M501.333,362.667H10.667C4.776,362.667,0,357.891,0,352c0-5.891,4.776-10.667,10.667-10.667h490.667
	c5.891,0,10.667,4.776,10.667,10.667C512,357.891,507.224,362.667,501.333,362.667z"/>
<path d="M501.333,426.667H10.667C4.776,426.667,0,421.891,0,416c0-5.891,4.776-10.667,10.667-10.667h490.667
	c5.891,0,10.667,4.776,10.667,10.667C512,421.891,507.224,426.667,501.333,426.667z"/>
<path d="M501.333,490.667H10.667C4.776,490.667,0,485.891,0,480c0-5.891,4.776-10.667,10.667-10.667h490.667
	c5.891,0,10.667,4.776,10.667,10.667C512,485.891,507.224,490.667,501.333,490.667z"/>
<g>
</g>
<g>
</g>
<g>
</g>
<g>
</g>
<g>
</g>
<g>
</g>
<g>
</g>
<g>
</g>
<g>
</g>
<g>
</g>
<g>
</g>
<g>
</g>
<g>
</g>
<g>
</g>
<g>
</g>
</svg>
