<svg height="512pt" viewBox="0 0 512 512" width="512pt" xmlns="http://www.w3.org/2000/svg" xmlns:xlink="http://www.w3.org/1999/xlink"><linearGradient id="a" gradientUnits="userSpaceOnUse" x1="256" x2="256" y1="0" y2="512"><stop offset="0" stop-color="#2af598"/><stop offset="1" stop-color="#009efd"/></linearGradient><path d="m411 236h60.066406c-9.582031-103.839844-92.960937-186.613281-197.066406-195.242188v60.242188h-40v-59.886719c-102.238281 10.390625-183.609375 92.378907-193.066406 194.886719h60.066406v40h-60.066406c9.457031 102.507812 90.828125 184.496094 193.066406 194.886719v-59.886719h40v60.253906c90.328125-7.488281 165.054688-70.800781 189.511719-155.253906h41.4375c-10.859375 45.445312-34.054688 87.144531-67.929688 121.019531-48.351562 48.351563-112.640625 74.980469-181.019531 74.980469s-132.667969-26.628906-181.019531-74.980469c-48.351563-48.351562-74.980469-112.640625-74.980469-181.019531s26.628906-132.667969 74.980469-181.019531c48.351562-48.351563 112.640625-74.980469 181.019531-74.980469s132.667969 26.628906 181.019531 74.980469c48.351563 48.351562 74.980469 112.640625 74.980469 181.019531 0 6.710938-.265625 13.378906-.773438 20h-100.226562zm-193.234375 59.949219-5.765625 5.84375v30.207031h102v-40h-38.027344c.488282-.558594.980469-1.117188 1.46875-1.683594 29.273438-33.628906 35.269532-47.632812 35.269532-58.316406 0-27.570312-22.429688-50-50-50h-50.710938v40h50.710938c4.882812 0 9.082031 3.714844 9.867187 8.414062-1.441406 3.03125-7.160156 13.085938-27.902344 36.601563-13.664062 15.496094-26.78125 28.800781-26.910156 28.933594zm0 0" fill="url(#a)"/></svg>