<?xml version="1.0" encoding="iso-8859-1"?>
<!-- Generator: Adobe Illustrator 19.0.0, SVG Export Plug-In . SVG Version: 6.00 Build 0)  -->
<svg version="1.1" id="Layer_1" xmlns="http://www.w3.org/2000/svg" xmlns:xlink="http://www.w3.org/1999/xlink" x="0px" y="0px"
	 viewBox="0 0 511.995 511.995" style="enable-background:new 0 0 511.995 511.995;" xml:space="preserve">
<g>
	<g>
		<path d="M394.166,121.323L275.471,2.629c-5.615-5.615-15.206-1.638-15.206,6.297v118.285c0,5.145,4.173,9.318,9.318,9.318h118.285
			C395.804,136.529,399.78,126.93,394.166,121.323z"/>
	</g>
</g>
<g>
	<g>
		<path d="M396.794,230.393v-68.264c0-4.71-3.823-8.533-8.533-8.533H251.732c-4.71,0-8.533-3.823-8.533-8.533V8.533
			c0-4.71-3.823-8.533-8.533-8.533H46.939c-4.71,0-8.533,3.823-8.533,8.533v469.318c0,4.71,3.823,8.533,8.533,8.533l177.078,0.009
			c3.251,0,6.221-1.852,7.654-4.779c1.434-2.918,1.084-6.4-0.905-8.977c-19.464-25.164-29.891-55.251-30.224-87.088
			c-0.666-64.339,41.556-122.876,103.386-140.693c27.374-7.885,55.729-7.825,81.977-0.256c4.54,1.271,9.258-1.306,10.564-5.837
			C396.99,236.963,396.794,231.519,396.794,230.393z"/>
	</g>
</g>
<g>
	<g>
		<path d="M472.525,367.305c-7.253-56.992-53.272-103.002-110.264-110.238c-83.607-10.615-154.235,60.021-143.594,143.628
			c7.253,56.992,53.272,103.002,110.264,110.238C412.546,521.557,483.165,450.921,472.525,367.305z M343.095,364.438
			c-3.336,3.336-8.729,3.336-12.066,0l-12.279-12.279c-2.688-2.688-7.287-0.785-7.287,3.012v88.565c0,4.71-3.814,8.533-8.533,8.533
			s-8.533-3.823-8.533-8.533v-88.565c0-3.797-4.599-5.709-7.287-3.021l-12.279,12.279c-3.336,3.336-8.729,3.336-12.066,0
			s-3.336-8.729,0-12.066l34.132-34.132c1.664-1.664,3.848-2.5,6.033-2.5c2.185,0,4.369,0.836,6.033,2.5l34.132,34.132
			C346.432,355.709,346.432,361.102,343.095,364.438z M428.426,415.637l-34.132,34.132c-1.664,1.664-3.848,2.5-6.033,2.5
			c-2.185,0-4.369-0.836-6.033-2.5l-34.132-34.132c-3.336-3.336-3.336-8.729,0-12.066c3.336-3.336,8.729-3.336,12.066,0
			l12.279,12.279c2.688,2.688,7.287,0.785,7.287-3.012v-88.565c0-4.71,3.814-8.533,8.533-8.533c4.719,0,8.533,3.823,8.533,8.533
			v88.564c0,3.797,4.599,5.709,7.287,3.021l12.279-12.279c3.336-3.336,8.729-3.336,12.066,0
			C431.762,406.916,431.762,412.3,428.426,415.637z"/>
	</g>
</g>
<g>
</g>
<g>
</g>
<g>
</g>
<g>
</g>
<g>
</g>
<g>
</g>
<g>
</g>
<g>
</g>
<g>
</g>
<g>
</g>
<g>
</g>
<g>
</g>
<g>
</g>
<g>
</g>
<g>
</g>
</svg>
