<svg height="512pt" viewBox="-66 0 512 512" width="512pt" xmlns="http://www.w3.org/2000/svg"><path d="m314.757812 314.21875v-217.375c0-16.023438-12.988281-29.015625-29.015624-29.015625-16.027344 0-29.015626 12.992187-29.015626 29.015625v217.375c0 11.402344-9.242187 20.644531-20.644531 20.644531h-17.574219c-15.019531 0-23.003906 17.726563-13.058593 28.976563l57.28125 64.78125c12.226562 13.828125 33.796875 13.828125 46.023437 0l57.28125-64.78125c9.945313-11.25 1.957032-28.976563-13.058594-28.976563h-17.574218c-11.398438 0-20.644532-9.242187-20.644532-20.644531zm0 0" fill="#ffe671"/><path d="m130.777344 233.746094h-88.984375c-17.558594 0-31.792969-14.234375-31.792969-31.792969 0-17.554687 14.234375-31.789063 31.792969-31.789063h88.984375c17.558594 0 31.789062 14.234376 31.789062 31.789063 0 17.558594-14.230468 31.792969-31.789062 31.792969zm0 0" fill="#9bdcff"/><path d="m130.777344 341.835938h-88.984375c-17.558594 0-31.792969-14.234376-31.792969-31.789063 0-17.558594 14.234375-31.792969 31.792969-31.792969h88.984375c17.558594 0 31.789062 14.234375 31.789062 31.792969 0 17.554687-14.230468 31.789063-31.789062 31.789063zm0 0" fill="#6ab6ff"/><path d="m192.523438 67.828125c0 31.9375-25.890626 57.828125-57.828126 57.828125s-57.828124-25.890625-57.828124-57.828125 25.890624-57.828125 57.828124-57.828125 57.828126 25.890625 57.828126 57.828125zm0 0" fill="#78ffa9"/><path d="m77.15625 62.074219h-35.363281c-17.558594 0-31.792969 14.234375-31.792969 31.789062 0 17.558594 14.234375 31.792969 31.792969 31.792969h88.984375c.605468 0 1.203125-.019531 1.796875-.054688-33.09375-1.195312-58.726563-30.054687-55.417969-63.527343zm0 0" fill="#6ab6ff"/><path d="m192.523438 444.171875c0 31.9375-25.890626 57.828125-57.828126 57.828125s-57.828124-25.890625-57.828124-57.828125 25.890624-57.828125 57.828124-57.828125 57.828126 25.890625 57.828126 57.828125zm0 0" fill="#ff8db2"/><path d="m132.574219 386.398438c-.59375-.035157-1.195313-.054688-1.796875-.054688h-88.988282c-17.554687 0-31.789062 14.230469-31.789062 31.789062 0 17.558594 14.234375 31.792969 31.789062 31.792969h35.363282c-3.308594-33.496093 22.355468-62.332031 55.421875-63.527343zm0 0" fill="#9bdcff"/><path d="m352.976562 324.863281h-17.574218c-5.871094 0-10.644532-4.773437-10.644532-10.644531v-217.375c0-21.511719-17.503906-39.015625-39.015624-39.015625-21.515626 0-39.019532 17.503906-39.019532 39.015625v33.320312c0 5.523438 4.476563 10 10 10 5.523438 0 10-4.476562 10-10v-33.320312c0-10.484375 8.53125-19.015625 19.019532-19.015625 10.484374 0 19.015624 8.53125 19.015624 19.015625v217.375c0 16.898438 13.746094 30.644531 30.644532 30.644531h17.574218c6.375 0 9.839844 7.519531 5.566407 12.351563l-57.28125 64.785156c-8.175781 9.246094-22.707031 9.421875-31.039063 0l-57.28125-64.785156c-4.222656-4.777344-.886718-12.351563 5.566406-12.351563h17.574219c16.894531 0 30.644531-13.746093 30.644531-30.644531v-104.054688c0-5.523437-4.480468-10-10-10-5.523437 0-10 4.476563-10 10v104.054688c0 5.871094-4.777343 10.644531-10.644531 10.644531h-17.574219c-23.605468 0-36.226562 27.875-20.550781 45.601563l57.28125 64.78125c16.144531 18.261718 44.753907 18.382812 61.003907 0l57.28125-64.78125c15.640624-17.683594 3.113281-45.601563-20.546876-45.601563zm0 0"/><path d="m41.792969 243.746094h88.984375c23.042968 0 41.789062-18.746094 41.789062-41.792969 0-23.042969-18.746094-41.789063-41.789062-41.789063h-88.984375c-23.046875 0-41.792969 18.746094-41.792969 41.789063 0 23.046875 18.746094 41.792969 41.792969 41.792969zm0-63.582032h88.984375c12.015625 0 21.789062 9.773438 21.789062 21.789063 0 12.019531-9.773437 21.792969-21.789062 21.792969h-88.984375c-12.015625 0-21.792969-9.773438-21.792969-21.792969 0-12.015625 9.777344-21.789063 21.792969-21.789063zm0 0"/><path d="m41.792969 351.835938h88.984375c23.042968 0 41.789062-18.746094 41.789062-41.789063 0-23.046875-18.746094-41.792969-41.789062-41.792969h-88.984375c-23.046875 0-41.792969 18.746094-41.792969 41.792969 0 23.042969 18.746094 41.789063 41.792969 41.789063zm0-63.582032h88.984375c12.015625 0 21.789062 9.773438 21.789062 21.792969 0 12.015625-9.773437 21.789063-21.789062 21.789063h-88.984375c-12.015625 0-21.792969-9.773438-21.792969-21.789063 0-12.019531 9.777344-21.792969 21.792969-21.792969zm0 0"/><path d="m132.589844 376.398438c-2.460938-.113282 4.417968-.027344-90.796875-.054688-23.046875 0-41.792969 18.746094-41.792969 41.792969 0 23.042969 18.746094 41.789062 41.792969 41.789062h26.941406c7.125 29.824219 33.984375 52.074219 65.960937 52.074219 37.402344 0 67.828126-30.429688 67.828126-67.828125 0-37.949219-31.398438-68.957031-69.933594-67.773437zm-112.589844 41.738281c0-12.019531 9.773438-21.792969 21.792969-21.792969h44.679687c-11.957031 12.054688-18.503906 27.675781-19.476562 43.582031h-25.203125c-12.015625 0-21.792969-9.777343-21.792969-21.789062zm114.695312 73.863281c-25.761718 0-46.507812-20.363281-47.765624-45.441406-1.34375-27.210938 20.355468-50.214844 47.765624-50.214844 26.375 0 47.828126 21.457031 47.828126 47.828125s-21.453126 47.828125-47.828126 47.828125zm0 0"/><path d="m124.515625 91.515625 2.753906-10.128906h17.097657l2.757812 10.128906c1.328125 4.828125 13.394531 1.566406 12.074219-3.726563l-15.152344-49.433593c-1.820313-5.660157-14.738281-5.609375-16.53125 0l-15.074219 49.433593c-1.335937 5.304688 10.746094 8.535157 12.074219 3.726563zm11.265625-41.570313 5.914062 21.714844h-11.832031zm0 0"/><path d="m152.445312 463.84375h-22.042968l22.851562-40.433594c2.089844-3.8125 2.171875-7.78125-2.269531-7.78125-32.195313.519532-32.414063-1.210937-34.113281 1.621094-1.929688 3.21875-.992188 9.398438 2.835937 9.398438h18.800781l-22.855468 40.4375c-2.082032 3.550781-2.238282 7.777343 2.269531 7.777343h34.523437c4.910157 0 5.089844-11.019531 0-11.019531zm0 0"/><path d="m256.726562 180.175781c5.523438 0 10-4.488281 10-10.011719 0-5.523437-4.476562-10-10-10-5.523437 0-10 4.476563-10 10v.023438c0 5.523438 4.476563 9.988281 10 9.988281zm0 0"/><path d="m41.792969 135.65625c48.414062-.015625 44.621093 0 92.902343 0 37.402344 0 67.828126-30.429688 67.828126-67.828125s-30.425782-67.828125-67.828126-67.828125c-31.972656 0-58.835937 22.25-65.960937 52.074219h-26.941406c-23.042969 0-41.792969 18.746093-41.792969 41.789062 0 23.046875 18.746094 41.792969 41.792969 41.792969zm92.902343-115.65625c26.375 0 47.828126 21.457031 47.828126 47.828125s-21.453126 47.828125-47.828126 47.828125c-27.851562 0-50.175781-23.9375-47.621093-52.175781 2.207031-24.339844 22.714843-43.480469 47.621093-43.480469zm-92.902343 52.074219h25.203125c1.003906 16.457031 7.898437 31.910156 19.476562 43.582031h-44.679687c-12.015625 0-21.792969-9.773438-21.792969-21.792969 0-12.015625 9.777344-21.789062 21.792969-21.789062zm0 0"/></svg>