<?xml version="1.0" encoding="iso-8859-1"?>
<!-- Generator: Adobe Illustrator 21.0.0, SVG Export Plug-In . SVG Version: 6.00 Build 0)  -->
<svg version="1.1" id="Capa_1" xmlns="http://www.w3.org/2000/svg" xmlns:xlink="http://www.w3.org/1999/xlink" x="0px" y="0px"
	 viewBox="0 0 511.999 511.999" style="enable-background:new 0 0 511.999 511.999;" xml:space="preserve">
<path style="fill:#A5CDFF;" d="M448.387,440.371H127.742c-4.427,0-8.016-3.589-8.016-8.016V15.516c0-4.427,3.589-8.016,8.016-8.016
	h320.645c4.427,0,8.016,3.589,8.016,8.016v416.839C456.403,436.782,452.814,440.371,448.387,440.371z"/>
<path style="fill:#FFE17D;" d="M416.323,472.435H95.677c-4.427,0-8.016-3.589-8.016-8.016V47.581c0-4.427,3.589-8.016,8.016-8.016
	h320.645c4.427,0,8.016,3.589,8.016,8.016V464.42C424.339,468.847,420.75,472.435,416.323,472.435z"/>
<path style="fill:#EDEBED;" d="M297.457,504.5H63.613c-4.427,0-8.016-3.589-8.016-8.016V79.645c0-4.427,3.589-8.016,8.016-8.016
	h320.645c4.427,0,8.016,3.589,8.016,8.016v330.037c0,4.252-1.689,8.33-4.696,11.336l-78.785,78.786
	C305.787,502.811,301.709,504.5,297.457,504.5z"/>
<g>
	<path style="fill:#DBD9DC;" d="M143.645,480.452c-35.346,0-64-28.654-64-64V71.629H63.613c-4.427,0-8.016,3.589-8.016,8.016
		v416.839c0,4.427,3.589,8.016,8.016,8.016h233.844c4.252,0,8.331-1.689,11.337-4.696l19.352-19.352L143.645,480.452
		L143.645,480.452z"/>
	<path style="fill:#DBD9DC;" d="M312.113,416.323c-4.427,0-8.016,3.589-8.016,8.016v78.671c1.724-0.787,3.331-1.84,4.697-3.206
		l78.785-78.786c1.365-1.366,2.417-2.972,3.205-4.695L312.113,416.323L312.113,416.323z"/>
</g>
<path style="fill:#FFE17D;" d="M223.935,175.839l-98.666,45.965c-3.362,1.293-5.465,4.611-5.112,8.196
	c2.246,22.823,16.019,105.021,99.28,159.406c2.69,1.757,6.307,1.757,8.997,0c83.261-54.385,97.034-136.583,99.28-159.406
	c0.353-3.585-1.75-6.903-5.112-8.196L223.935,175.839z"/>
<path style="fill:#FFD164;" d="M160.67,208.187l-35.401,13.616c-3.362,1.293-5.465,4.611-5.112,8.196
	c2.247,22.827,16.023,105.045,99.317,159.43c2.668,1.742,6.255,1.742,8.923,0c5.611-3.664,10.853-7.472,15.851-11.361
	C180.144,319.122,164.487,240.7,160.67,208.187z"/>
<path style="fill:#C9C6CA;" d="M223.936,320.129L223.936,320.129c-22.136,0-40.081-17.945-40.081-40.081v-32.065
	c0-4.427,3.589-8.016,8.016-8.016H256c4.427,0,8.016,3.589,8.016,8.016v32.065C264.016,302.184,246.071,320.129,223.936,320.129z"/>
<path style="fill:#B7B2B8;" d="M207.903,272.032v-32.065h-16.032c-4.427,0-8.016,3.589-8.016,8.016v32.065
	c0,22.136,17.944,40.081,40.081,40.081c8.974,0,17.172-3.053,23.853-8.036C225.744,311.985,207.903,294.101,207.903,272.032z"/>
<path d="M448.387,0H127.742c-8.556,0-15.516,6.96-15.516,15.516v16.548H95.677c-8.556,0-15.516,6.96-15.516,15.516v16.548H63.613
	c-8.556,0-15.516,6.96-15.516,15.516v416.839c0,8.556,6.96,15.516,15.516,15.516h233.844c6.286,0,12.195-2.448,16.64-6.893
	l25.171-25.172h77.054c8.556,0,15.516-6.96,15.516-15.516V447.87h16.548c8.556,0,15.516-6.96,15.516-15.516V15.516
	C463.903,6.96,456.943,0,448.387,0z M63.097,496.484V79.645c0-0.285,0.231-0.516,0.516-0.516h320.646
	c0.285,0,0.516,0.231,0.516,0.516v329.178h-72.662c-8.556,0-15.516,6.96-15.516,15.516V497H63.613
	C63.328,497,63.097,496.769,63.097,496.484z M311.597,486.395v-62.056c0-0.285,0.231-0.516,0.516-0.516h62.055L311.597,486.395z
	 M448.903,432.355c0,0.285-0.231,0.516-0.516,0.516h-16.548V95.68c0-4.142-3.358-7.5-7.5-7.5s-7.5,3.358-7.5,7.5v368.74
	c0,0.285-0.231,0.516-0.516,0.516h-62.054l38.614-38.614c4.445-4.445,6.893-10.354,6.893-16.64V79.645
	c0-8.556-6.96-15.516-15.516-15.516H95.161V47.581c0-0.285,0.231-0.516,0.516-0.516h320.646c0.285,0,0.516,0.231,0.516,0.516v16.03
	c0,4.142,3.358,7.5,7.5,7.5s7.5-3.358,7.5-7.5v-16.03c0-8.556-6.96-15.516-15.516-15.516H127.226V15.516
	c0-0.285,0.231-0.516,0.516-0.516h320.646c0.285,0,0.516,0.231,0.516,0.516L448.903,432.355L448.903,432.355z"/>
<path d="M321.245,287.042c13.638-34.988,14.374-61.817,14.398-62.942c0.069-3.163-1.853-6.028-4.806-7.164l-40.054-15.406
	c-3.867-1.488-8.206,0.441-9.692,4.308c-1.487,3.866,0.441,8.206,4.308,9.692l34.873,13.413c-0.884,9.09-3.797,29.235-13.227,53.224
	c-16.546,42.096-44.494,76.128-83.109,101.22c-38.615-25.092-66.563-59.124-83.11-101.22c-9.431-23.993-12.343-44.14-13.227-53.224
	l36.502-14.039c3.866-1.487,5.794-5.826,4.308-9.692c-1.487-3.866-5.827-5.795-9.692-4.308l-41.683,16.032
	c-2.953,1.136-4.875,4.001-4.806,7.165c0.024,1.125,0.76,27.954,14.398,62.941c12.561,32.224,38.951,77.743,93.346,111.6
	c1.213,0.755,2.588,1.133,3.963,1.133s2.75-0.377,3.963-1.133C282.294,364.785,308.685,319.266,321.245,287.042z"/>
<path d="M223.936,327.629c26.236,0,47.581-21.345,47.581-47.581v-32.064c0-5.836-3.242-10.925-8.016-13.574v-26.507
	c0-21.816-17.749-39.564-39.564-39.564s-39.564,17.749-39.564,39.564v26.507c-4.774,2.649-8.016,7.738-8.016,13.574v32.064
	C176.355,306.284,197.7,327.629,223.936,327.629z M256.516,280.048c0,17.965-14.616,32.581-32.581,32.581
	s-32.581-14.616-32.581-32.581v-32.064c0-0.285,0.231-0.516,0.516-0.516H256c0.285,0,0.516,0.231,0.516,0.516V280.048z
	 M199.371,207.903c0-13.545,11.02-24.564,24.564-24.564s24.564,11.02,24.564,24.564v24.564H199.37v-24.564H199.371z"/>
<path d="M223.936,264.532c-4.142,0-7.5,3.358-7.5,7.5v8.016c0,4.142,3.358,7.5,7.5,7.5s7.5-3.358,7.5-7.5v-8.016
	C231.436,267.89,228.078,264.532,223.936,264.532z"/>
<g>
</g>
<g>
</g>
<g>
</g>
<g>
</g>
<g>
</g>
<g>
</g>
<g>
</g>
<g>
</g>
<g>
</g>
<g>
</g>
<g>
</g>
<g>
</g>
<g>
</g>
<g>
</g>
<g>
</g>
</svg>
