<svg height="512" viewBox="0 0 512 512" width="512" xmlns="http://www.w3.org/2000/svg"><g id="Flat"><path d="m88 32h336a24 24 0 0 1 24 24v400a24 24 0 0 1 -24 24h-48a24 24 0 0 1 -24-24v-40h-288v-360a24 24 0 0 1 24-24z" fill="#ccdce5"/><path d="m88 32h336a24 24 0 0 1 24 24v40a0 0 0 0 1 0 0h-384a0 0 0 0 1 0 0v-40a24 24 0 0 1 24-24z" fill="#0093ba"/><path d="m160 32h96v64h-96z" fill="#047fa7"/><path d="m352 32h72a24 24 0 0 1 24 24v40a0 0 0 0 1 0 0h-96a0 0 0 0 1 0 0v-64a0 0 0 0 1 0 0z" fill="#047fa7"/><path d="m88 56h16v16h-16z" fill="#ffc119"/><path d="m120 56h16v16h-16z" fill="#ffc119"/><path d="m184 56h48v16h-48z" fill="#06687f"/><path d="m280 56h48v16h-48z" fill="#06687f"/><path d="m376 56h48v16h-48z" fill="#06687f"/><g fill="#abbac2"><path d="m64 96h96v64h-96z"/><path d="m256 96h96v64h-96z"/><path d="m352 160h96v64h-96z"/><path d="m256 224h96v64h-96z"/><path d="m160 160h96v64h-96z"/><path d="m64 224h96v64h-96z"/><path d="m352 288h96v64h-96z"/><path d="m256 352h96v64h-96z"/><path d="m352 416h96a0 0 0 0 1 0 0v40a24 24 0 0 1 -24 24h-48a24 24 0 0 1 -24-24v-40a0 0 0 0 1 0 0z"/><path d="m160 288h96v64h-96z"/></g><path d="m248 480h-192a24 24 0 0 1 -24-24v-88a24 24 0 0 1 24-24h40l16-16 16 16h120a24 24 0 0 1 24 24v88a24 24 0 0 1 -24 24z" fill="#88bf40"/><path d="m80 376h16v16h-16z" fill="#7ca540"/><path d="m112 376h128v16h-128z" fill="#7ca540"/><path d="m64 408h176v16h-176z" fill="#7ca540"/><path d="m64 440h144v16h-144z" fill="#7ca540"/></g></svg>