<svg id="_x33_0" enable-background="new 0 0 64 64" height="512" viewBox="0 0 64 64" width="512" xmlns="http://www.w3.org/2000/svg"><g><g><path d="m62 36v18h-6v-12.1c2.28-.46 4-2.48 4-4.9v-1z" fill="#ffeaa7"/><path d="m62 2v30h-2v-1c0-2.42-1.72-4.44-4-4.9v-8.1-10h-30v-6z" fill="#ffeaa7"/><path d="m8 54v8h-2c-1.1 0-2.1-.45-2.83-1.17-.72-.73-1.17-1.73-1.17-2.83 0-2.21 1.79-4 4-4z" fill="#aab2bd"/><path d="m20 8h36v52h-36z" fill="#f0d0b4"/><path d="m31.11 56.55c.54.28.89.84.89 1.45s-.35 1.17-.89 1.45l-1.1.55h-.01l-4 2h-1v-4-4h1z" fill="#aab2bd"/><path d="m12 58v4h-4v-8h4z" fill="#ccd1d9"/><path d="m12 58h13v4h-13z" fill="#b4dd7f"/><path d="m25 54v4h-13v-4h6.08z" fill="#ff826e"/><path d="m36 46h16v10h-16z" fill="#fcd770"/><path d="m32 32v2.29c0 3.05-.64 5.62-2 8.34-1.89 3.79-5.02 6.92-8.81 8.82l-3.11 1.55-3.1-1.55c-3.79-1.9-6.92-5.03-8.82-8.82-1.36-2.72-2.16-5.29-2.16-8.34v-9.68l4.41-.73c2.6-.44 5.08-1.5 7.19-3.08l2.4-1.8 1.99 1.49.41.31c2.11 1.58 4.59 2.64 7.19 3.08l4.41.73v6.39z" fill="#969faa"/><path d="m28 28v6.29c0 2.44-.57 4.85-1.66 7.03-.76 1.52-1.76 2.9-2.94 4.08s-2.56 2.18-4.08 2.94l-1.32.66-1.32-.66c-3.04-1.52-5.5-3.98-7.02-7.02-1.09-2.18-1.66-4.59-1.66-7.03v-6.29l1.07-.18c3.24-.54 6.3-1.85 8.93-3.82 2.63 1.97 5.69 3.28 8.93 3.82z" fill="#ccd1d9"/><path d="m18 30c2.21 0 4 1.79 4 4 0 1.48-.8 2.77-2 3.46v5.54h-4v-5.54c-1.2-.69-2-1.98-2-3.46 0-2.21 1.79-4 4-4z" fill="#fcd770"/><g fill="#e6e9ed"><path d="m46 31v1h-4c0-1.1-.9-2-2-2h-2c-1.1 0-2 .9-2 2h-4v-1c0-2.76 2.24-5 5-5h4c2.76 0 5 2.24 5 5z"/><path d="m46 36v1c0 2.76-2.24 5-5 5h-4c-2.76 0-5-2.24-5-5v-1h4c0 1.1.9 2 2 2h2c1.1 0 2-.9 2-2z"/><path d="m60 36v1c0 2.42-1.72 4.44-4 4.9-.32.07-.66.1-1 .1h-4c-2.76 0-5-2.24-5-5v-1h4c0 1.1.9 2 2 2h2c1.1 0 2-.9 2-2z"/><path d="m46 31c0-2.76 2.24-5 5-5h4c.34 0 .68.03 1 .1 2.28.46 4 2.48 4 4.9v1h-4c0-1.1-.9-2-2-2h-2c-1.1 0-2 .9-2 2h-4z"/><path d="m62 32v4h-2-4c-.55 0-1.05-.22-1.41-.59-.37-.36-.59-.86-.59-1.41 0-1.1.9-2 2-2h4z"/><path d="m51.41 32.59c.37.36.59.86.59 1.41 0 1.1-.9 2-2 2h-4-4c-.55 0-1.05-.22-1.41-.59-.37-.36-.59-.86-.59-1.41 0-1.1.9-2 2-2h4 4c.55 0 1.05.22 1.41.59z"/><path d="m36 32c1.1 0 2 .9 2 2 0 .55-.22 1.05-.59 1.41-.36.37-.86.59-1.41.59h-4v-1.71-2.29z"/></g></g><g><path d="m18 29c-2.757 0-5 2.243-5 5 0 1.579.753 3.062 2 3.996v6.004h6v-6.004c1.247-.935 2-2.417 2-3.996 0-2.757-2.243-5-5-5zm1.501 7.593-.501.289v5.118h-2v-5.118l-.501-.289c-.925-.531-1.499-1.526-1.499-2.593 0-1.654 1.346-3 3-3s3 1.346 3 3c0 1.067-.574 2.062-1.499 2.593z"/><path d="m27.236 41.764c1.154-2.308 1.764-4.892 1.764-7.472v-7.14l-1.903-.316c-3.069-.512-6.007-1.769-8.497-3.636l-.6-.45-.6.45c-2.49 1.867-5.428 3.124-8.496 3.636l-1.904.316v7.14c0 2.58.61 5.164 1.764 7.472 1.606 3.212 4.26 5.865 7.472 7.473l1.764.881 1.764-.882c3.213-1.607 5.866-4.26 7.472-7.472zm-9.236 6.118-.87-.435c-2.828-1.415-5.164-3.751-6.578-6.578-1.015-2.031-1.552-4.306-1.552-6.577v-5.444l.232-.039c3.14-.523 6.156-1.755 8.768-3.575 2.612 1.82 5.628 3.052 8.768 3.575l.232.039v5.444c0 2.271-.537 4.546-1.553 6.577-1.414 2.827-3.75 5.163-6.578 6.578z"/><path d="m63 1h-38v6h-6v11.5l-1-.75-3 2.25c-1.98 1.484-4.315 2.484-6.753 2.891l-5.247.872v10.529c0 2.943.699 5.653 2.267 8.789 1.99 3.979 5.279 7.269 9.262 9.262l1.314.657h-9.843c-2.757 0-5 2.243-5 5s2.243 5 5 5h20.236l4.001-2h26.763v-6h6zm-36 2h34v28c0-2.607-1.673-4.824-4-5.65v-18.35h-30zm28 38h-4c-2.206 0-4-1.794-4-4h2.184c.414 1.161 1.514 2 2.816 2h2c1.302 0 2.402-.839 2.816-2h2.184c0 2.206-1.794 4-4 4zm4-10h-2.184c-.414-1.161-1.514-2-2.816-2h-2c-1.302 0-2.402.839-2.816 2h-2.184c0-2.206 1.794-4 4-4h4c2.206 0 4 1.794 4 4zm-4.287 5.698c-.182.186-.434.302-.713.302h-2c-.279 0-.531-.116-.713-.302 1.009-.483 1.713-1.506 1.713-2.698s-.704-2.215-1.713-2.698c.182-.186.434-.302.713-.302h2c.279 0 .531.116.713.302-1.009.483-1.713 1.506-1.713 2.698s.704 2.214 1.713 2.698zm-12.713-1.698c-.551 0-1-.448-1-1s.449-1 1-1h8c.551 0 1 .448 1 1s-.449 1-1 1zm-9-.708v-1.292h3c.551 0 1 .448 1 1s-.449 1-1 1h-3zm4.287-2.99c.182-.186.434-.302.713-.302h2c.279 0 .531.116.713.302-1.009.483-1.713 1.506-1.713 2.698s.704 2.214 1.713 2.698c-.182.186-.434.302-.713.302h-2c-.279 0-.531-.116-.713-.302 1.009-.483 1.713-1.506 1.713-2.698s-.704-2.215-1.713-2.698zm5.529-.302c-.414-1.161-1.514-2-2.816-2h-2c-1.302 0-2.402.839-2.816 2h-2.184c0-2.206 1.794-4 4-4h4c2.206 0 4 1.794 4 4zm-7.632 6c.414 1.161 1.514 2 2.816 2h2c1.302 0 2.402-.839 2.816-2h2.184c0 2.206-1.794 4-4 4h-4c-2.206 0-4-1.794-4-4zm20.816-2c-.551 0-1-.448-1-1s.449-1 1-1h5v2zm-35-26h34v16h-4c-2.086 0-3.924 1.071-5 2.69-1.076-1.62-2.914-2.69-5-2.69h-4c-1.538 0-2.937.586-4 1.54v-2.778l-5.246-.872c-2.439-.406-4.774-1.406-6.754-2.89zm-13.944 33.187c-1.441-2.882-2.056-5.243-2.056-7.895v-8.834l3.576-.595c2.753-.459 5.389-1.587 7.625-3.264l1.8-1.35 1.8 1.35c2.235 1.677 4.872 2.805 7.626 3.264l3.573.595v5.542 3.292c0 2.84-.584 5.274-1.895 7.895-1.798 3.596-4.769 6.567-8.366 8.366l-2.659 1.329-2.658-1.328c-3.597-1.8-6.568-4.772-8.366-8.367zm3.944 18.813h-2v-6h2zm2-2h11v2h-11zm11-2h-11v-2h11zm-21 1c0-1.654 1.346-3 3-3h1v6h-1c-1.654 0-3-1.346-3-3zm23 2.882v-5.764l4.658 2.329c.211.106.342.318.342.553s-.131.447-.342.553zm29-1.882h-22.222c.13-.314.222-.645.222-1 0-.998-.555-1.895-1.447-2.342l-5.317-2.658h-5.918l1.317-.658c3.981-1.992 7.27-5.28 9.26-9.261.46-.921.831-1.822 1.135-2.723 1.08 1.593 2.905 2.642 4.97 2.642h4c2.086 0 3.924-1.071 5-2.69 1.076 1.62 2.914 2.69 5 2.69h4zm6-6h-4v-10.35c2.327-.826 4-3.043 4-5.65z"/><path d="m35 57h18v-12h-18zm16-2.414-7.586-7.586h2.172l5.414 5.414zm-2.414.414h-2.172l-8-8h2.172zm-5 0h-2.172l-4.414-4.414v-2.172zm-6.586-1.586 1.586 1.586h-1.586zm14-3.828-2.586-2.586h2.586z"/><path d="m23 13h14v2h-14z"/><path d="m39 13h14v2h-14z"/><path d="m23 17h14v2h-14z"/><path d="m39 17h14v2h-14z"/><path d="m39 21h2v2h-2z"/><path d="m43 21h2v2h-2z"/><path d="m47 21h2v2h-2z"/><path d="m51 21h2v2h-2z"/></g></g></svg>