<svg xmlns="http://www.w3.org/2000/svg" xmlns:xlink="http://www.w3.org/1999/xlink" version="1.1" x="0px" y="0px" viewBox="0 0 100 125" enable-background="new 0 0 100 100" xml:space="preserve"><polygon points="36.777,67.919 6.272,67.919 6.272,52.454 52.5,52.454 "/><path d="M62.331,86.271c-0.482,0-0.838-0.146-1.155-0.468c-1.068-1.103-1.244-3.735-1.219-4.569v-8.335h-4.424V56.352l-10.88,10.773  v5.773h-4.428v8.281l0.005,0.054c0.024,0.834-0.151,3.467-1.22,4.569c-0.312,0.321-0.668,0.468-1.155,0.468h-1.707V95h3.414v-3.253  h21.062V95h3.414v-8.729H62.331z M60.624,90.772H39.563v-1.37c0.712-0.249,1.355-0.664,1.907-1.229  c2.219-2.292,2.188-6.412,2.17-7.022v-4.838h12.903v4.843c-0.015,0.6-0.044,4.726,2.18,7.018c0.547,0.565,1.19,0.98,1.901,1.229  V90.772z"/><path d="M93.729,65.434c-2.196,0-3.174-1.917-3.821-3.185c-0.212-0.415-0.555-1.087-0.779-1.295c-0.226,0.208-0.569,0.88-0.78,1.295  c-0.647,1.268-1.626,3.185-3.82,3.185c-2.195,0-3.173-1.917-3.82-3.185c-0.211-0.415-0.553-1.085-0.777-1.295  c-0.226,0.21-0.568,0.88-0.779,1.295c-0.646,1.268-1.625,3.185-3.819,3.185c-2.195,0-3.173-1.917-3.82-3.185  c-0.211-0.415-0.552-1.084-0.777-1.294c-0.225,0.21-0.566,0.879-0.777,1.294c-0.646,1.268-1.624,3.185-3.818,3.185  s-3.172-1.917-3.818-3.185c-0.23-0.453-0.616-1.209-0.837-1.339c0.014,0.007,0.044,0.017,0.06,0.017v-3.414  c2.194,0,3.172,1.917,3.818,3.186c0.211,0.413,0.552,1.083,0.777,1.293c0.225-0.21,0.566-0.88,0.777-1.293  c0.646-1.269,1.624-3.186,3.818-3.186c2.195,0,3.172,1.917,3.819,3.185c0.212,0.414,0.554,1.085,0.778,1.295  c0.225-0.21,0.567-0.881,0.779-1.295c0.646-1.268,1.624-3.185,3.819-3.185c2.194,0,3.172,1.917,3.819,3.185  c0.212,0.415,0.554,1.085,0.778,1.295c0.226-0.209,0.568-0.881,0.779-1.295c0.647-1.269,1.625-3.185,3.821-3.185  c2.195,0,3.172,1.916,3.82,3.185c0.23,0.452,0.617,1.209,0.837,1.339c-0.014-0.008-0.043-0.017-0.058-0.017L93.729,65.434z"/><path d="M38.459,23.965c-2.195,0-3.173-1.916-3.82-3.184c-0.212-0.415-0.555-1.087-0.78-1.295c-0.225,0.208-0.568,0.88-0.78,1.295  c-0.646,1.268-1.625,3.184-3.82,3.184c-2.194,0-3.172-1.916-3.818-3.184c-0.212-0.415-0.554-1.085-0.779-1.295  c-0.225,0.21-0.566,0.88-0.778,1.295c-0.647,1.268-1.625,3.184-3.82,3.184c-2.194,0-3.172-1.916-3.818-3.185  c-0.211-0.414-0.554-1.083-0.778-1.293c-0.226,0.21-0.566,0.879-0.777,1.293c-0.647,1.269-1.624,3.185-3.819,3.185  c-2.194,0-3.171-1.916-3.818-3.185c-0.23-0.452-0.616-1.208-0.836-1.339c0.014,0.008,0.044,0.017,0.06,0.018l-0.001-3.414  c2.194,0,3.173,1.917,3.819,3.185c0.211,0.414,0.552,1.083,0.776,1.293c0.226-0.21,0.566-0.879,0.777-1.293  c0.647-1.268,1.625-3.185,3.819-3.185s3.172,1.917,3.818,3.185c0.212,0.415,0.554,1.085,0.778,1.294  c0.226-0.209,0.568-0.879,0.779-1.294c0.647-1.269,1.625-3.185,3.82-3.185c2.194,0,3.172,1.917,3.818,3.185  c0.212,0.415,0.554,1.085,0.779,1.294c0.226-0.209,0.567-0.879,0.779-1.295c0.647-1.268,1.625-3.184,3.82-3.184  s3.174,1.916,3.82,3.184c0.231,0.453,0.618,1.21,0.838,1.34c-0.013-0.008-0.043-0.017-0.059-0.017L38.459,23.965z"/><rect x="6.272" y="32.008" width="87.457" height="15.569"/><rect x="43.686" y="12.221" width="50.044" height="15.569"/><text x="0" y="115" fill="#000000" font-size="5px" font-weight="bold" font-family="'Helvetica Neue', Helvetica, Arial-Unicode, Arial, Sans-serif">Created by Dan Hetteix</text><text x="0" y="120" fill="#000000" font-size="5px" font-weight="bold" font-family="'Helvetica Neue', Helvetica, Arial-Unicode, Arial, Sans-serif">from the Noun Project</text></svg>